<svg
  width="700"
  height="432"
  viewBox="0 0 700 432"
  fill="none"
  xmlns="http://www.w3.org/2000/svg"
>
  <g clip-path="url(#clip0)">
    <path
      opacity="0.24"
      d="M236.176 7.77842C191.46 22.2472 165.51 59.4244 131.664 87.3518C112.253 103.405 89.7493 116.656 69.793 132.244C49.8367 147.832 32.1854 166.509 26.1197 188.495C14.5826 230.168 46.7432 270.871 55.1624 313.039C57.8435 326.508 58.1225 340.402 63.4725 353.316C67.7064 363.536 74.9853 372.776 83.4045 381.045C117.506 414.776 172.086 433.999 225.549 431.107C260.815 429.196 294.699 418.351 330.062 417.153C383.356 415.341 437.147 435.544 488.839 424.838C512.677 419.886 533.786 408.745 554.07 397.396C594.322 374.866 636.224 347.235 645.578 308.127C652.444 279.407 640.216 249.133 648.744 220.72C653.694 204.231 665.328 189.584 671.466 173.362C684.508 138.968 670.581 99.8399 640.871 73.2296C611.161 46.6193 567.56 31.9228 523.62 28.8032C494.808 26.7532 465.813 29.338 436.892 28.8825C366.311 27.8327 309.414 -15.9203 236.176 7.77842Z"
      fill="#68E1FD"
    />
    <path
      opacity="0.24"
      d="M175.846 350.593C172.838 351.088 169.635 351.732 167.609 353.564C164.758 356.218 165.401 360.496 168.01 363.319C170.618 366.141 174.682 367.746 178.709 369.003C197.683 374.945 218.525 374.995 238.833 375.015C279.825 375.015 322.37 374.817 359.493 360.605C329.492 351.148 301.553 351.613 270.326 349.811C237.838 348.018 208.347 345.166 175.846 350.593Z"
      fill="#68E1FD"
    />
    <path
      d="M422.31 195.942L403.021 204.568L375.676 259.7L433.568 233.823L422.31 195.942Z"
      fill="#68E1FD"
    />
    <path
      d="M505.471 195.942L524.76 204.568L552.104 259.7L494.213 233.823L505.471 195.942Z"
      fill="#68E1FD"
    />
    <path
      d="M422.31 195.942L403.021 204.568L375.676 259.7L433.568 233.823L422.31 195.942Z"
      fill="url(#paint0_linear)"
    />
    <path
      d="M505.471 195.942L524.76 204.568L552.104 259.7L494.213 233.823L505.471 195.942Z"
      fill="url(#paint1_linear)"
    />
    <path
      d="M276.659 347.028C276.285 348.099 276.364 349.241 276.884 350.271C277.403 351.3 278.333 352.157 279.522 352.702C280.705 353.134 281.947 353.447 283.222 353.633C287.135 354.416 290.757 355.963 293.776 358.139C294.268 358.404 294.669 358.767 294.94 359.193C295.212 359.619 295.346 360.095 295.329 360.576C295.05 361.675 293.473 362.14 292.139 362.398C289.333 363.02 286.468 363.447 283.574 363.675C277.69 364.002 271.867 362.685 266.189 361.348C264.03 360.843 260.779 360.08 260.281 358.03C260.181 356.618 260.262 355.2 260.524 353.802L260.9 346.671"
      fill="#606161"
    />
    <path
      d="M243.14 355.535C242.882 356.079 242.822 356.673 242.969 357.244C243.115 357.815 243.461 358.339 243.965 358.753C244.986 359.568 246.151 360.253 247.422 360.784C250.778 362.445 253.737 364.589 256.157 367.112C257.273 368.27 258.316 369.786 257.613 371.142C257.238 371.772 256.643 372.296 255.902 372.648C253.481 373.798 250.689 374.323 247.895 374.153C240.847 374.005 230.426 370.41 228.388 364.18C227.745 362.249 228.449 359.605 228.546 357.614L228.801 352.811"
      fill="#606161"
    />
    <path
      d="M283.089 236.873L277.605 348.781C275.489 350.05 272.951 350.765 270.327 350.831C265.268 351.068 264.358 351.365 260.718 348.662L244.826 231.297L283.089 230.644V236.873Z"
      fill="#606161"
    />
    <path
      d="M283.089 236.873L277.605 348.781C275.489 350.05 272.951 350.765 270.327 350.831C265.268 351.068 264.358 351.365 260.718 348.662L244.826 231.297L283.089 230.644V236.873Z"
      fill="url(#paint2_linear)"
    />
    <path
      d="M261.47 246.925L245.7 355.763C245.7 355.763 243.419 357.674 237.208 357.743C230.159 357.813 229.516 357.03 227.939 354.119L224.821 229.277L261.034 234.318L261.47 246.925Z"
      fill="#606161"
    />
    <path
      d="M261.47 246.925L245.7 355.763C245.7 355.763 243.419 357.674 237.208 357.743C230.159 357.813 229.516 357.03 227.939 354.119L224.821 229.277L261.034 234.318L261.47 246.925Z"
      fill="url(#paint3_linear)"
    />
    <path
      d="M266.384 236.031C261.442 237.395 256.352 238.37 251.183 238.943C244.329 239.517 237.147 236.813 231.773 236.586C224.603 236.289 224.409 236.1 224.409 232.288C224.409 230.366 284.023 225.761 284.023 225.761C284.023 225.761 283.744 229.277 283.756 232.525C283.756 234.962 282.482 234.823 277.059 235.08C271.637 235.338 270.593 233.991 266.384 236.031Z"
      fill="#F2FBFF"
    />
    <path
      d="M242.861 150.11C242.861 150.11 232.864 152.229 225.731 156.468C221.327 159.082 224.372 232.288 224.372 232.288C224.809 232.228 243.965 238.566 262.489 235.962C278.26 233.743 283.95 227.702 283.95 227.702C283.95 227.702 285.369 157.458 282.3 154.576C280.941 153.289 265.935 148.763 265.935 148.763C265.935 148.763 259.384 156.804 242.861 150.11Z"
      fill="#68E1FD"
    />
    <path
      d="M242.861 150.11C242.861 150.11 232.864 152.229 225.731 156.468C221.327 159.082 224.372 232.288 224.372 232.288C224.809 232.228 243.965 238.566 262.489 235.962C278.26 233.743 283.95 227.702 283.95 227.702C283.95 227.702 285.369 157.458 282.3 154.576C280.941 153.289 265.935 148.763 265.935 148.763C265.935 148.763 259.384 156.804 242.861 150.11Z"
      fill="url(#paint4_linear)"
    />
    <path
      d="M246.136 133.848L242.861 150.11C242.861 150.11 250.14 158.864 259.445 157.557C268.749 156.25 266.408 152.724 266.408 152.724L265.195 138.988C265.195 138.988 256.836 140.186 246.136 133.848Z"
      fill="#C8A59C"
    />
    <path
      d="M244.984 139.553L246.197 133.848C256.897 140.186 262.453 137.493 262.453 137.493L265.037 144.871C263.583 146.113 261.626 146.88 259.53 147.03C254.337 147.327 249.145 144.009 244.984 139.553Z"
      fill="#B58B81"
    />
    <path
      d="M243.274 148.149L233.568 151.872C233.568 151.872 248.854 165.064 253.512 164.806C253.512 164.806 257.916 158.131 262.005 157.082L243.274 148.149Z"
      fill="#F2FBFF"
    />
    <path
      d="M265.753 150.417C264.951 152.78 263.698 155.026 262.041 157.072C262.95 157.359 268.883 160.736 268.98 163.014C268.98 163.014 274.876 152.12 272.437 150.407C270.398 149.559 268.304 148.802 266.165 148.139L265.753 150.417Z"
      fill="#F2FBFF"
    />
    <path
      d="M229.674 154.536C229.674 154.536 214.667 158.498 212.969 178.057C211.416 195.883 207.51 208.827 210.688 214.105C214.825 220.988 243.759 222.127 243.759 222.127C244.458 218.701 244.281 215.194 243.237 211.827L227.381 206.658C227.381 206.658 229.929 157.587 229.674 154.536Z"
      fill="#68E1FD"
    />
    <path
      d="M237.753 122.004C238.542 131.026 249.885 146.97 260.925 146.327C271.964 145.683 275.179 127.015 274.391 117.993C273.602 108.971 267.403 103.851 256.339 104.495C253.71 104.648 251.144 105.222 248.787 106.185C246.43 107.148 244.329 108.481 242.603 110.107C240.877 111.733 239.561 113.62 238.729 115.661C237.896 117.703 237.565 119.858 237.753 122.004Z"
      fill="#C8A59C"
    />
    <path
      d="M263.776 220.711C263.509 218.987 264.504 217.334 264.795 214.402C265.086 211.471 262.757 210.708 259.348 210.441C258.414 210.352 257.686 210.263 257.067 210.183C253.889 210.807 256.424 213.957 256.594 216.125C256.764 218.294 256.169 221.404 257.091 222.067C257.48 222.355 260.403 222.226 263.788 221.869C263.842 221.484 263.838 221.095 263.776 220.711Z"
      fill="#B58B81"
    />
    <path
      d="M265.875 137.007C265.875 137.007 265.571 136.78 263.254 136.918C260.503 137.033 257.745 136.873 255.041 136.443C253.258 136.077 252.409 136.304 252.615 138.255C252.821 140.206 254.689 141.939 259.372 142.147C264.625 142.375 266.833 140.761 267.245 138.83C267.537 137.433 266.457 136.968 265.875 137.007Z"
      fill="#C8A59C"
    />
    <path
      d="M245.7 212.134C247.669 211.792 249.61 211.349 251.511 210.807C254.01 210.035 254.798 210.49 258.462 210.807C262.126 211.124 264.637 211.887 264.322 214.887C264.006 217.888 262.951 219.572 263.23 221.325C263.509 223.078 262.841 224.583 259.59 224.642C256.339 224.702 245.7 222.028 245.7 222.028"
      fill="#C8A59C"
    />
    <path
      d="M242.157 211.352H247.726C247.726 211.352 250.152 217.908 246.998 222.454L240.847 222.246C240.847 222.246 242.934 215.868 242.157 211.352Z"
      fill="#F2FBFF"
    />
    <path
      d="M244.972 214.531C245.649 214.531 246.197 214.056 246.197 213.471C246.197 212.886 245.649 212.412 244.972 212.412C244.295 212.412 243.747 212.886 243.747 213.471C243.747 214.056 244.295 214.531 244.972 214.531Z"
      fill="#D2E8EC"
    />
    <path
      d="M266.675 126.262C266.493 125.689 266.452 125.092 266.554 124.506C266.656 123.919 266.899 123.355 267.269 122.846C267.633 122.334 268.119 121.887 268.698 121.531C269.278 121.176 269.939 120.919 270.642 120.776C271.355 120.596 272.105 120.537 272.847 120.601C273.589 120.665 274.307 120.851 274.959 121.147C275.61 121.444 276.181 121.846 276.637 122.328C277.093 122.81 277.424 123.362 277.612 123.952C277.799 124.541 277.837 125.156 277.726 125.758C277.614 126.36 277.353 126.937 276.96 127.455C276.568 127.973 276.05 128.42 275.44 128.77C274.829 129.12 274.138 129.365 273.408 129.491H273.214C271.824 129.745 270.368 129.551 269.149 128.95C267.931 128.348 267.044 127.385 266.675 126.262ZM270.969 121.826C269.894 122.054 268.974 122.621 268.41 123.403C267.846 124.184 267.684 125.116 267.961 125.995C268.166 126.647 268.602 127.234 269.214 127.685C269.826 128.136 270.587 128.43 271.402 128.529C272.218 128.629 273.051 128.531 273.798 128.247C274.545 127.963 275.173 127.506 275.604 126.932C276.035 126.359 276.25 125.694 276.221 125.022C276.192 124.349 275.922 123.698 275.443 123.151C274.964 122.603 274.298 122.182 273.529 121.941C272.759 121.701 271.92 121.65 271.115 121.796L270.969 121.826Z"
      fill="#292F67"
    />
    <path
      d="M255.405 129.56C254.694 129.22 254.073 128.768 253.577 128.231C253.082 127.694 252.722 127.082 252.517 126.431C252.21 125.453 252.264 124.422 252.674 123.469C253.083 122.516 253.829 121.684 254.818 121.076C255.806 120.469 256.993 120.115 258.228 120.058C259.463 120.001 260.691 120.244 261.757 120.757C262.823 121.269 263.679 122.028 264.217 122.937C264.755 123.847 264.951 124.866 264.781 125.866C264.61 126.866 264.08 127.803 263.257 128.557C262.435 129.311 261.357 129.85 260.16 130.105H259.93C258.392 130.403 256.772 130.208 255.405 129.56ZM257.346 121.251C256.712 121.382 256.117 121.615 255.594 121.936C255.072 122.257 254.633 122.66 254.303 123.121C253.973 123.582 253.759 124.092 253.674 124.621C253.588 125.15 253.632 125.688 253.803 126.203C254.047 126.968 254.561 127.658 255.281 128.186C256.001 128.715 256.895 129.059 257.853 129.175C258.811 129.292 259.789 129.176 260.667 128.843C261.545 128.509 262.283 127.972 262.79 127.298C263.296 126.624 263.549 125.844 263.517 125.054C263.484 124.264 263.168 123.499 262.607 122.855C262.046 122.21 261.266 121.715 260.363 121.43C259.46 121.144 258.474 121.082 257.528 121.251H257.346Z"
      fill="#292F67"
    />
    <path
      d="M266.529 125.193L267.803 124.886C267.722 124.677 267.584 124.485 267.399 124.325C267.214 124.166 266.987 124.043 266.736 123.965C266.174 123.839 265.585 123.815 265.01 123.896C264.436 123.976 263.89 124.159 263.412 124.43L264.042 125.421C265.34 124.846 265.971 124.906 266.226 124.995C266.355 125.026 266.463 125.097 266.529 125.193Z"
      fill="#292F67"
    />
    <path
      d="M253.039 124.906L252.99 123.826L245.42 124.004L245.481 125.084L253.039 124.906Z"
      fill="#292F67"
    />
    <path
      d="M282.3 154.576C282.3 154.576 290.683 173.65 295.9 189.109C301.116 204.568 316.523 189.376 316.523 189.376C316.523 189.376 325.015 189.109 325.331 193.338C325.646 197.566 320.478 211.164 305.751 211.461C291.023 211.758 275.422 196.002 275.422 196.002L282.3 154.576Z"
      fill="#68E1FD"
    />
    <path
      d="M304.853 220.849L274.9 220.493C274.124 220.529 273.349 220.415 272.636 220.161C271.924 219.908 271.295 219.521 270.799 219.033C270.303 218.544 269.955 217.967 269.782 217.349C269.61 216.73 269.617 216.087 269.805 215.472L281.245 172.244C281.691 170.852 282.689 169.62 284.082 168.738C285.475 167.857 287.186 167.377 288.948 167.371L318.901 167.728C319.677 167.69 320.454 167.802 321.168 168.055C321.881 168.308 322.512 168.694 323.008 169.183C323.505 169.672 323.853 170.25 324.024 170.87C324.196 171.489 324.186 172.133 323.996 172.749L312.568 215.977C312.119 217.369 311.119 218.602 309.724 219.483C308.329 220.364 306.617 220.844 304.853 220.849Z"
      fill="#68E1FD"
    />
    <path
      d="M304.853 220.849L274.9 220.493C274.124 220.529 273.349 220.415 272.636 220.161C271.924 219.908 271.295 219.521 270.799 219.033C270.303 218.544 269.955 217.967 269.782 217.349C269.61 216.73 269.617 216.087 269.805 215.472L281.245 172.244C281.691 170.852 282.689 169.62 284.082 168.738C285.475 167.857 287.186 167.377 288.948 167.371L318.901 167.728C319.677 167.69 320.454 167.802 321.168 168.055C321.881 168.308 322.512 168.694 323.008 169.183C323.505 169.672 323.853 170.25 324.024 170.87C324.196 171.489 324.186 172.133 323.996 172.749L312.568 215.977C312.119 217.369 311.119 218.602 309.724 219.483C308.329 220.364 306.617 220.844 304.853 220.849Z"
      fill="url(#paint5_linear)"
    />
    <path
      d="M305.059 221.107L276.404 220.76C275.663 220.79 274.923 220.679 274.244 220.434C273.566 220.189 272.966 219.818 272.495 219.35C272.023 218.882 271.692 218.331 271.528 217.74C271.365 217.149 271.372 216.535 271.551 215.947L282.47 174.581C282.902 173.248 283.86 172.069 285.195 171.226C286.531 170.383 288.169 169.923 289.858 169.916L318.524 170.263C319.266 170.231 320.007 170.341 320.687 170.585C321.367 170.829 321.968 171.201 322.44 171.669C322.912 172.137 323.243 172.69 323.406 173.281C323.568 173.873 323.559 174.488 323.377 175.076L312.459 216.442C312.026 217.776 311.066 218.956 309.728 219.8C308.39 220.643 306.749 221.103 305.059 221.107Z"
      fill="#68E1FD"
    />
    <path
      d="M324.36 191.367C324.338 190.409 324.086 189.464 323.62 188.584C323.3 187.691 322.658 186.897 321.776 186.306C320.801 185.858 319.692 185.638 318.574 185.673C317.445 185.673 316.305 185.673 315.177 185.673C313.932 185.656 312.696 185.837 311.537 186.207C309.88 186.944 308.592 188.132 307.898 189.565C306.345 192.268 306.017 195.705 308.238 198.072C309.218 199.011 310.372 199.82 311.659 200.468C313.054 201.251 314.691 202.072 316.329 201.706C317.109 201.482 317.821 201.124 318.416 200.656L320.842 199.012C321.67 198.51 322.37 197.881 322.904 197.16C323.349 196.23 323.564 195.237 323.535 194.239C323.869 193.294 324.144 192.335 324.36 191.367Z"
      fill="#C8A59C"
    />
    <path
      d="M272.91 106.297C271.354 103.283 269.077 100.553 266.214 98.2656L265.983 100.078C261.437 98.3828 256.529 97.4275 251.535 97.2654L251.971 98.533C250.155 98.1625 248.411 97.5858 246.791 96.8197L245.226 99.0975C244.163 98.4088 242.997 97.8331 241.757 97.3842L239.731 103.326C239.158 103.076 238.628 102.767 238.154 102.405C237.62 102.108 236.759 102.019 236.419 102.465C236.288 102.679 236.233 102.919 236.261 103.158V105.713L233.277 104.841C233.15 104.793 233.011 104.768 232.87 104.768C232.73 104.768 232.591 104.793 232.464 104.841C232.365 104.909 232.284 104.992 232.225 105.085C232.167 105.179 232.133 105.281 232.124 105.386C229.953 114.24 234.551 125.757 241.696 132.64C241.971 131.58 241.835 130.476 241.308 129.481C240.713 128.213 238.882 127.5 239.197 126.163C239.281 125.487 239.668 124.86 240.284 124.403C240.9 123.946 241.701 123.691 242.533 123.687C244.85 123.905 243.989 124.599 245.639 125.945C246.221 123.321 244.826 119.013 245.833 116.488C246.166 115.823 246.686 115.232 247.349 114.76C248.013 114.289 248.802 113.95 249.654 113.772C250.507 113.594 251.398 113.582 252.258 113.735C253.117 113.888 253.92 114.204 254.604 114.656C254.531 112.972 256.957 111.893 259.02 111.952C261.082 112.011 263.424 112.655 265.607 112.873C267.463 113.051 269.368 114.111 271.151 114.091C275.737 114.032 273.893 108.407 272.91 106.297Z"
      fill="#606161"
    />
    <path
      opacity="0.24"
      d="M462.878 341.264C481.323 341.264 496.276 339.779 496.276 337.946C496.276 336.114 481.323 334.629 462.878 334.629C444.432 334.629 429.479 336.114 429.479 337.946C429.479 339.779 444.432 341.264 462.878 341.264Z"
      fill="#68E1FD"
    />
    <path
      opacity="0.24"
      d="M460.851 362.903C490.767 362.903 515.018 360.495 515.018 357.525C515.018 354.555 490.767 352.148 460.851 352.148C430.936 352.148 406.684 354.555 406.684 357.525C406.684 360.495 430.936 362.903 460.851 362.903Z"
      fill="#68E1FD"
    />
    <path
      d="M461.858 324.824C508.718 324.824 546.706 321.051 546.706 316.397C546.706 311.742 508.718 307.969 461.858 307.969C414.998 307.969 377.011 311.742 377.011 316.397C377.011 321.051 414.998 324.824 461.858 324.824Z"
      stroke="white"
      stroke-width="4.36952"
      stroke-miterlimit="10"
    />
    <path
      d="M463.751 55.9684C463.751 55.9684 372.583 99.6719 426.143 235.972H500.461C500.461 235.972 555.634 127.51 463.751 55.9684Z"
      fill="#68E1FD"
    />
    <path
      d="M463.751 55.9684C463.751 55.9684 372.583 99.6719 426.143 235.972H500.461C500.461 235.972 555.634 127.51 463.751 55.9684Z"
      fill="url(#paint6_linear)"
    />
    <path
      d="M462.198 165.014C475.98 165.014 487.153 155.894 487.153 144.643C487.153 133.392 475.98 124.272 462.198 124.272C448.416 124.272 437.244 133.392 437.244 144.643C437.244 155.894 448.416 165.014 462.198 165.014Z"
      fill="#68E1FD"
    />
    <path
      d="M432.379 283.854L441.55 270.217C443.172 286.957 448.207 303.358 456.448 318.744C471.26 306.711 474.972 288.549 477.836 271.653C482.041 279.946 485.798 288.374 489.106 296.937C495.828 286.052 498.022 273.675 495.353 261.681L501.055 269.603C504.952 258.111 503.271 245.834 496.36 235.328C484.585 236.041 472.785 236.513 460.961 236.744C455.299 236.863 449.614 236.922 443.904 236.922C440.155 236.922 433.252 235.724 429.831 237.279C423.256 240.25 425.658 253.055 426.07 258.314C426.411 262.662 427.112 266.986 428.169 271.257C428.667 273.268 433.313 282.468 432.379 283.854Z"
      fill="#68E1FD"
    />
    <path
      d="M432.379 283.854L441.55 270.217C443.172 286.957 448.207 303.358 456.448 318.744C471.26 306.711 474.972 288.549 477.836 271.653C482.041 279.946 485.798 288.374 489.106 296.937C495.828 286.052 498.022 273.675 495.353 261.681L501.055 269.603C504.952 258.111 503.271 245.834 496.36 235.328C484.585 236.041 472.785 236.513 460.961 236.744C455.299 236.863 449.614 236.922 443.904 236.922C440.155 236.922 433.252 235.724 429.831 237.279C423.256 240.25 425.658 253.055 426.07 258.314C426.411 262.662 427.112 266.986 428.169 271.257C428.667 273.268 433.313 282.468 432.379 283.854Z"
      fill="url(#paint7_linear)"
    />
    <path
      d="M444.995 266.731L450.576 258.413C451.572 268.621 454.647 278.622 459.674 288.004C468.7 280.665 470.969 269.584 472.716 259.284C475.288 264.348 477.58 269.491 479.594 274.714C483.693 268.072 485.03 260.521 483.404 253.203L486.873 258.056C489.27 251.031 488.244 243.522 484.01 237.101C476.828 237.536 469.634 237.827 462.428 237.972C458.959 238.038 455.489 238.071 452.019 238.071C449.739 238.071 445.529 237.338 443.442 238.289C439.427 240.121 440.883 247.915 441.138 251.163C441.351 253.825 441.781 256.471 442.423 259.086C442.727 260.274 445.553 265.89 444.995 266.731Z"
      fill="url(#paint8_linear)"
    />
    <path
      d="M445.117 69.8826C445.117 69.8826 464.018 75.0819 479.389 69.8826L464.127 56.3349C463.763 56.0118 463.319 55.7565 462.823 55.5861C462.328 55.4158 461.793 55.3344 461.256 55.3476C460.718 55.3607 460.191 55.4681 459.709 55.6624C459.227 55.8566 458.801 56.1333 458.462 56.4735L445.117 69.8826Z"
      fill="#68E1FD"
    />
    <path
      d="M445.117 69.8826C445.117 69.8826 464.018 75.0819 479.389 69.8826L463.945 56.1764C463.604 55.8736 463.187 55.6343 462.722 55.4746C462.258 55.3149 461.756 55.2386 461.252 55.2508C460.749 55.263 460.254 55.3634 459.802 55.5453C459.349 55.7273 458.95 55.9864 458.632 56.3051L445.117 69.8826Z"
      fill="url(#paint9_linear)"
    />
    <path
      d="M494.528 285.627C507.242 286.617 515.346 288.232 515.346 289.994C515.346 293.124 489.87 295.659 458.328 295.659C426.786 295.659 401.31 293.124 401.31 289.994C401.31 287.41 418.828 285.221 442.739 284.548"
      stroke="white"
      stroke-width="2.93412"
      stroke-miterlimit="10"
    />
  </g>
  <defs>
    <linearGradient
      id="paint0_linear"
      x1="412.774"
      y1="181.325"
      x2="395.049"
      y2="394.946"
      gradientUnits="userSpaceOnUse"
    >
      <stop stop-color="#010101" stop-opacity="0" />
      <stop offset="0.95" stop-color="#010101" />
    </linearGradient>
    <linearGradient
      id="paint1_linear"
      x1="24662.1"
      y1="12447"
      x2="23131.9"
      y2="26123.3"
      gradientUnits="userSpaceOnUse"
    >
      <stop stop-color="#010101" stop-opacity="0" />
      <stop offset="0.95" stop-color="#010101" />
    </linearGradient>
    <linearGradient
      id="paint2_linear"
      x1="9612.31"
      y1="41075.7"
      x2="589.946"
      y2="38083.8"
      gradientUnits="userSpaceOnUse"
    >
      <stop stop-color="#010101" stop-opacity="0" />
      <stop offset="0.95" stop-color="#010101" />
    </linearGradient>
    <linearGradient
      id="paint3_linear"
      x1="8551.52"
      y1="42345.7"
      x2="3380.77"
      y2="41841.5"
      gradientUnits="userSpaceOnUse"
    >
      <stop stop-color="#010101" stop-opacity="0" />
      <stop offset="0.95" stop-color="#010101" />
    </linearGradient>
    <linearGradient
      id="paint4_linear"
      x1="12658.7"
      y1="17715.1"
      x2="10764.5"
      y2="34617.8"
      gradientUnits="userSpaceOnUse"
    >
      <stop stop-color="#010101" stop-opacity="0" />
      <stop offset="0.95" stop-color="#010101" />
    </linearGradient>
    <linearGradient
      id="paint5_linear"
      x1="13159.9"
      y1="9199.29"
      x2="13461.2"
      y2="17774.9"
      gradientUnits="userSpaceOnUse"
    >
      <stop stop-color="#010101" stop-opacity="0" />
      <stop offset="0.95" stop-color="#010101" />
    </linearGradient>
    <linearGradient
      id="paint6_linear"
      x1="396.87"
      y1="149.575"
      x2="499.038"
      y2="143.089"
      gradientUnits="userSpaceOnUse"
    >
      <stop stop-color="white" stop-opacity="0" />
      <stop offset="0.95" stop-color="white" />
    </linearGradient>
    <linearGradient
      id="paint7_linear"
      x1="29565.9"
      y1="27543.2"
      x2="30035.4"
      y2="12894"
      gradientUnits="userSpaceOnUse"
    >
      <stop stop-color="#010101" stop-opacity="0" />
      <stop offset="0.95" stop-color="#010101" />
    </linearGradient>
    <linearGradient
      id="paint8_linear"
      x1="18256.3"
      y1="15581.4"
      x2="18430.4"
      y2="10128.8"
      gradientUnits="userSpaceOnUse"
    >
      <stop stop-color="#010101" stop-opacity="0" />
      <stop offset="0.95" stop-color="#010101" />
    </linearGradient>
    <linearGradient
      id="paint9_linear"
      x1="13533.4"
      y1="1487.52"
      x2="12270.6"
      y2="1043.29"
      gradientUnits="userSpaceOnUse"
    >
      <stop stop-color="#010101" stop-opacity="0" />
      <stop offset="0.95" stop-color="#010101" />
    </linearGradient>
    <clipPath id="clip0">
      <rect
        width="700"
        height="430.687"
        fill="white"
        transform="translate(0 0.757263)"
      />
    </clipPath>
  </defs>
</svg>
