<svg
  width="27"
  height="30"
  viewBox="0 0 27 30"
  fill="none"
  xmlns="http://www.w3.org/2000/svg"
>
  <g clip-path="url(#clip0)">
    <path
      d="M5.87578 26.2506H0.433594V8.72524H5.87578V26.2506ZM3.15176 6.33462C1.41152 6.33462 0 4.89321 0 3.15298C1.24559e-08 2.31708 0.332059 1.51542 0.923128 0.924349C1.5142 0.33328 2.31586 0.0012207 3.15176 0.0012207C3.98766 0.0012207 4.78932 0.33328 5.38039 0.924349C5.97146 1.51542 6.30352 2.31708 6.30352 3.15298C6.30352 4.89321 4.89141 6.33462 3.15176 6.33462ZM26.2441 26.2506H20.8137V17.7194C20.8137 15.6862 20.7727 13.0788 17.9842 13.0788C15.1547 13.0788 14.7211 15.2877 14.7211 17.5729V26.2506H9.28477V8.72524H14.5043V11.1159H14.5805C15.307 9.73892 17.0818 8.28579 19.7297 8.28579C25.2375 8.28579 26.25 11.9127 26.25 16.6237V26.2506H26.2441Z"
      fill="#FEFCFB"
    />
  </g>
  <defs>
    <clipPath id="clip0">
      <rect width="26.25" height="30" fill="white" />
    </clipPath>
  </defs>
</svg>
