<svg
  width="406"
  height="306"
  viewBox="0 0 406 306"
  fill="none"
  xmlns="http://www.w3.org/2000/svg"
>
  <g clip-path="url(#clip0)">
    <path
      opacity="0.18"
      d="M337.297 109.833C339.246 117.554 339.483 125.608 337.989 133.431C336.495 141.253 333.308 148.654 328.65 155.113C321.696 164.579 311.782 171.657 305.608 181.625C292.263 203.145 299.426 232.531 287.187 254.7C276.956 273.245 255.761 282.355 236.08 290.175C220.626 296.31 205.017 302.484 188.636 304.957C172.254 307.43 154.636 305.861 140.442 297.338C128.735 290.33 120.135 279.218 112.192 268.122C92.6652 240.822 75.0166 211.096 69.0204 178.07C63.0241 145.045 70.5039 108.001 95.0915 85.1524C107.061 74.0254 122.739 66.3524 131.185 52.3587C140.048 37.6772 140.171 17.1927 153.949 6.96209C159.033 3.18355 165.354 1.42951 171.628 0.594982C186.734 -1.34939 202.065 1.59984 215.371 9.00977C228.87 16.5746 239.951 28.5979 254.656 33.4351C273.687 39.7017 298.113 34.8878 310.762 53.4327C320.923 68.346 332.784 92.4622 337.297 109.833Z"
      fill="#68E1FD"
    />
    <path
      d="M256.317 99.2775C256.097 99.7436 255.796 100.167 255.429 100.529C252.484 103.64 248.671 105.794 244.487 106.711C243.01 107.051 241.498 107.222 239.982 107.221C239.094 101.487 238.189 95.7462 237.494 89.9896C236.945 85.4924 236.536 81.003 236.343 76.4903C236.211 73.6622 230.084 63.8025 231.336 61.1598C232.719 58.2544 242.679 68.1992 243.799 70.0923C250.02 80.5239 252.253 88.591 256.518 97.5621C256.68 98.1381 256.607 98.7545 256.317 99.2775Z"
      fill="#68E1FD"
    />
    <path
      d="M245.492 105.66C245.193 106.048 244.857 106.405 244.487 106.726C243.01 107.067 241.498 107.238 239.982 107.236C239.094 101.503 238.19 95.7617 237.494 90.005C237.757 85.4821 238.233 80.9772 238.924 76.4904C238.63 78.368 240.94 82.4634 241.566 84.3024L244.279 92.3154C245.693 96.4958 248.714 101.58 245.492 105.66Z"
      fill="url(#paint0_linear)"
    />
    <path
      d="M242.161 115.466C242.779 119.237 243.567 123.054 245.429 126.392C246.387 128.107 247.817 129.792 249.756 130.093C250.835 130.195 251.922 130.033 252.925 129.622C255.002 128.907 256.96 127.886 258.735 126.593C260.431 125.292 262.03 123.869 263.518 122.335C265.732 120.246 267.781 117.988 269.646 115.582C270.504 114.423 271.284 113.202 272.219 112.097C276.083 107.499 282.264 105.436 286.646 101.333C287.828 100.236 290.223 95.2131 290.045 93.6058C288.438 92.6786 285.139 96.4107 283.362 96.9516C281.584 97.4925 279.923 98.3734 278.138 98.8757C276.001 99.4717 273.745 99.5009 271.593 98.9607C270.867 98.7752 270.001 87.316 269.275 87.5787C268.909 87.732 268.582 87.9642 268.317 88.2587C266.818 89.8041 265.999 102.994 264.755 104.71C263.047 107.028 260.683 108.79 258.341 110.474C258.133 110.621 257.87 110.775 257.638 110.659C257.562 110.603 257.498 110.531 257.45 110.448C257.402 110.366 257.371 110.275 257.36 110.18C256.749 107.916 256.062 105.668 255.312 103.45C254.787 101.905 254.045 100.205 252.492 99.7411C251.109 99.3316 249.671 100.112 248.435 100.862C246.843 101.835 245.236 102.793 243.652 103.775C242.771 104.316 241.705 104.841 241.288 105.838C240.778 107.035 241.21 108.689 241.357 109.918C241.589 111.78 241.859 113.627 242.161 115.466Z"
      fill="#F5BCBA"
    />
    <path
      d="M256.263 220.562C256.263 222.926 256.147 225.252 255.938 227.562C254.135 247.334 244.807 265.658 229.88 278.749C214.953 291.839 195.568 298.696 175.73 297.903C155.892 297.109 137.117 288.726 123.283 274.485C109.449 260.244 101.614 241.233 101.396 221.381C101.396 221.118 101.396 220.863 101.396 220.608C101.294 210.374 103.222 200.221 107.067 190.736C110.913 181.251 116.601 172.623 123.802 165.35C131.002 158.077 139.574 152.303 149.019 148.363C158.465 144.423 168.599 142.394 178.833 142.394C189.068 142.394 199.201 144.423 208.647 148.363C218.093 152.303 226.664 158.077 233.865 165.35C241.066 172.623 246.754 181.251 250.599 190.736C254.445 200.221 256.372 210.374 256.27 220.608L256.263 220.562Z"
      fill="#68E1FD"
    />
    <path
      d="M256.263 220.562C256.263 222.926 256.147 225.252 255.938 227.562C238.119 239.686 211.894 247.336 182.647 247.336C148.648 247.336 118.775 237.005 101.396 221.342C101.396 221.079 101.396 220.824 101.396 220.569C101.294 210.335 103.222 200.182 107.067 190.697C110.913 181.213 116.601 172.584 123.802 165.311C131.002 158.038 139.574 152.264 149.019 148.324C158.465 144.384 168.599 142.355 178.833 142.355C189.068 142.355 199.201 144.384 208.647 148.324C218.093 152.264 226.664 158.038 233.865 165.311C241.066 172.584 246.754 181.213 250.599 190.697C254.445 200.182 256.372 210.335 256.27 220.569L256.263 220.562Z"
      fill="url(#paint1_linear)"
    />
    <path
      d="M214.336 190.287C217.426 191.4 220.788 192.196 223.322 194.305C225.571 196.167 226.938 198.864 228.043 201.561C231.728 210.611 233.057 220.448 231.907 230.151C231.598 232.732 231.134 235.39 231.807 237.878C232.479 240.366 234.774 242.7 237.355 242.391C240.932 235.282 241.009 226.983 241.017 219.024C241.017 213.213 241.017 207.279 239.07 201.8C237.478 197.288 234.666 193.301 231.76 189.507C221.166 175.598 208.347 162.624 192.028 156.373C191.351 156.027 190.574 155.931 189.833 156.102C186.472 157.331 187.02 163.312 188.326 165.715C190.181 169.035 192.245 172.232 194.508 175.289C199.471 182.156 206.377 187.379 214.336 190.287Z"
      fill="url(#paint2_linear)"
    />
    <path
      d="M183.775 172.824C183.821 171.784 183.955 170.75 184.177 169.733C184.296 169.228 184.551 168.766 184.915 168.397C185.279 168.028 185.737 167.765 186.24 167.639C186.665 167.628 187.088 167.589 187.507 167.523C188.365 167.26 188.728 166.264 188.975 165.406L191.719 155.824C192.244 153.97 192.777 152.023 192.375 150.145C191.742 147.209 189.045 145.223 186.418 143.785C184.509 142.735 182.361 141.8 180.236 142.194C176.944 142.804 175.036 146.204 173.807 149.318C172.377 152.655 171.498 156.201 171.203 159.819C170.987 163.999 170.631 174.238 173.22 177.893C176.805 183.024 183.203 177.46 183.775 172.824Z"
      fill="url(#paint3_linear)"
    />
    <path
      d="M225.455 160.731C232.464 163.103 239.936 164.1 246.689 167.121C246.907 167.187 247.108 167.297 247.281 167.445C247.454 167.593 247.594 167.774 247.694 167.979C247.753 168.314 247.71 168.658 247.57 168.968C241.867 185.93 238.65 203.628 238.019 221.512C242.06 222.239 246.19 222.331 250.259 221.783C250.716 221.754 251.159 221.613 251.549 221.373C251.924 221.045 252.207 220.624 252.368 220.152C258.906 205.476 264.773 190.524 269.971 175.296C270.89 172.6 271.802 169.779 271.431 166.951C270.898 162.833 267.799 159.587 264.855 156.659L241.914 133.771C241.33 133.113 240.614 132.587 239.812 132.226C238.889 131.951 237.914 131.903 236.968 132.087C227.92 133.207 215.564 133.555 198.936 132.859C196.78 132.767 207.436 145.045 208.324 147.402C209.035 149.272 211.284 151.683 212.659 153.135C216.105 156.751 220.757 159.139 225.455 160.731Z"
      fill="#525263"
    />
    <path
      d="M225.455 160.731C232.464 163.103 239.936 164.1 246.689 167.121C246.907 167.187 247.108 167.297 247.281 167.445C247.454 167.593 247.594 167.774 247.694 167.979C247.753 168.314 247.71 168.658 247.57 168.968C241.867 185.93 238.65 203.628 238.019 221.512C242.06 222.239 246.19 222.331 250.259 221.783C250.716 221.754 251.159 221.613 251.549 221.373C251.924 221.045 252.207 220.624 252.368 220.152C258.906 205.476 264.773 190.524 269.971 175.296C270.89 172.6 271.802 169.779 271.431 166.951C270.898 162.833 267.799 159.587 264.855 156.659L241.914 133.771C241.33 133.113 240.614 132.587 239.812 132.226C238.889 131.951 237.914 131.903 236.968 132.087C227.92 133.207 215.564 133.555 198.936 132.859C196.78 132.767 207.436 145.045 208.324 147.402C209.035 149.272 211.284 151.683 212.659 153.135C216.105 156.751 220.757 159.139 225.455 160.731Z"
      fill="url(#paint4_linear)"
    />
    <path
      d="M236.845 231.658C236.282 232.534 235.901 233.514 235.724 234.54C235.312 236.336 235.008 238.155 234.812 239.988C234.658 241.409 234.604 242.955 235.415 244.122C236.227 245.288 237.563 245.713 238.815 246.2C241.966 247.497 245.028 249.002 247.979 250.705C249.973 251.802 252.052 252.938 254.323 253.023C256.595 253.108 259.106 251.864 259.624 249.654C259.803 248.59 259.713 247.498 259.361 246.478C258.121 242.045 255.689 238.036 252.33 234.888C251.741 234.313 251.085 233.812 250.375 233.396C249.694 233.045 248.983 232.755 248.25 232.531C246.186 231.776 244.071 231.169 241.921 230.715C240.044 230.414 238.143 229.857 236.845 231.658Z"
      fill="#2E2E3F"
    />
    <path
      d="M236.845 231.658C236.282 232.534 235.901 233.514 235.724 234.54C235.312 236.336 235.008 238.155 234.812 239.988C234.658 241.409 234.604 242.955 235.415 244.122C236.227 245.288 237.563 245.713 238.815 246.2C241.966 247.497 245.028 249.002 247.979 250.705C249.973 251.802 252.052 252.938 254.323 253.023C256.595 253.108 259.106 251.864 259.624 249.654C259.803 248.59 259.713 247.498 259.361 246.478C258.121 242.045 255.689 238.036 252.33 234.888C251.741 234.313 251.085 233.812 250.375 233.396C249.694 233.045 248.983 232.755 248.25 232.531C246.186 231.776 244.071 231.169 241.921 230.715C240.044 230.414 238.143 229.857 236.845 231.658Z"
      fill="url(#paint5_linear)"
    />
    <path
      d="M239.139 222.092C238.554 225.148 238.248 228.252 238.228 231.364C238.228 232.732 238.32 234.246 239.302 235.228C240.23 235.966 241.414 236.305 242.593 236.17C244.015 236.118 245.417 235.828 246.743 235.313C247.037 235.221 247.303 235.056 247.515 234.834C247.672 234.614 247.78 234.364 247.832 234.1C249.011 229.676 249.637 225.124 249.695 220.546C249.77 219.829 249.621 219.105 249.27 218.475C248.535 217.448 247.013 217.494 245.777 217.741C244.194 218.08 242.643 218.553 241.141 219.155C239.719 219.65 239.425 220.624 239.139 222.092Z"
      fill="#F5BCBA"
    />
    <path
      d="M254.378 236.619C254.936 237.991 255.391 239.404 255.738 240.845C255.977 241.966 256.116 243.163 256.835 244.06C257.747 245.18 259.331 245.466 260.776 245.489C261.967 245.557 263.158 245.356 264.261 244.902C264.835 244.677 265.314 244.263 265.621 243.728C265.835 243.199 265.91 242.624 265.837 242.058C265.724 238.133 264.745 234.28 262.97 230.777C261.952 228.966 260.806 227.231 259.539 225.584C259.139 224.844 258.465 224.289 257.662 224.039C257.249 224.024 256.837 224.093 256.451 224.24C256.064 224.387 255.712 224.611 255.413 224.897C254.138 225.855 251.333 227.454 251.627 229.27C251.998 231.689 253.512 234.324 254.378 236.619Z"
      fill="#F5BCBA"
    />
    <path
      d="M263.742 239.47C262.868 239.959 262.019 240.493 261.2 241.069C259.925 241.773 258.426 241.912 257.027 242.313C256.658 242.384 256.319 242.565 256.054 242.831C255.861 243.091 255.741 243.398 255.706 243.72C255.443 245.829 255.53 247.967 255.961 250.048C256.672 254.551 257.501 259.035 258.449 263.501C258.843 265.34 259.315 267.28 260.651 268.601C261.988 269.922 264.02 270.378 265.921 270.432C267.7 270.534 269.476 270.203 271.098 269.466C272.389 268.776 273.506 267.803 274.368 266.62C275.229 265.437 275.813 264.075 276.075 262.636C276.578 259.741 276.223 256.762 275.055 254.066C274.261 252.223 273.337 250.438 272.288 248.727C270.898 246.337 269.512 243.946 268.131 241.556C267.08 239.733 266.122 238.458 263.742 239.47Z"
      fill="#2E2E3F"
    />
    <path
      d="M263.742 239.47C262.868 239.959 262.019 240.493 261.2 241.069C259.925 241.773 258.426 241.912 257.027 242.313C256.658 242.384 256.319 242.565 256.054 242.831C255.861 243.091 255.741 243.398 255.706 243.72C255.443 245.829 255.53 247.967 255.961 250.048C256.672 254.551 257.501 259.035 258.449 263.501C258.843 265.34 259.315 267.28 260.651 268.601C261.988 269.922 264.02 270.378 265.921 270.432C267.7 270.534 269.476 270.203 271.098 269.466C272.389 268.776 273.506 267.803 274.368 266.62C275.229 265.437 275.813 264.075 276.075 262.636C276.578 259.741 276.223 256.762 275.055 254.066C274.261 252.223 273.337 250.438 272.288 248.727C270.898 246.337 269.512 243.946 268.131 241.556C267.08 239.733 266.122 238.458 263.742 239.47Z"
      fill="url(#paint6_linear)"
    />
    <path
      d="M170.122 98.0334C169.445 99.7346 168.994 101.516 168.777 103.334C168.042 108.041 167.572 112.785 167.371 117.544C166.984 126.631 167.572 135.734 167.317 144.821C167.054 154.271 165.941 164.069 169.341 172.886C169.871 174.486 170.765 175.94 171.953 177.136C172.554 177.724 173.295 178.149 174.107 178.37C174.918 178.592 175.772 178.603 176.589 178.403C177.328 178.118 177.992 177.667 178.528 177.084C179.064 176.501 179.458 175.802 179.68 175.041C180.106 173.519 180.294 171.939 180.236 170.359L180.36 161.72C180.36 161.542 180.36 161.334 180.538 161.256C180.612 161.231 180.692 161.225 180.769 161.24C180.847 161.255 180.919 161.29 180.978 161.341C181.643 161.916 182.275 162.527 182.871 163.173C183.559 163.729 184.656 164 185.267 163.358C185.436 163.133 185.555 162.875 185.618 162.601C185.681 162.327 185.685 162.042 185.63 161.766C185.259 158.026 181.998 155.33 180.059 152.108C177.261 147.471 177.261 141.63 177.965 136.236C178.838 129.483 180.661 122.891 182.477 116.323L184.023 110.768C185.189 106.549 186.341 101.943 184.641 97.9021C183.958 96.3499 182.919 94.9809 181.607 93.9067C180.295 92.8325 178.748 92.0834 177.091 91.7204C173.861 91.1254 171.288 95.4062 170.122 98.0334Z"
      fill="#F5BCBA"
    />
    <path
      d="M241.86 133.168C240.863 135.85 235.238 132.72 232.023 134.328C225.888 137.418 218.887 134.243 212.049 134.328C204.77 134.459 199.747 141.63 192.522 142.541C191.997 142.65 191.456 142.65 190.93 142.541C189.934 142.248 189.346 141.251 188.921 140.316C188.298 138.874 187.852 137.361 187.592 135.811C186.696 130.68 187.592 125.179 188.551 119.963C189.354 115.543 190.155 111.121 190.954 106.695C191.881 101.544 192.816 96.3618 193.759 91.1486C194.308 87.7095 195.083 84.31 196.077 80.9721C196.262 80.3925 196.455 79.8284 196.664 79.2721C198.461 74.7405 200.63 70.365 203.147 66.1902C204.692 63.5089 206.238 60.7812 208.626 58.749C211.291 56.5004 214.73 55.38 218.184 54.8391C221.29 54.2536 224.493 54.4393 227.51 55.38C229.234 55.9827 229.883 57.8063 231.25 58.9267C232.984 60.2112 234.531 61.7299 235.848 63.4393C237.185 65.5032 238.141 67.7908 238.668 70.1928C243.513 89.0314 236.505 109.354 241.11 128.246C241.636 130.464 242.656 131.051 241.86 133.168Z"
      fill="#68E1FD"
    />
    <path
      d="M235.276 66.9938L235.879 70.9423L233.561 69.6519V80.1143L230.918 68.4928L233.476 64.7684L235.276 66.9938Z"
      fill="url(#paint7_linear)"
    />
    <path
      d="M215.649 66.7388L217.11 67.5115L219.428 69.5282L213.246 86.1106C213.246 86.1106 222.225 72.2945 222.519 65.2474C222.7 60.9127 222.16 56.5779 220.919 52.4205L215.649 66.7388Z"
      fill="url(#paint8_linear)"
    />
    <path
      d="M195.852 114.268C195.362 118.064 195.362 121.908 195.852 125.704C196.169 128.092 196.679 130.472 196.517 132.867C196.524 133.335 196.375 133.792 196.092 134.165C195.729 134.46 195.284 134.636 194.817 134.668C192.401 135.049 189.982 135.438 187.561 135.834C186.665 130.704 187.561 125.202 188.519 119.986C189.323 115.566 190.124 111.144 190.922 106.719C191.85 101.567 192.785 96.385 193.727 91.1718C194.277 87.7326 195.051 84.3332 196.045 80.9952C196.231 80.4157 196.424 79.8516 196.633 79.2953C199.028 77.9662 202.358 76.9771 203.842 79.1253C205.388 81.4434 203.355 86.8524 202.753 89.1705C200.558 97.5698 196.957 105.598 195.852 114.268Z"
      fill="url(#paint9_linear)"
    />
    <path
      d="M251.433 47.2743C251.514 48.2351 251.485 49.202 251.348 50.1565C251.27 50.6323 251.033 51.0675 250.675 51.3904C250.317 51.7134 249.859 51.905 249.378 51.9337C246.967 51.756 245.228 54.0664 243.312 55.55C241.809 56.6766 240.024 57.367 238.154 57.5456C236.283 57.7242 234.4 57.3839 232.711 56.5622C232.375 56.4415 232.006 56.4544 231.679 56.5982C231.353 56.742 231.094 57.0058 230.957 57.3349C230.716 58.0166 230.662 58.7505 230.802 59.4599L231.691 67.9133C231.861 69.5437 231.876 71.5373 230.493 72.4182C229.11 73.2991 227.472 72.5341 226.328 71.5373C224.53 69.8084 223.231 67.6279 222.565 65.2243C221.054 60.3543 220.837 55.1747 221.936 50.1955C223.035 45.2163 225.411 40.609 228.832 36.8273C230.116 35.392 231.621 34.1712 233.29 33.211C235.038 32.304 236.914 31.6707 238.854 31.3333C240.589 30.9236 242.384 30.8242 244.154 31.0397C246.532 31.4719 248.694 32.6945 250.29 34.5091C251.464 35.7918 252.608 39.6167 253.844 40.2426C252.925 42.5762 251.472 44.6393 251.433 47.2743Z"
      fill="#F5BCBA"
    />
    <path
      d="M233.042 14.0942C231.91 13.8292 230.727 13.8638 229.612 14.1946C227.433 14.9674 226.212 17.2468 225.424 19.4181C224.635 21.5895 223.986 23.9617 222.271 25.4994C220.795 26.8284 218.701 27.3616 217.372 28.8297C215.827 30.5374 215.68 33.0642 215.827 35.3591C215.827 37.0809 216.311 38.7679 217.225 40.2272C218.044 41.3399 219.304 42.1126 219.945 43.318C220.671 44.7011 220.919 46.8415 222.48 46.9343C223.13 46.9014 223.745 46.6257 224.203 46.1616C225.78 44.7978 226.969 43.041 227.649 41.0694C228.028 39.9722 228.275 38.7513 229.109 37.9786C229.944 37.2059 231.644 37.1595 232.023 38.2568C232.129 38.9549 232.021 39.6688 231.713 40.3044C231.513 40.9844 231.598 41.9039 232.262 42.1358C233.514 40.204 234.217 37.9322 235.701 36.1782C236.542 35.1917 237.599 34.4109 238.789 33.8957C239.979 33.3804 241.271 33.1443 242.567 33.2055C243.862 33.2666 245.127 33.6234 246.263 34.2485C247.399 34.8736 248.377 35.7504 249.123 36.8118C249.895 37.9168 250.421 39.2304 251.502 40.0185C252.521 40.6395 253.686 40.9806 254.879 41.0076C257.537 41.2703 260.35 41.3708 262.745 40.1885C265.141 39.0063 266.91 36.1395 265.991 33.6282C265.264 31.6578 263.194 30.5374 261.185 29.9038C259.175 29.2702 257.027 28.9534 255.258 27.8252C252.855 26.2798 251.572 23.529 250.173 21.0331C248.775 18.5373 246.882 15.9719 244.084 15.3846C242.943 15.2069 241.78 15.2069 240.638 15.3846C239.524 15.621 238.383 15.7093 237.246 15.6473C235.855 15.3614 234.511 14.4187 233.042 14.0942Z"
      fill="#2E2E3F"
    />
    <path
      d="M233.043 77.5876C234.807 86.5266 235.327 95.6668 234.588 104.748C233.978 112.305 232.525 119.808 232.579 127.389C232.693 129.52 232.628 131.658 232.386 133.779C232.046 135.881 217.952 135.077 215.896 135.054C212.435 135.007 216.824 139.69 214.22 137.434C210.132 133.872 208.308 128.316 207.806 122.922C207.087 115.234 208.664 107.538 210.379 100.004C211.569 94.7881 212.836 89.5568 214.969 84.6501C217.612 78.5844 221.792 70.865 223.137 64.382C223.33 63.4316 220.046 59.9776 221.46 60.0239C222.379 60.0239 221.947 61.4535 222.109 62.1643C222.399 63.2468 222.954 64.2401 223.724 65.0543C224.802 66.3128 226.262 67.1839 227.881 67.5347C228.924 67.7278 230.114 67.6815 230.871 68.4233C231.791 69.3196 231.644 71.0659 231.907 72.2868C232.285 74.0331 232.687 75.8026 233.043 77.5876Z"
      fill="#F2F2F2"
    />
    <path
      d="M201.756 54.5995C198.016 56.3149 194.802 58.9731 191.765 61.7548C189.251 64.0198 186.877 66.4351 184.656 68.9874C182.693 71.3055 180.901 73.7086 178.83 75.8954C175.971 78.9012 172.401 81.8066 171.837 85.9406C171.664 88.0962 172.042 90.2605 172.934 92.2304C173.669 94.2417 174.755 96.107 176.141 97.7398C177.899 99.6848 180.219 101.035 182.778 101.603C183.58 101.812 184.418 101.849 185.235 101.712C186.387 101.384 187.445 100.791 188.326 99.9807C190.341 98.4564 192.248 96.7963 194.037 95.0121C195.86 93.119 197.406 90.9632 199.183 89.0237C200.728 87.3546 202.374 85.8478 203.919 84.2097C205.766 82.247 207.412 80.1066 209.058 77.9662C211.387 75.063 213.522 72.0094 215.448 68.8251C217.058 66.0149 218.336 63.0278 219.258 59.9235C219.853 57.899 220.803 55.3336 218.748 53.8732C214.382 50.7978 206.106 52.5673 201.756 54.5995Z"
      fill="#68E1FD"
    />
    <path
      d="M201.756 54.5995C198.016 56.3149 194.802 58.9731 191.765 61.7548C189.251 64.0198 186.877 66.4351 184.656 68.9874C182.693 71.3055 180.901 73.7086 178.83 75.8954C175.971 78.9012 172.401 81.8066 171.837 85.9406C171.664 88.0962 172.042 90.2605 172.934 92.2304C173.669 94.2417 174.755 96.107 176.141 97.7398C177.899 99.6848 180.219 101.035 182.778 101.603C183.58 101.812 184.418 101.849 185.235 101.712C186.387 101.384 187.445 100.791 188.326 99.9807C190.341 98.4564 192.248 96.7963 194.037 95.0121C195.86 93.119 197.406 90.9632 199.183 89.0237C200.728 87.3546 202.374 85.8478 203.919 84.2097C205.766 82.247 207.412 80.1066 209.058 77.9662C211.387 75.063 213.522 72.0094 215.448 68.8251C217.058 66.0149 218.336 63.0278 219.258 59.9235C219.853 57.899 220.803 55.3336 218.748 53.8732C214.382 50.7978 206.106 52.5673 201.756 54.5995Z"
      fill="#68E1FD"
    />
    <path
      d="M266.532 89.8814C265.697 90.4092 265.099 91.2416 264.867 92.2023C264.635 93.163 264.786 94.1764 265.288 95.0276C266.585 97.2843 268.325 99.2555 270.404 100.823C271.64 102.152 274.422 102.368 276.894 100.916C279.367 99.4629 291.166 93.0417 297.062 88.8459C297.494 88.5486 297.862 88.1663 298.142 87.7223C298.422 87.2783 298.608 86.782 298.69 86.2635C298.772 85.7451 298.747 85.2154 298.617 84.7069C298.487 84.1983 298.255 83.7216 297.935 83.3056L292.998 77.124C292.412 76.3924 291.578 75.9026 290.654 75.7486C289.73 75.5946 288.781 75.7872 287.99 76.2894L266.532 89.8814Z"
      fill="#3D3D54"
    />
    <path
      d="M188.11 156.481C188.982 159.682 190.529 162.659 192.646 165.213C194.964 167.917 198.117 169.849 201.146 171.688L213.903 179.454C215.774 180.53 217.564 181.741 219.258 183.078C223.439 186.524 226.213 191.33 228.909 196.028L247.516 228.459C248.459 230.12 249.78 231.998 251.689 231.936C252.716 231.803 253.683 231.373 254.47 230.7C256.858 229.023 259.424 227.114 260.134 224.278C260.629 222.3 260.134 220.222 259.539 218.259C256.68 208.592 252.199 199.49 247.702 190.442C240.557 176.121 233.306 161.828 225.95 147.564C223.995 143.778 221.623 137.882 218.393 135.1C218.393 135.1 188.381 133.277 187.624 136.252C185.937 142.913 186.105 149.909 188.11 156.481Z"
      fill="#525263"
    />
    <path
      d="M188.11 156.481C188.982 159.682 190.529 162.659 192.646 165.213C194.964 167.917 198.117 169.849 201.146 171.688L213.903 179.454C215.774 180.53 217.564 181.741 219.258 183.078C223.439 186.524 226.213 191.33 228.909 196.028L247.516 228.459C248.459 230.12 249.78 231.998 251.689 231.936C252.716 231.803 253.683 231.373 254.47 230.7C256.858 229.023 259.424 227.114 260.134 224.278C260.629 222.3 260.134 220.222 259.539 218.259C256.68 208.592 252.199 199.49 247.702 190.442C240.557 176.121 233.306 161.828 225.95 147.564C223.995 143.778 221.623 137.882 218.393 135.1C218.393 135.1 188.381 133.277 187.624 136.252C185.937 142.913 186.105 149.909 188.11 156.481Z"
      fill="url(#paint10_linear)"
    />
    <path
      d="M221.862 50.3651L217.62 52.0419L215.047 66.4374L223.601 66.0511L221.862 50.3651Z"
      fill="#68E1FD"
    />
    <path
      d="M230.84 65.7034C230.84 66.3524 230.84 67.0015 230.84 67.6506C230.84 67.932 230.856 68.2132 230.887 68.4928C230.933 68.7768 230.995 69.058 231.072 69.3351L232.138 73.5386L232.579 66.7079C233.838 67.3183 235.129 67.8747 236.442 68.3615C236.343 67.3378 236.082 66.3363 235.67 65.3943C234.897 63.4161 234.186 61.4303 233.352 59.4908C233.156 58.9727 232.874 58.4919 232.517 58.069C232.337 57.8593 232.11 57.6943 231.856 57.587C231.601 57.4798 231.325 57.4331 231.049 57.4508C230.276 57.7754 230.763 60.673 230.771 61.3144L230.84 65.7034Z"
      fill="#68E1FD"
    />
    <path
      d="M293.353 86.4969L277.651 96.4262C277.376 96.5747 277.058 96.6251 276.751 96.5689C276.443 96.5127 276.164 96.3533 275.959 96.1171L270.967 90.4918C270.865 90.396 270.785 90.2781 270.735 90.1471C270.684 90.0161 270.664 89.8753 270.676 89.7354C270.688 89.5955 270.732 89.4602 270.803 89.3396C270.875 89.2189 270.974 89.1162 271.091 89.0391L286.823 79.1176C287.098 78.969 287.416 78.9187 287.724 78.9749C288.031 79.0311 288.311 79.1904 288.515 79.4266L293.507 85.0442C293.608 85.1422 293.686 85.2619 293.734 85.3943C293.782 85.5267 293.799 85.6682 293.784 85.8082C293.769 85.9482 293.723 86.083 293.648 86.2023C293.573 86.3217 293.472 86.4224 293.353 86.4969Z"
      fill="#68E1FD"
    />
  </g>
  <defs>
    <linearGradient
      id="paint0_linear"
      x1="223.493"
      y1="92.1068"
      x2="255.205"
      y2="91.62"
      gradientUnits="userSpaceOnUse"
    >
      <stop offset="0.01" />
      <stop offset="0.13" stop-opacity="0.69" />
      <stop offset="1" stop-opacity="0" />
    </linearGradient>
    <linearGradient
      id="paint1_linear"
      x1="59473.7"
      y1="9025.84"
      x2="29508"
      y2="55203.1"
      gradientUnits="userSpaceOnUse"
    >
      <stop offset="0.01" />
      <stop offset="0.13" stop-opacity="0.69" />
      <stop offset="1" stop-opacity="0" />
    </linearGradient>
    <linearGradient
      id="paint2_linear"
      x1="16292.9"
      y1="18020.7"
      x2="9211.91"
      y2="22618.8"
      gradientUnits="userSpaceOnUse"
    >
      <stop offset="0.01" />
      <stop offset="0.13" stop-opacity="0.69" />
      <stop offset="1" stop-opacity="0" />
    </linearGradient>
    <linearGradient
      id="paint3_linear"
      x1="3803.58"
      y1="7448.46"
      x2="7017.64"
      y2="8590.26"
      gradientUnits="userSpaceOnUse"
    >
      <stop offset="0.01" />
      <stop offset="0.13" stop-opacity="0.69" />
      <stop offset="1" stop-opacity="0" />
    </linearGradient>
    <linearGradient
      id="paint4_linear"
      x1="16722.1"
      y1="21268.6"
      x2="23593.5"
      y2="21268.6"
      gradientUnits="userSpaceOnUse"
    >
      <stop offset="0.01" />
      <stop offset="0.13" stop-opacity="0.69" />
      <stop offset="1" stop-opacity="0" />
    </linearGradient>
    <linearGradient
      id="paint5_linear"
      x1="8023.15"
      y1="7560.35"
      x2="7383.22"
      y2="7379"
      gradientUnits="userSpaceOnUse"
    >
      <stop offset="0.01" />
      <stop offset="0.13" stop-opacity="0.69" />
      <stop offset="1" stop-opacity="0" />
    </linearGradient>
    <linearGradient
      id="paint6_linear"
      x1="6485.73"
      y1="10739.3"
      x2="7043.63"
      y2="10739.3"
      gradientUnits="userSpaceOnUse"
    >
      <stop offset="0.01" />
      <stop offset="0.13" stop-opacity="0.69" />
      <stop offset="1" stop-opacity="0" />
    </linearGradient>
    <linearGradient
      id="paint7_linear"
      x1="1224.02"
      y1="1308.56"
      x2="1441.09"
      y2="1366.94"
      gradientUnits="userSpaceOnUse"
    >
      <stop offset="0.01" />
      <stop offset="0.13" stop-opacity="0.69" />
      <stop offset="1" stop-opacity="0" />
    </linearGradient>
    <linearGradient
      id="paint8_linear"
      x1="2771.6"
      y1="2928.88"
      x2="2226.32"
      y2="2988.54"
      gradientUnits="userSpaceOnUse"
    >
      <stop offset="0.01" />
      <stop offset="0.13" stop-opacity="0.69" />
      <stop offset="1" stop-opacity="0" />
    </linearGradient>
    <linearGradient
      id="paint9_linear"
      x1="3431.89"
      y1="8468.55"
      x2="4526.48"
      y2="8457.29"
      gradientUnits="userSpaceOnUse"
    >
      <stop offset="0.01" />
      <stop offset="0.13" stop-opacity="0.69" />
      <stop offset="1" stop-opacity="0" />
    </linearGradient>
    <linearGradient
      id="paint10_linear"
      x1="18024.9"
      y1="24360.4"
      x2="23644.3"
      y2="22568.1"
      gradientUnits="userSpaceOnUse"
    >
      <stop offset="0.01" />
      <stop offset="0.13" stop-opacity="0.69" />
      <stop offset="1" stop-opacity="0" />
    </linearGradient>
    <clipPath id="clip0">
      <rect width="406" height="306" fill="white" />
    </clipPath>
  </defs>
</svg>
