<svg
  width="532"
  height="91"
  viewBox="0 0 532 91"
  fill="none"
  xmlns="http://www.w3.org/2000/svg"
>
  <path
    d="M240.432 0.916069C238.104 1.46658 236.215 2.39063 234.546 3.80621C232.635 5.4184 231.427 7.0699 230.658 9.0753L230.065 10.6482L229.999 49.4192L229.955 88.21H240.388H250.82L250.864 56.969L250.93 25.728L293.868 56.792C317.479 73.8576 337.356 88.151 338.014 88.5245C340.013 89.6649 341.88 90.0777 344.823 90.0581C346.953 90.0581 347.634 89.9598 349.15 89.5076C351.39 88.8588 353.85 87.4235 355.475 85.7917C356.837 84.4351 358.265 81.9972 358.638 80.385C358.814 79.6575 358.88 67.8807 358.88 40.9258V2.48894H348.447H338.014L337.97 33.553L337.905 64.6367L295.01 33.7496C271.422 16.7627 251.589 2.56758 250.974 2.19402C249.151 1.07336 246.823 0.522858 244.165 0.542519C242.716 0.542519 241.398 0.680145 240.432 0.916069Z"
    fill="#28262C"
  />
  <path
    d="M76.8713 2.252C76.8713 2.33064 88.2703 12.5739 102.195 25.0192C118.558 39.6468 127.936 47.9043 128.77 48.3762C131.186 49.7721 133.734 50.4996 137.117 50.7552L139.027 50.8928V69.5509V88.209H149.57H160.112V69.5509V50.9124L161.935 50.7748C165.801 50.4799 168.678 49.5952 171.028 48.0026C171.731 47.5308 183.613 37.0123 197.45 24.626L222.597 2.09471H207.882H193.167L176.365 17.1352L159.563 32.1757H149.679H139.796L122.994 17.1352L106.192 2.09471H91.5428C83.4603 2.09471 76.8713 2.15369 76.8713 2.252Z"
    fill="#28262C"
  />
  <path
    d="M393.977 23.6823L418.202 45.2501L394.35 66.5821C381.238 78.3196 370.52 87.973 370.52 88.0517C370.52 88.15 377.065 88.209 385.082 88.209H399.621L418.29 71.4973L436.959 54.7856H450.466H463.974L482.642 71.4973L501.311 88.209H516.027H530.742L506.802 66.759L482.862 45.3091L507.131 23.7019L531.401 2.09471H516.686H501.97L482.972 19.1013L463.974 36.1079H450.576H437.179L418.18 19.1013L399.182 2.09471L384.467 2.11437H369.751L393.977 23.6823Z"
    fill="#28262C"
  />
  <path
    d="M0 29.8557C0 45.1125 0.109816 58.3049 0.219633 59.6222C0.87853 67.2112 4.19498 73.6993 10.2129 79.0863C14.2761 82.7236 18.3613 84.9846 23.8741 86.6164C29.2551 88.209 25.5213 88.091 72.4348 88.1696L114.209 88.209V78.7718V69.3346H73.6428C29.1452 69.3346 31.4953 69.3936 28.684 68.1549C25.3895 66.7 22.8637 64.0458 21.6118 60.6838C21.2165 59.6615 21.1945 58.2459 21.1287 31.0354L21.0628 2.48787H10.5424H0V29.8557Z"
    fill="#28262C"
  />
</svg>
