<svg
  width="800"
  height="668"
  viewBox="0 0 800 668"
  fill="none"
  xmlns="http://www.w3.org/2000/svg"
>
  <path
    d="M333.183 279.716C333.01 278.598 332.494 277.561 331.706 276.75C330.918 275.938 329.897 275.391 328.784 275.186C327.678 274.999 326.544 275.06 325.464 275.364C324.383 275.668 323.384 276.208 322.538 276.945C321.457 277.834 320.687 279.043 320.339 280.398C320.1 281.813 320.183 283.264 320.581 284.643C320.954 286.607 321.701 288.481 322.78 290.163C324.979 293.286 330.17 294.386 331.753 290.163C331.936 288.8 331.988 287.423 331.907 286.05C332.149 283.895 333.403 281.938 333.183 279.716Z"
    fill="#FCA89E"
  />
  <path
    d="M257.965 96.1126L318.205 404.883C319.6 412.037 318.097 419.452 314.027 425.498C309.956 431.544 303.651 435.727 296.498 437.125L162.842 463.188C155.694 464.598 148.278 463.113 142.224 459.059C136.17 455.006 131.973 448.715 130.555 441.568L70.314 132.732C68.9185 125.581 70.4186 118.169 74.4847 112.123C78.5509 106.078 84.8505 101.893 91.9998 100.489L225.634 74.4048C229.175 73.6999 232.82 73.6995 236.361 74.4034C239.902 75.1073 243.27 76.5019 246.272 78.5075C249.275 80.513 251.852 83.0903 253.859 86.0921C255.865 89.094 257.26 92.4616 257.965 96.0026V96.1126Z"
    fill="#68E1FD"
  />
  <path
    d="M223.8 79.5045L95.7692 104.484C81.3674 107.294 71.9703 121.247 74.7801 135.648L133.474 436.481C136.284 450.883 150.237 460.28 164.638 457.47L292.669 432.49C307.071 429.681 316.468 415.728 313.658 401.326L254.964 100.494C252.155 86.0918 238.202 76.6947 223.8 79.5045Z"
    fill="#473F47"
  />
  <path
    d="M250.487 104.778L307.318 396.085C308.539 402.703 307.081 409.534 303.266 415.077C299.451 420.62 293.591 424.421 286.974 425.645L167.02 449.046C162.624 449.927 158.074 449.639 153.824 448.21C149.593 446.842 145.804 444.369 142.846 441.049C139.889 437.728 137.87 433.678 136.999 429.318L80.1891 137.989C78.9761 131.366 80.4421 124.532 84.2651 118.989C88.0881 113.446 93.9553 109.648 100.577 108.429L120.834 104.426L121.603 108.121C122.111 110.464 123.301 112.604 125.023 114.271C126.746 115.938 128.923 117.059 131.281 117.491C132.857 117.798 134.477 117.798 136.053 117.491L191.741 106.626C194.915 106.001 197.717 104.156 199.543 101.486C201.37 98.8162 202.075 95.5361 201.507 92.3517L200.781 88.8547L220.575 85.0278C227.026 83.7513 233.721 84.9864 239.292 88.4808C242.174 90.2858 244.656 92.6637 246.581 95.4672C248.507 98.2706 249.836 101.44 250.487 104.778Z"
    fill="white"
  />
  <path
    opacity="0.18"
    d="M194.205 296.827C217.053 296.827 235.575 278.305 235.575 255.457C235.575 232.609 217.053 214.087 194.205 214.087C171.357 214.087 152.834 232.609 152.834 255.457C152.834 278.305 171.357 296.827 194.205 296.827Z"
    fill="#68E1FD"
  />
  <path
    d="M197.68 285.941L196.25 278.551C192.301 279.346 188.207 279.011 184.439 277.583L185.187 272.348C188.687 273.707 192.501 274.043 196.184 273.316C201.419 272.304 204.3 268.587 203.464 264.519C202.628 260.45 199.329 258.58 193.479 257.459C185.429 256.029 180.151 253.588 178.919 247.254C177.687 240.919 181.118 235.729 187.585 233.266L186.155 225.898L190.686 225.018L192.071 232.1C195.409 231.47 198.852 231.697 202.078 232.76L201.265 238.016C198.151 236.921 194.799 236.693 191.565 237.356C185.957 238.456 184.505 242.283 185.099 245.186C185.847 248.991 188.948 250.355 195.788 251.784C203.948 253.324 208.479 256.359 209.798 262.781C210.92 268.543 207.995 274.746 200.737 277.495L202.21 285.061L197.68 285.941Z"
    fill="#68E1FD"
  />
  <path
    d="M733.557 133.172L683.543 451.091C682.38 458.458 678.34 465.06 672.31 469.449C666.281 473.837 658.755 475.651 651.388 474.493L513.796 452.829C510.148 452.263 506.647 450.984 503.493 449.065C500.339 447.147 497.594 444.625 495.415 441.645C493.236 438.666 491.665 435.286 490.792 431.699C489.919 428.112 489.762 424.388 490.328 420.74L540.364 102.777C541.517 95.4128 545.547 88.8083 551.569 84.4157C557.591 80.0232 565.111 78.2022 572.475 79.3534L710.068 100.995C717.426 102.133 724.032 106.144 728.436 112.148C732.84 118.152 734.681 125.658 733.557 133.018V133.172Z"
    fill="#68E1FD"
  />
  <path
    d="M543.601 107.167L494.876 416.9C492.543 431.731 502.675 445.646 517.506 447.979L649.321 468.715C664.152 471.048 678.066 460.916 680.399 446.085L729.124 136.351C731.457 121.52 721.325 107.606 706.494 105.273L574.679 84.537C559.848 82.2039 545.934 92.3355 543.601 107.167Z"
    fill="#473F47"
  />
  <path
    d="M723.352 138.868L676.153 438.731C675.012 445.519 671.223 451.576 665.618 455.571C660.014 459.567 653.053 461.176 646.264 460.043L522.769 440.6C518.252 439.905 513.993 438.048 510.409 435.212C506.811 432.419 504.026 428.716 502.34 424.486C500.654 420.256 500.129 415.652 500.819 411.151L548.018 111.288C549.164 104.496 552.962 98.4368 558.575 94.4442C564.189 90.4516 571.159 88.8524 577.951 89.9984L598.867 93.2754L598.274 97.0364C597.952 99.4695 598.354 101.944 599.429 104.15C600.505 106.356 602.207 108.196 604.322 109.441C605.743 110.261 607.3 110.82 608.919 111.09L666.3 120.108C669.571 120.618 672.912 119.823 675.603 117.893C678.293 115.964 680.118 113.055 680.684 109.793L681.234 106.23L701.49 109.419C708.135 110.446 714.137 113.97 718.271 119.272C720.416 122.016 721.974 125.171 722.848 128.542C723.722 131.913 723.894 135.428 723.352 138.868Z"
    fill="white"
  />
  <path
    d="M464.706 245.846H453.709C452.834 245.846 451.995 245.498 451.376 244.88C450.757 244.261 450.41 243.422 450.41 242.547C450.41 241.672 450.757 240.833 451.376 240.214C451.995 239.595 452.834 239.248 453.709 239.248H464.706C465.58 239.248 466.42 239.595 467.038 240.214C467.657 240.833 468.005 241.672 468.005 242.547C468.005 243.422 467.657 244.261 467.038 244.88C466.42 245.498 465.58 245.846 464.706 245.846ZM442.712 245.846H431.715C430.84 245.846 430.001 245.498 429.382 244.88C428.763 244.261 428.416 243.422 428.416 242.547C428.416 241.672 428.763 240.833 429.382 240.214C430.001 239.595 430.84 239.248 431.715 239.248H442.712C443.587 239.248 444.426 239.595 445.045 240.214C445.663 240.833 446.011 241.672 446.011 242.547C446.011 243.422 445.663 244.261 445.045 244.88C444.426 245.498 443.587 245.846 442.712 245.846ZM420.718 245.846H409.721C408.846 245.846 408.007 245.498 407.388 244.88C406.77 244.261 406.422 243.422 406.422 242.547C406.422 241.672 406.77 240.833 407.388 240.214C408.007 239.595 408.846 239.248 409.721 239.248H420.718C421.593 239.248 422.432 239.595 423.051 240.214C423.67 240.833 424.017 241.672 424.017 242.547C424.017 243.422 423.67 244.261 423.051 244.88C422.432 245.498 421.593 245.846 420.718 245.846ZM398.724 245.846H387.727C386.853 245.846 386.013 245.498 385.395 244.88C384.776 244.261 384.428 243.422 384.428 242.547C384.428 241.672 384.776 240.833 385.395 240.214C386.013 239.595 386.853 239.248 387.727 239.248H398.724C399.599 239.248 400.438 239.595 401.057 240.214C401.676 240.833 402.023 241.672 402.023 242.547C402.023 243.422 401.676 244.261 401.057 244.88C400.438 245.498 399.599 245.846 398.724 245.846ZM376.731 245.846H365.734C364.859 245.846 364.02 245.498 363.401 244.88C362.782 244.261 362.435 243.422 362.435 242.547C362.435 241.672 362.782 240.833 363.401 240.214C364.02 239.595 364.859 239.248 365.734 239.248H376.731C377.606 239.248 378.445 239.595 379.063 240.214C379.682 240.833 380.03 241.672 380.03 242.547C380.03 243.422 379.682 244.261 379.063 244.88C378.445 245.498 377.606 245.846 376.731 245.846ZM354.737 245.846H343.74C342.865 245.846 342.026 245.498 341.407 244.88C340.789 244.261 340.441 243.422 340.441 242.547C340.441 241.672 340.789 240.833 341.407 240.214C342.026 239.595 342.865 239.248 343.74 239.248H354.737C355.612 239.248 356.451 239.595 357.07 240.214C357.688 240.833 358.036 241.672 358.036 242.547C358.036 243.422 357.688 244.261 357.07 244.88C356.451 245.498 355.612 245.846 354.737 245.846Z"
    fill="#68E1FD"
  />
  <path
    d="M334.107 258.844C333.295 258.871 332.506 258.579 331.907 258.03L317.04 245.032C316.714 244.742 316.449 244.39 316.261 243.996C316.072 243.603 315.963 243.176 315.941 242.74C315.918 242.305 315.983 241.869 316.13 241.458C316.277 241.047 316.504 240.67 316.798 240.348C316.873 240.261 316.954 240.181 317.04 240.106L331.907 226.491C332.566 226.02 333.375 225.806 334.181 225.893C334.986 225.979 335.732 226.359 336.275 226.959C336.819 227.56 337.122 228.34 337.128 229.15C337.134 229.96 336.841 230.744 336.306 231.352L324.166 242.481L336.24 253.06C336.894 253.629 337.297 254.433 337.363 255.297C337.429 256.161 337.152 257.017 336.592 257.679C336.289 258.043 335.909 258.337 335.479 258.538C335.05 258.74 334.581 258.844 334.107 258.844Z"
    fill="#68E1FD"
  />
  <path
    d="M475.131 258.844C474.66 258.848 474.194 258.75 473.765 258.556C473.336 258.363 472.954 258.078 472.645 257.723C472.072 257.062 471.783 256.201 471.84 255.328C471.898 254.455 472.298 253.64 472.953 253.06L485.05 242.481L472.909 231.352C472.374 230.744 472.081 229.96 472.087 229.15C472.093 228.34 472.396 227.56 472.94 226.959C473.484 226.359 474.229 225.979 475.035 225.893C475.84 225.806 476.649 226.02 477.308 226.491L492.176 240.106C492.515 240.42 492.786 240.801 492.971 241.225C493.157 241.649 493.253 242.106 493.253 242.569C493.245 243.034 493.14 243.493 492.947 243.917C492.755 244.34 492.477 244.72 492.132 245.032L477.264 258.03C476.672 258.547 475.916 258.836 475.131 258.844Z"
    fill="#68E1FD"
  />
  <path
    d="M457.953 480.871C457.953 498.079 451.118 514.581 438.95 526.749C426.783 538.917 410.28 545.753 393.072 545.753C375.864 545.753 359.361 538.917 347.194 526.749C335.026 514.581 328.191 498.079 328.191 480.871C328.161 479.212 328.22 477.553 328.366 475.9C329.674 459.196 337.396 443.646 349.913 432.508C362.43 421.37 378.772 415.509 395.515 416.151C412.258 416.794 428.103 423.891 439.73 435.955C451.357 448.02 457.864 464.116 457.888 480.871H457.953Z"
    fill="#68E1FD"
  />
  <path
    opacity="0.14"
    d="M365.844 510.321C363.644 519.69 366.328 529.697 364.392 539.022C349.415 531.607 337.862 518.716 332.127 503.019C331.823 499.795 331.904 496.546 332.369 493.341C333.073 489.924 333.073 486.399 332.369 482.982C331.444 480.408 330.083 478.012 328.344 475.9C329.07 466.42 331.873 457.215 336.556 448.94C341.239 440.665 347.687 433.523 355.441 428.02C355.528 428.456 355.528 428.904 355.441 429.34L352.669 441.678C353.219 445.323 353.219 449.03 352.669 452.675C352.365 454.491 351.668 456.219 350.627 457.739C349.586 459.258 348.227 460.532 346.643 461.472C345.453 461.978 344.293 462.55 343.168 463.188C342.097 464.068 341.201 465.142 340.529 466.355C338.744 468.864 337.405 471.661 336.57 474.625C336.174 476.11 336.155 477.671 336.516 479.165C336.877 480.66 337.607 482.04 338.637 483.18L356.716 479.661C357.624 479.326 358.602 479.225 359.559 479.367C360.516 479.51 361.422 479.891 362.193 480.475C363.754 482.169 362.787 484.874 363.117 487.183C363.556 490.086 366.152 492.198 367.361 494.903C369.583 499.808 367.031 505.218 365.844 510.321Z"
    fill="#020202"
  />
  <path
    opacity="0.4"
    d="M341.827 447.528C342.674 449.325 344.007 450.849 345.675 451.927C353.265 457.623 362.429 460.834 371.914 461.121C368.798 461.633 365.891 463.021 363.534 465.123C361.335 467.323 360.873 471.722 363.402 473.481C364.296 474.075 365.31 474.466 366.372 474.625C371.204 475.564 376.202 475.16 380.821 473.459C383.48 472.099 386.365 471.235 389.333 470.908C391.727 471.102 394.059 471.767 396.195 472.865C399.237 474.451 402.685 475.087 406.092 474.691C409.435 474.009 412.47 470.798 411.767 467.477C411.591 466.685 411.239 465.827 411.635 465.145C411.948 464.731 412.377 464.418 412.866 464.244L443.658 450.608C445.615 449.728 447.836 448.408 448.056 446.363C448.276 444.317 446.121 442.448 444.119 441.414C433.54 435.894 421.202 435.19 409.281 434.596L388.123 433.562C377.871 432.778 367.572 432.851 357.332 433.782C353.791 434.2 347.523 434.244 344.818 436.884C343.533 438.307 342.594 440.009 342.075 441.856C341.557 443.702 341.471 445.644 341.827 447.528Z"
    fill="#020202"
  />
  <path
    opacity="0.14"
    d="M457.953 480.871C457.963 490.677 455.744 500.358 451.466 509.182C447.187 518.006 440.96 525.743 433.255 531.808C432.385 531.225 431.638 530.478 431.055 529.609C430.568 528.892 430.227 528.085 430.051 527.236C429.876 526.386 429.87 525.51 430.033 524.659C430.197 523.807 430.527 522.995 431.004 522.271C431.481 521.547 432.096 520.924 432.815 520.438C431.715 521.01 427.426 519.602 426.217 519.404L419.618 518.37C416.407 517.864 410.821 518.084 408.951 514.851C408.745 514.402 408.495 513.975 408.204 513.576C407.807 513.174 407.336 512.853 406.818 512.63C404.817 511.662 402.419 510.541 401.979 508.363C401.65 506.758 402.441 504.932 401.628 503.524C401.364 503.063 400.968 502.733 400.704 502.293C400.423 501.632 400.318 500.911 400.399 500.198C400.48 499.485 400.744 498.805 401.166 498.224C403.981 493.297 409.809 490.922 415.396 489.976C420.982 489.031 426.788 489.163 432.221 487.579C435.558 486.289 438.983 485.238 442.47 484.434C444.427 484.17 446.869 483.972 447.572 482.235C447.99 481.201 447.572 480.035 447.99 478.936C448.166 478.496 448.452 478.1 448.628 477.66C448.738 477.325 448.781 476.971 448.754 476.62C448.728 476.268 448.632 475.925 448.472 475.611C448.313 475.296 448.093 475.016 447.826 474.787C447.558 474.557 447.248 474.382 446.913 474.273L446.429 474.163C446.891 472.953 447.265 471.392 446.297 470.534C445.962 470.281 445.57 470.115 445.156 470.05C444.742 469.984 444.318 470.022 443.922 470.16C441.718 471.111 439.701 472.444 437.961 474.097C434.763 476.174 430.938 477.067 427.15 476.621C423.363 476.176 419.85 474.419 417.221 471.656C416.335 470.888 415.706 469.867 415.418 468.73C415.34 467.765 415.563 466.799 416.055 465.964C416.547 465.13 417.284 464.468 418.167 464.068C419.934 463.296 421.848 462.921 423.775 462.968C423.057 458.261 422.324 453.555 421.576 448.848C410.777 451.729 406.4 441.458 404.861 432.925C403.321 424.391 409.391 421.356 417.199 420.784C429.212 425.59 439.513 433.88 446.775 444.588C454.038 455.296 457.931 467.932 457.953 480.871Z"
    fill="#020202"
  />
  <path
    d="M373.849 354.077H415.44C416.864 354.057 418.278 354.317 419.601 354.843C420.924 355.369 422.131 356.151 423.152 357.144C424.173 358.136 424.989 359.32 425.552 360.628C426.116 361.936 426.416 363.342 426.436 364.766V365.074C426.436 365.074 418.519 397.427 418.519 408.292C418.519 414.252 420.388 432.023 420.388 432.023H368.945C368.945 432.023 371.32 413.438 371.276 407.214C371.276 396.613 362.787 365.052 362.787 365.052C362.766 363.626 363.027 362.21 363.555 360.886C364.082 359.561 364.866 358.353 365.861 357.332C366.856 356.31 368.043 355.495 369.353 354.933C370.663 354.371 372.072 354.072 373.498 354.055L373.849 354.077Z"
    fill="#68E1FD"
  />
  <path
    d="M371.848 421.752C373.915 421.752 375.961 421.4 378.006 421.224C380.667 420.982 383.329 421.026 386.012 421.048L428.504 421.576C430.099 421.489 431.696 421.706 433.211 422.214C433.961 422.473 434.627 422.932 435.138 423.54C435.65 424.148 435.987 424.883 436.114 425.667C436.312 427.712 434.596 429.384 432.969 430.637C425.47 436.409 416.673 440.26 407.346 441.854C393.006 444.295 378.292 441.26 364.26 437.455C361.994 436.993 359.846 436.072 357.948 434.75C356.256 433.059 354.711 431.227 353.329 429.274C351.987 428.046 350.838 426.622 349.92 425.051C346.071 415.967 368.549 421.774 371.848 421.752Z"
    fill="#473F47"
  />
  <path
    d="M401.056 360.147C400.901 361.373 400.275 362.491 399.31 363.263C398.345 364.035 397.117 364.401 395.887 364.282C390.785 364.04 390.433 360.147 390.433 360.147V339.891H401.056V360.147Z"
    fill="#FCA89E"
  />
  <path
    d="M390.433 349.898C390.433 349.898 397.031 360.279 401.056 355.287V347.193L390.433 349.898Z"
    fill="url(#paint0_linear)"
  />
  <path
    d="M385.946 344.752C388.607 352.999 401.847 353.241 406.29 346.687C408.644 342.716 409.391 337.995 408.38 333.491C407.675 329.025 406.311 324.689 404.333 320.625C402.969 318.073 401.584 315.808 398.504 315.434C394.976 315.173 391.448 315.937 388.343 317.633C385.391 319.223 383.066 321.766 381.745 324.847C380.484 327.932 380.321 331.356 381.283 334.547C381.818 336.14 382.488 337.685 383.285 339.165C384.313 340.957 385.202 342.825 385.946 344.752Z"
    fill="#FCA89E"
  />
  <path
    d="M389.927 458.525C388.458 459.675 386.818 460.588 385.066 461.231C381.349 462.792 374.069 465.629 375.059 468.928C376.555 473.327 381.657 472.931 385.198 471.897C390.585 470.049 395.714 467.521 400.462 464.376L389.927 458.525Z"
    fill="#473F47"
  />
  <path
    d="M398.944 447.331C411.591 438.093 418.189 431.275 432.397 422.632C435.762 420.586 438.093 419.97 443.943 422.28C448.936 424.237 448.342 432.815 445.681 436.4C437.499 447.133 406.092 461.956 399.67 464.2C396.921 465.167 387.222 457.008 391.159 453.093C393.614 450.991 396.216 449.065 398.944 447.331Z"
    fill="#473F47"
  />
  <path
    d="M393.094 465.123C395.034 467.646 397.247 469.948 399.692 471.985C404.091 475.285 406.928 476.384 410.403 474.779C415.462 472.425 410.821 467.477 406.906 463.54C403.92 460.422 400.575 457.669 396.943 455.336L393.094 465.123Z"
    fill="#473F47"
  />
  <path
    d="M393.754 452.983L399.142 457.382C400.258 458.308 401.209 459.416 401.957 460.659C403.717 463.936 397.559 470.622 393.71 466.685C389.861 462.748 386.232 458.547 386.232 458.547L393.754 452.983Z"
    fill="#FCA89E"
  />
  <path
    d="M377.654 460.021C362.963 452.631 353.945 449.948 344.51 436.642C343.345 434.939 342.529 433.023 342.11 431.003C341.691 428.983 341.677 426.9 342.069 424.875C343.212 421.466 348.183 419.42 354.055 420.828C358.982 421.994 391.994 447.858 397.141 452.741C399.34 454.94 392.61 465.343 387.046 463.54C383.814 462.656 380.671 461.478 377.654 460.021Z"
    fill="#473F47"
  />
  <path
    d="M407.896 319.767C407.32 321.133 406.483 322.373 405.432 323.418C403.274 325.504 400.51 326.851 397.537 327.267C393.136 327.637 388.707 327.49 384.34 326.827C384.239 327.528 383.944 328.187 383.49 328.731C383.035 329.274 382.439 329.681 381.767 329.906C382.429 332.95 383.311 335.942 384.406 338.857C385.462 341.739 387.002 344.378 388.167 347.193C384.56 344.708 381.811 340.463 379.194 337.032C377.787 335.406 376.664 333.555 375.873 331.556C375.472 330.556 375.317 329.476 375.42 328.404C375.524 327.333 375.882 326.301 376.467 325.397C377.063 324.791 377.547 324.083 377.896 323.308C378.028 322.64 378.028 321.952 377.896 321.284C377.851 319.684 378.164 318.094 378.81 316.629C379.457 315.164 380.422 313.862 381.635 312.817C384.083 310.732 386.97 309.229 390.081 308.418C392.741 307.495 395.576 307.186 398.372 307.516C400.647 308.089 402.736 309.234 404.442 310.844C406.148 312.453 407.412 314.473 408.116 316.71C408.341 317.729 408.265 318.791 407.896 319.767Z"
    fill="#473F47"
  />
  <path
    d="M383.087 339.319C382.618 339.399 382.169 339.573 381.769 339.83C381.368 340.087 381.024 340.422 380.756 340.815C380.607 341.121 380.521 341.454 380.502 341.794C380.483 342.133 380.532 342.473 380.646 342.794C380.882 343.433 381.224 344.028 381.657 344.554C381.883 344.867 382.157 345.142 382.471 345.368C383.013 345.674 383.63 345.826 384.253 345.807H385.682C385.93 345.807 386.174 345.738 386.386 345.61C386.609 345.433 386.777 345.196 386.87 344.928C387.199 343.92 387.199 342.834 386.87 341.827C386.652 340.881 386.189 340.008 385.528 339.297C384.912 338.725 383.901 339.099 383.087 339.319Z"
    fill="#FCA89E"
  />
  <path
    d="M445.593 328.894H436.642C435.135 328.894 433.914 330.115 433.914 331.621V353.923C433.914 355.429 435.135 356.65 436.642 356.65H445.593C447.099 356.65 448.32 355.429 448.32 353.923V331.621C448.32 330.115 447.099 328.894 445.593 328.894Z"
    fill="#473F47"
  />
  <path
    d="M378.402 355.837L346.137 324.891L332.787 289.789L322.032 291.857L334.767 332.743L370.836 382.119L378.402 355.837Z"
    fill="#68E1FD"
  />
  <path
    opacity="0.18"
    d="M615.143 300.214C637.991 300.214 656.513 281.692 656.513 258.844C656.513 235.996 637.991 217.474 615.143 217.474C592.295 217.474 573.772 235.996 573.772 258.844C573.772 281.692 592.295 300.214 615.143 300.214Z"
    fill="#68E1FD"
  />
  <path
    d="M608.193 288.734L609.314 281.278C605.331 280.7 601.589 279.016 598.515 276.417L600.979 271.733C603.84 274.207 607.351 275.81 611.096 276.351C616.352 277.143 620.311 274.614 620.927 270.413C621.543 266.212 619.014 263.441 613.867 260.428C606.763 256.381 602.606 252.312 603.574 245.912C604.542 239.512 609.468 235.795 616.418 235.663L617.54 228.229L622.115 228.933L621.037 236.059C624.392 236.584 627.562 237.946 630.252 240.018L627.723 244.702C625.161 242.63 622.081 241.298 618.816 240.853C613.141 239.996 610.502 243.053 610.018 246.044C609.446 249.871 611.91 252.202 617.914 255.787C625.062 259.966 628.317 264.343 627.393 270.919C626.513 276.725 621.697 281.608 613.933 281.762L612.789 289.394L608.193 288.734Z"
    fill="#68E1FD"
  />
  <path
    d="M279.32 332.03L146.704 358.65L154.3 396.494L286.916 369.875L279.32 332.03Z"
    fill="#68E1FD"
  />
  <path
    d="M543.743 324.809L542.587 332.753L601.003 341.254L602.159 333.31L543.743 324.809Z"
    fill="#68E1FD"
  />
  <path
    d="M608.746 334.296L607.59 342.24L656.93 349.42L658.086 341.476L608.746 334.296Z"
    fill="#68E1FD"
  />
  <path
    d="M541.37 341.175L540.214 349.119L584.374 355.545L585.53 347.601L541.37 341.175Z"
    fill="#68E1FD"
  />
  <path
    d="M590.764 348.365L589.608 356.309L620.492 360.804L621.648 352.86L590.764 348.365Z"
    fill="#68E1FD"
  />
  <path
    d="M630.076 354.098L628.92 362.042L654.581 365.777L655.737 357.833L630.076 354.098Z"
    fill="#68E1FD"
  />
  <path
    d="M539.004 357.592L537.848 365.536L600.051 374.588L601.207 366.644L539.004 357.592Z"
    fill="#68E1FD"
  />
  <path
    d="M609.663 365.075L608.539 373.023L654.292 379.494L655.416 371.546L609.663 365.075Z"
    fill="#68E1FD"
  />
  <path
    d="M536.607 373.947L535.451 381.891L649.802 398.532L650.958 390.588L536.607 373.947Z"
    fill="#68E1FD"
  />
  <path
    d="M443.79 341.541C443.971 340.426 444.491 339.394 445.277 338.584C446.064 337.774 447.08 337.225 448.188 337.01C449.291 336.822 450.422 336.882 451.499 337.187C452.576 337.491 453.571 338.032 454.412 338.769C455.485 339.665 456.254 340.872 456.612 342.222C456.854 343.639 456.764 345.092 456.348 346.467C455.97 348.43 455.224 350.303 454.149 351.988C451.949 355.111 446.759 356.21 445.153 351.988C444.97 350.625 444.919 349.248 444.999 347.875C444.911 345.719 443.57 343.762 443.79 341.541Z"
    fill="#FCA89E"
  />
  <path
    d="M416.143 354.209C416.451 352.384 418.101 352.823 421.422 354.539C429.503 359.01 437.001 364.462 443.746 370.77C444.207 363.446 444.339 356.079 444.141 348.777C449.178 348.447 452.081 349.612 456.832 351.35C457.272 361.886 456.258 372.432 453.819 382.691C452.895 386.254 451.619 390.323 448.056 391.488C443.658 392.962 439.721 389.113 435.872 386.694C432.375 384.494 426.656 384.362 423.863 381.371C421.664 379.172 421.422 374.773 420.608 371.958C419.245 367.207 417.419 362.391 416.451 357.552C416.174 356.461 416.07 355.333 416.143 354.209Z"
    fill="#68E1FD"
  />
  <defs>
    <linearGradient
      id="paint0_linear"
      x1="398.065"
      y1="332.897"
      x2="392.038"
      y2="383.923"
      gradientUnits="userSpaceOnUse"
    >
      <stop offset="0.01" />
      <stop offset="0.08" stop-opacity="0.69" />
      <stop offset="0.21" stop-opacity="0.32" />
      <stop offset="1" stop-opacity="0" />
    </linearGradient>
  </defs>
</svg>
