<svg
  width="800"
  height="603"
  viewBox="0 0 800 603"
  fill="none"
  xmlns="http://www.w3.org/2000/svg"
>
  <g clip-path="url(#clip0)">
    <path
      opacity="0.18"
      d="M35.9359 435.617C39.9502 460.297 64.4529 575.096 153.956 599.515C221.729 617.981 411.84 554.617 520.257 586.492C738.321 650.595 778.265 478.492 766.077 432.01C757.589 399.604 747.11 367.104 746.829 333.269C746.547 297.818 758.945 263.066 760.3 227.417C763.72 137.205 700.336 48.6406 613.847 22.7719C576.832 11.6988 546.573 0.40663 507.932 0.0729756C429.523 -0.594334 243.459 0.0729779 151.808 133.399C135.428 157.235 111.644 175.044 93.4183 197.461C68.9468 227.479 52.8167 263.691 43.0052 301.165C31.5254 344.843 28.7102 391.148 35.9359 435.617Z"
      fill="#68E1FD"
    />
    <path
      d="M427.459 533.097C432.346 535.558 437.504 537.44 442.828 538.706C454.447 541.822 466.221 544.328 478.101 546.214C489.018 547.955 500.279 550.113 511.269 550.009L587.488 549.258L614.931 548.987C623.762 548.904 632.719 548.799 641.227 546.401C649.735 544.003 657.91 538.998 662.081 531.251C663.182 529.486 663.724 527.429 663.634 525.35C663.144 520.866 658.358 518.312 654.115 516.81C634.648 509.95 613.815 508.823 593.369 508.167C583.182 507.833 572.984 508.865 562.766 508.896C551.693 508.896 540.62 508.667 529.547 509.105C510.122 509.887 490.843 512.879 471.449 514.11C455.11 515.152 438.501 514.986 422.725 519.323C420.765 519.865 418.554 520.762 418.023 522.722C417.553 524.505 418.763 526.267 420.035 527.591C422.213 529.796 424.717 531.653 427.459 533.097Z"
      fill="url(#paint0_linear)"
    />
    <path
      opacity="0.5"
      d="M501.144 63.4465C501.144 63.4465 536.595 79.3368 551.286 114.193C565.978 149.05 566.332 155.765 566.332 155.765C566.332 155.765 595.297 105.018 639.934 113.578C684.571 122.138 691.286 147.204 691.286 147.204C691.286 147.204 612.376 175.356 590.386 175.356H568.397V398.154H551.078L557.584 174.105C557.584 174.105 521.914 173.49 486.161 125.194C450.408 76.897 441.848 69.5566 421.724 70.1509C421.724 70.1509 464.474 51.216 501.144 63.4465Z"
      fill="#68E1FD"
    />
    <path
      d="M162.871 541.438C160.483 541.751 158.043 541.793 155.666 542.262C147.825 543.805 140.484 547.162 132.821 549.352C122.123 552.407 110.925 553.126 99.9141 554.795C97.3804 555.18 94.2211 556.307 94.169 558.871C94.2383 559.578 94.4607 560.262 94.8209 560.874C95.181 561.486 95.6702 562.013 96.2543 562.417C99.7994 565.461 104.398 566.963 108.902 568.224C126.479 573.157 144.645 575.679 162.902 575.721C176.165 575.721 190.314 574.115 200.532 565.659C204.4 562.458 207.705 557.85 207.247 552.845C207.32 553.669 264.594 549.623 269.578 548.82C281.808 546.829 293.903 543.117 304.361 536.475C304.755 536.288 305.108 536.025 305.399 535.701C305.691 535.377 305.916 534.999 306.061 534.588C306.311 533.41 305.258 532.356 304.205 531.752C301.431 530.146 298.126 529.812 294.935 529.573C280.885 528.509 266.772 528.551 252.728 529.698C247.515 530.125 242.207 530.74 236.952 531.272C224.322 532.628 211.688 533.847 199.051 534.932C192.92 535.464 186.091 535.172 180.085 536.475C175.476 537.518 170.784 539.311 166.228 540.74C165.131 541.067 164.007 541.3 162.871 541.438Z"
      fill="url(#paint1_linear)"
    />
    <path
      d="M264.646 405.213L262.102 530.344H245.127L240.237 430.894L229.57 530.344L210.124 533.597L205.672 401.105L264.646 405.213Z"
      fill="#68E1FD"
    />
    <path
      d="M264.646 405.213L262.102 530.344H245.127L240.237 430.894L229.57 530.344L210.124 533.597L205.672 401.105L264.646 405.213Z"
      fill="url(#paint2_linear)"
    />
    <path
      d="M221.75 528.394V412.408L205.672 401.105L211.094 530.344L221.75 528.394Z"
      fill="url(#paint3_linear)"
    />
    <path
      d="M310.794 323.29C310.794 323.29 310.669 323.405 310.429 323.593C310.429 323.593 310.429 323.593 310.429 323.645C306.801 326.773 278.315 351.307 274.04 349.868C270.37 348.659 260.704 342.903 257.055 340.661L255.627 339.796V305.315L273.404 326.648L304.997 308.015L310.794 323.29Z"
      fill="#68E1FD"
    />
    <path
      d="M310.429 323.593C310.429 323.593 310.429 323.593 310.429 323.645C306.801 326.773 278.315 351.307 274.04 349.868C270.37 348.659 260.704 342.903 257.055 340.661C256.878 339.279 256.819 337.883 256.878 336.491C256.93 333.436 255.835 326.064 260.506 327.826C264.312 329.307 267.065 334.218 270.797 336.084C272.007 337.158 273.503 337.857 275.104 338.096C277.71 338.253 279.785 336.147 281.589 334.301C287.95 327.775 295.403 322.412 303.61 318.453C303.976 318.245 304.389 318.137 304.809 318.14C305.273 318.266 305.683 318.541 305.977 318.922C307.458 320.444 308.949 322.029 310.429 323.593Z"
      fill="url(#paint4_linear)"
    />
    <path
      d="M218.247 294.523C213.716 296.787 209.304 299.278 205.026 301.989C195.944 307.807 197.581 310.497 199.249 320.527C202.807 341.969 204.586 363.668 204.567 385.402C204.567 390.522 204.223 396.142 205.672 401.105C206.611 404.348 208.8 407.048 209.03 410.489C223.033 412.418 255.053 419.623 264.646 405.276C273.811 391.512 257.347 342.601 260.36 320.903C263.374 299.205 235.336 296.734 235.336 296.734L218.247 294.523Z"
      fill="#68E1FD"
    />
    <path
      d="M237.526 394.818L212.147 411.938L207.977 406.642C207.977 406.642 203.973 393.181 204.588 379.532C205.203 365.884 204.525 370.763 204.525 370.763L240.237 393.379L237.526 394.818Z"
      fill="url(#paint5_linear)"
    />
    <path
      d="M250.142 273.357C250.183 274.8 250.103 276.244 249.902 277.674C249.236 280.665 248.058 283.519 246.42 286.109C246.004 287.014 245.387 287.813 244.616 288.444C243.146 289.487 241.154 289.153 239.403 288.872C238.992 288.767 238.562 288.767 238.151 288.872C237.109 289.247 237.025 290.603 237.109 291.677L237.369 296.65C237.481 297.333 237.364 298.033 237.036 298.642C236.695 299.054 236.237 299.353 235.722 299.497C233.885 300.102 231.917 300.195 230.031 299.767C228.144 299.339 226.41 298.406 225.014 297.067C224.31 296.432 223.739 295.663 223.335 294.805C223.002 293.978 222.792 293.107 222.709 292.219C222.115 287.464 222.605 282.647 222.272 277.861C222 273.889 221.156 269.874 221.917 265.975C222.305 263.853 223.207 261.858 224.545 260.165C225.883 258.473 227.616 257.135 229.591 256.268C233.553 254.662 238.068 255.381 242.176 256.549C244.159 257.109 246.111 257.77 248.026 258.53C248.962 258.783 249.772 259.373 250.299 260.188C251.049 261.71 250.236 263.931 250.205 265.568C250.1 268.175 250.153 270.771 250.142 273.357Z"
      fill="#FFBAA8"
    />
    <path
      d="M250.173 253.776C250.601 254.745 251.216 255.59 251.737 256.528C252.298 257.438 252.488 258.527 252.269 259.573C251.978 260.383 251.451 261.087 250.757 261.596C247.473 264.296 242.927 264.849 238.683 264.63C237.476 264.515 236.261 264.515 235.055 264.63C233.836 264.739 232.698 265.288 231.854 266.173C230.602 267.622 230.675 269.739 230.279 271.616C230.27 271.734 230.218 271.845 230.133 271.929C230.065 271.974 229.986 272 229.904 272.002C228.559 272.179 227.297 270.584 226.046 271.115C225.743 271.29 225.488 271.538 225.306 271.837C225.124 272.136 225.02 272.476 225.003 272.825C224.909 273.656 225.035 274.498 225.368 275.265C225.533 275.561 225.636 275.888 225.671 276.224C225.655 276.454 225.602 276.679 225.514 276.892L224.649 279.248C224.441 280.132 223.909 280.906 223.158 281.417C222.115 281.928 220.906 281.365 219.915 280.781C219.278 280.517 218.723 280.088 218.307 279.538C217.891 278.988 217.629 278.338 217.548 277.653C216.214 271.783 216.109 265.714 216.12 259.698C216.023 258.282 216.222 256.862 216.704 255.527C217.851 252.869 220.927 251.68 223.752 251.065C228.966 249.949 234.325 249.928 239.642 249.907C241.312 249.842 242.983 249.961 244.626 250.262C246.279 250.568 247.783 251.415 248.901 252.67"
      fill="#973535"
    />
    <path
      d="M241.895 278.914C241.021 279.338 240.347 280.086 240.018 281C239.997 281.044 239.987 281.092 239.987 281.141C239.987 281.189 239.997 281.237 240.018 281.281C240.053 281.316 240.096 281.344 240.143 281.362C240.189 281.379 240.239 281.388 240.289 281.386C242.116 281.5 243.949 281.479 245.773 281.323C247.221 281.271 248.642 280.916 249.944 280.28C250.044 280.238 250.13 280.17 250.194 280.082C250.236 279.994 250.257 279.898 250.257 279.801C250.236 279.436 250.142 279.078 249.981 278.75C249.82 278.422 249.595 278.129 249.319 277.889C249.043 277.649 248.722 277.467 248.374 277.353C248.027 277.239 247.66 277.196 247.296 277.225C245.386 277.347 243.534 277.927 241.895 278.914Z"
      fill="#973535"
    />
    <path
      d="M222.668 292.24C222.668 292.24 218.789 294.961 218.893 297.912C218.998 300.863 240.039 360.17 240.039 360.17C240.039 360.17 240.518 303.417 240.039 300.738C239.323 298.176 238.37 295.687 237.192 293.303C237.192 293.303 228.83 299.403 222.668 292.24Z"
      fill="white"
    />
    <path
      d="M229.57 297.61L228.163 302.197L230.53 304.178L231.666 336.376L240.039 360.17L240.237 335.969L233.053 304.022L235.68 299.518L232.219 297.61H229.57Z"
      fill="#212642"
    />
    <path
      d="M305.122 319.12C304.706 317.475 304.656 315.759 304.975 314.093C305.293 312.426 305.974 310.85 306.968 309.475L311.305 303.459C312.046 302.416 312.827 301.374 313.537 300.331C314.016 299.622 314.235 298.913 315.059 298.485C315.596 298.249 316.172 298.114 316.758 298.089L319.751 297.776C319.995 297.729 320.247 297.729 320.491 297.776C320.747 297.883 320.963 298.067 321.109 298.302C321.255 298.538 321.323 298.814 321.304 299.09C321.242 299.634 321.068 300.16 320.794 300.633C322.428 299.597 324.248 298.889 326.153 298.548C326.42 298.48 326.699 298.48 326.966 298.548C327.255 298.687 327.49 298.918 327.633 299.205C328.41 300.694 328.871 302.326 328.989 304.001C329.239 305.826 329.5 307.64 329.698 309.475C329.771 309.941 329.771 310.416 329.698 310.883C329.57 311.378 329.343 311.843 329.031 312.249C327.838 313.915 326.137 315.148 324.182 315.762C322.98 316.086 321.757 316.327 320.522 316.482C317.103 317.09 313.827 318.335 310.867 320.152C310.149 320.647 309.371 321.05 308.553 321.351C308.139 321.492 307.698 321.532 307.266 321.467C306.834 321.401 306.424 321.233 306.071 320.976C305.565 320.474 305.233 319.824 305.122 319.12Z"
      fill="#FFBAA8"
    />
    <path
      d="M245.137 381.336C242.651 384.473 239.834 387.333 236.733 389.865C236.097 390.386 235.451 390.908 234.794 391.387C234.104 392.01 233.243 392.413 232.323 392.545C231.692 392.518 231.072 392.369 230.498 392.107C218.257 387.331 206.225 381.941 194.516 375.977C189.615 373.453 184.225 370.148 183.182 364.747C182.925 362.861 182.97 360.946 183.317 359.075C185.169 345.384 188.75 331.983 193.973 319.193C195.454 315.564 197.3 308.589 201.168 306.243L201.616 306.003L202.169 305.742C207.382 303.855 211.918 309.068 213.346 313.479C215.369 319.735 214.389 326.554 212.762 332.914C211.136 339.275 208.852 345.51 208.289 352.068C208.142 352.966 208.232 353.886 208.55 354.738C209.044 355.565 209.735 356.256 210.562 356.75C222.101 364.952 233.626 373.148 245.137 381.336Z"
      fill="#68E1FD"
    />
    <path
      d="M348.497 280.645L347.361 278.56C346.693 278.935 330.678 287.589 318.635 298.235C299.982 314.782 285.218 335.886 280.056 353.319C272.153 380.252 246.691 391.262 244.157 392.305C239.882 393.233 196.862 403.701 188.771 445.763L187.123 454.271C180.7 488.126 170.972 539.259 158.658 546.954C158.648 546.958 158.638 546.961 158.627 546.961C158.616 546.961 158.605 546.958 158.596 546.954C158.128 547.293 157.59 547.524 157.022 547.629C156.454 547.733 155.869 547.709 155.311 547.559L154.769 547.402H154.665C155.125 546.543 155.365 545.583 155.365 544.608C155.365 543.633 155.125 542.673 154.665 541.813C154.011 540.598 152.963 539.642 151.693 539.102C150.243 538.521 148.688 538.248 147.126 538.3L127.503 538.143C117.942 538.06 108.068 537.997 98.3084 539.728C97.3274 539.876 96.3892 540.231 95.5567 540.77C94.7241 541.31 94.0164 542.021 93.4809 542.856C93.1702 543.446 92.9958 544.097 92.9705 544.763C92.9452 545.429 93.0698 546.092 93.3349 546.704L93.9397 548.153L95.4828 548.57C98.4753 549.373 101.478 550.071 104.471 550.655L104.909 550.76C116.681 553.187 128.673 554.396 140.693 554.367C145.128 554.367 149.608 554.214 154.133 553.908C156.87 554.47 159.719 553.927 162.057 552.397C175.675 543.878 184.339 503.391 193.483 455.428L195.11 446.941C202.732 407.267 243.917 398.905 245.659 398.561L246.201 398.404C247.442 397.946 277.012 386.487 286.239 355.102C291.067 338.753 305.091 318.817 322.879 303.063C334.348 292.918 350.218 284.295 350.364 284.232L348.497 280.645ZM127.514 544.712L147.116 544.868C147.51 544.862 147.903 544.883 148.294 544.931C147.439 545.082 146.564 545.082 145.708 544.931L145.635 545.536L145.354 547.861C134.612 548.143 123.868 547.424 113.26 545.713C111.894 545.494 110.529 545.254 109.184 544.994C115.283 544.566 121.435 544.67 127.514 544.712Z"
      fill="white"
    />
    <path
      d="M348.497 280.645C343.482 283.492 331.533 290.634 322.086 299.017C303.464 315.543 288.669 336.647 283.508 354.101C275.583 381.013 250.142 392.044 247.608 393.066C243.334 393.994 200.292 404.462 192.222 446.524L190.595 455.032C187.113 473.362 183.651 491.734 178.928 509.793C176.963 517.764 174.476 525.598 171.483 533.243C169.575 537.914 167.229 543.899 163.048 547.048C159.816 549.488 154.185 550.092 150.233 550.697C145.403 551.415 140.518 551.712 135.636 551.583C126.486 551.212 117.38 550.121 108.401 548.32C104.94 547.694 101.395 547.006 98.3606 545.192C98.1275 545 97.8567 544.859 97.5658 544.778C97.2748 544.697 96.9701 544.678 96.6714 544.723C95.733 545.035 96.6714 546.954 96.8696 547.507L97.4952 548.956L99.0175 549.352C100.863 549.832 102.709 550.311 104.554 550.718L104.992 550.822C116.765 553.249 128.756 554.458 140.776 554.43C145.211 554.43 149.691 554.277 154.216 553.971C156.954 554.533 159.803 553.99 162.141 552.459C175.758 543.941 184.423 503.454 193.567 455.491L195.193 447.003C202.815 407.33 244.001 398.968 245.742 398.624L246.284 398.467C247.525 398.008 277.095 386.549 286.323 355.165C291.15 338.816 305.174 318.88 322.962 303.125C334.432 292.98 350.301 284.357 350.447 284.295L348.497 280.645ZM149.159 545.734L148.836 548.664C136.701 549.005 124.565 548.044 112.635 545.797H113.26C119.172 545.432 125.147 545.473 130.986 545.515L145.656 545.619H150.609C151.109 545.619 151.485 545.619 151.787 545.682C150.921 545.853 150.032 545.871 149.159 545.734Z"
      fill="url(#paint6_linear)"
    />
    <path
      d="M139.901 559.904C122.595 559.905 105.383 557.375 88.8097 552.396C88.3989 552.273 88.0166 552.069 87.6845 551.797C87.3524 551.526 87.0771 551.191 86.8742 550.813C86.6714 550.435 86.545 550.021 86.5023 549.594C86.4596 549.167 86.5014 548.736 86.6253 548.325C86.7492 547.914 86.9528 547.532 87.2245 547.2C87.4962 546.868 87.8306 546.592 88.2087 546.389C88.5868 546.187 89.0012 546.06 89.4281 546.017C89.855 545.975 90.2862 546.017 90.6969 546.14C109.719 551.851 129.59 554.208 149.42 553.106C153.097 552.931 156.762 552.562 160.399 552C161.192 551.875 161.974 551.729 162.756 551.573C163.128 551.566 163.495 551.476 163.828 551.31C164.162 551.144 164.455 550.906 164.685 550.613C165.999 549.081 167.25 547.486 168.449 545.88L169.314 544.702C170.482 543.054 171.723 541.282 173.621 540.583C175.518 539.884 178.375 540.447 178.896 542.668C178.992 543.077 179.062 543.492 179.105 543.909C179.244 545.363 179.092 546.829 178.659 548.224C178.226 549.618 177.52 550.913 176.582 552.032C173.6 555.524 169.137 556.88 165.582 557.662C160.375 558.749 155.089 559.408 149.775 559.633C146.466 559.806 143.175 559.897 139.901 559.904Z"
      fill="white"
    />
    <path
      d="M139.901 559.935C122.595 559.936 105.383 557.407 88.8097 552.428C88.3989 552.304 88.0166 552.1 87.6845 551.829C87.3524 551.557 87.0771 551.223 86.8742 550.845C86.6714 550.466 86.545 550.052 86.5023 549.625C86.4596 549.198 86.5014 548.767 86.6253 548.356C86.7492 547.946 86.9528 547.563 87.2245 547.231C87.4962 546.899 87.8306 546.624 88.2087 546.421C88.5868 546.218 89.0012 546.092 89.4281 546.049C89.855 546.006 90.2862 546.048 90.6969 546.172C109.719 551.883 129.59 554.239 149.42 553.137C154.383 552.946 159.322 552.343 164.184 551.333C167.521 550.603 171.379 549.425 172.818 546.026C173.034 545.655 173.139 545.23 173.12 544.801C173.102 544.372 172.961 543.958 172.713 543.607C172.451 543.399 172.168 543.217 171.869 543.065C171.723 542.981 171.599 542.864 171.508 542.722C171.418 542.581 171.362 542.419 171.348 542.252C171.348 541.887 171.702 541.626 172.015 541.449C173.289 540.754 174.778 540.564 176.186 540.917C177.948 541.344 178.938 542.137 179.126 543.941C179.267 545.394 179.116 546.861 178.683 548.256C178.249 549.651 177.542 550.945 176.603 552.063C173.621 555.556 169.158 556.911 165.602 557.693C160.398 558.79 155.11 559.45 149.796 559.664C146.473 559.838 143.175 559.928 139.901 559.935Z"
      fill="url(#paint7_linear)"
    />
    <path
      d="M180.231 555.764C180.229 556.042 180.194 556.319 180.127 556.588C179.962 557.222 179.596 557.785 179.084 558.194C177.72 559.391 176.17 560.359 174.496 561.061C172.241 561.878 169.867 562.318 167.469 562.365C156.667 563.126 145.27 563.929 133.718 563.929C118.912 563.929 103.866 562.604 89.4875 558.194C89.2749 558.135 89.0714 558.047 88.8827 557.933C88.2714 557.57 87.7955 557.016 87.5276 556.357C87.2597 555.699 87.2144 554.97 87.3985 554.283C87.5827 553.596 87.9862 552.988 88.5477 552.552C89.1093 552.115 89.7981 551.874 90.5093 551.865C90.8632 551.858 91.2157 551.91 91.5519 552.021C115.95 559.508 143.029 557.599 167.052 555.91C168.771 555.886 170.477 555.598 172.109 555.055C173.112 554.62 174.041 554.028 174.861 553.304C175.337 552.894 175.92 552.629 176.542 552.542C177.164 552.454 177.798 552.547 178.368 552.81C178.939 553.072 179.421 553.494 179.759 554.023C180.097 554.552 180.275 555.168 180.273 555.796L180.231 555.764Z"
      fill="white"
    />
    <path
      d="M180.127 556.588C179.962 557.222 179.596 557.785 179.084 558.194C177.72 559.391 176.17 560.359 174.496 561.061C172.241 561.878 169.867 562.318 167.469 562.364C156.667 563.126 145.27 563.928 133.718 563.928C118.912 563.928 103.866 562.604 89.4874 558.194C89.2749 558.135 89.0714 558.047 88.8827 557.933L88.9452 557.704C89.1573 557.06 89.5684 556.499 90.1194 556.104C90.6703 555.709 91.3326 555.498 92.0107 555.504C92.3648 555.493 92.7179 555.546 93.0534 555.66C117.462 563.146 144.561 561.238 168.584 559.549C170.304 559.523 172.009 559.235 173.641 558.694C174.637 558.255 175.558 557.664 176.373 556.943C176.89 556.512 177.525 556.248 178.195 556.184C178.865 556.121 179.538 556.262 180.127 556.588Z"
      fill="url(#paint8_linear)"
    />
    <path
      d="M608.446 528.77L482.501 525.715L459.271 405.943H632.907L608.446 528.77Z"
      fill="white"
    />
    <path
      d="M608.446 528.77L482.501 525.715L459.271 405.943H632.907L608.446 528.77Z"
      fill="url(#paint9_linear)"
    />
    <path
      d="M608.446 528.77L506.962 526.309L488.215 441.801H625.264L608.446 528.77Z"
      fill="white"
    />
    <path
      d="M564.674 256.445C562.039 257.641 559.624 259.273 557.532 261.272C556.499 262.283 555.688 263.497 555.15 264.838C554.611 266.179 554.357 267.617 554.404 269.061C554.675 272.554 557.188 275.442 559.826 277.747C562.86 280.395 566.53 283.179 566.77 287.193C568.939 285.598 570.889 283.711 573.12 282.188C577.03 279.53 581.618 278.101 585.913 276.131C590.209 274.16 594.453 271.397 596.497 267.143C597.594 264.458 598.225 261.605 598.363 258.707C598.808 255.6 598.892 252.451 598.613 249.323C598.321 246.177 596.946 243.229 594.724 240.982C593.082 239.607 591.217 238.524 589.208 237.781C587.298 236.86 585.24 236.285 583.129 236.082C578.667 235.883 573.745 239.616 572.15 243.776C571.274 246.122 571.691 248.792 570.816 251.075C569.783 253.89 567.124 255.215 564.674 256.445Z"
      fill="#FF681C"
    />
    <path
      d="M467.602 398.154C466.755 398.145 465.913 398.275 465.11 398.54C464.709 398.677 464.356 398.925 464.092 399.256C463.828 399.586 463.663 399.986 463.619 400.406C463.65 400.82 463.785 401.219 464.011 401.567C464.237 401.915 464.547 402.2 464.911 402.398C465.6 402.846 466.402 403.117 467.091 403.566C467.675 404.059 468.303 404.499 468.967 404.879C470.157 405.225 471.425 405.177 472.586 404.744C477.983 403.43 483.571 403.077 489.091 403.701C489.627 403.774 490.171 403.774 490.707 403.701C492.323 403.451 493.408 401.908 494.012 400.396C495.305 397.122 495.243 393.483 494.961 389.969C494.965 389.579 494.868 389.195 494.68 388.854C494.471 388.57 494.19 388.347 493.866 388.207C488.653 385.621 485.775 390.793 481.928 393.316C477.655 396.149 472.717 397.817 467.602 398.154Z"
      fill="#FFBAA8"
    />
    <path
      d="M594.005 321.247C594.005 321.247 595.318 340.818 577.833 346.719C560.347 352.621 529.015 347.762 529.015 347.762C529.015 347.762 516.388 371.931 503.511 383.432L495.243 391.596C495.243 391.596 489.852 393.285 486.161 387.655C486.161 387.655 510.633 339.087 513.813 335.459C517.532 330.976 522.506 327.708 528.097 326.075C535.292 323.822 562.985 315.095 562.985 315.095L594.005 321.247Z"
      fill="#473F47"
    />
    <path
      d="M477.288 257.123L496.025 296.88L530.621 296.64L530.339 293.647L498.517 293.293L480.896 255.673L477.288 257.123Z"
      fill="#473F47"
    />
    <path
      d="M568.887 231.431C568.23 232.474 566.906 233.162 566.478 234.351C565.967 235.8 566.968 237.281 567.521 238.73C568.24 240.732 568.011 242.984 568.709 244.986C568.833 245.424 569.079 245.819 569.418 246.122C569.732 246.334 570.088 246.476 570.461 246.54C571.955 246.853 573.487 246.945 575.007 246.811C575.307 246.74 575.622 246.781 575.893 246.925C576.12 247.121 576.263 247.398 576.29 247.697C577.164 251.516 577.104 255.49 576.112 259.281C575.789 260.522 575.424 262.044 576.352 262.951C576.681 263.249 577.085 263.451 577.52 263.535C580.408 264.244 583.192 262.107 585.131 259.865C586.874 257.861 588.376 255.66 589.605 253.306C589.976 252.66 590.234 251.955 590.366 251.221C590.42 250.252 590.286 249.282 589.969 248.364C589.146 245.215 588.646 241.991 588.478 238.74C588.259 234.57 588.562 230.232 586.967 226.374C586.5 225.048 585.614 223.91 584.443 223.132C583.045 222.468 581.485 222.218 579.949 222.412C576.926 222.527 573.599 222.933 571.535 225.165C570.93 225.801 569.689 230.086 568.887 231.431Z"
      fill="#FFBAA8"
    />
    <path
      d="M590.105 251.471C590.105 251.471 577.593 257.926 573.891 262.941C570.19 267.956 563.955 271.741 566.332 281.323C568.709 290.905 565.8 305.523 565.8 305.523C565.8 305.523 571.212 322.561 584.495 326.877C597.779 331.194 594.161 329.807 594.161 329.807C594.161 329.807 601.241 298.235 603.993 289.435C606.746 280.635 602.263 250.064 590.105 251.471Z"
      fill="#68E1FD"
    />
    <path
      d="M572.911 224.727C573.15 226.782 574.129 228.679 575.664 230.065C577.134 231.452 578.969 232.39 580.492 233.715C582.014 235.039 583.255 236.989 582.911 238.928C583.496 238.686 584.148 238.659 584.752 238.849C585.357 239.04 585.875 239.437 586.216 239.971C586.377 240.346 586.429 240.76 586.366 241.163C586.303 241.567 586.129 241.945 585.861 242.254C585.588 242.557 585.25 242.795 584.873 242.952C584.497 243.109 584.09 243.18 583.682 243.161C585.259 243.798 586.612 244.886 587.571 246.289C588.614 247.864 589.156 249.751 590.126 251.388C591.169 253.213 592.972 254.307 594.588 255.559C595.391 256.087 596.053 256.802 596.517 257.644C596.875 258.9 597.311 260.133 597.821 261.335C598.759 263.003 600.271 264.275 601.387 265.829C602.846 267.914 604.348 271.793 604.212 274.295C604.129 273.401 604.129 272.5 604.212 271.605C604.525 271.063 604.828 270.563 605.109 269.968C605.594 268.991 605.969 267.963 606.225 266.903C606.819 264.453 606.412 262.034 606.423 259.604C606.423 254.391 611.376 244.465 607.403 239.971C606.027 238.428 603.952 237.719 602.367 236.394C598.853 233.496 598.353 228.376 596.111 224.393C595.131 222.643 593.812 221.105 592.231 219.87C590.65 218.635 588.839 217.727 586.904 217.199C581.68 215.812 572.234 217.439 572.911 224.727Z"
      fill="#FF681C"
    />
    <path
      d="M585.298 267.893C585.298 267.893 577.426 289.185 575.914 290.738C574.402 292.292 591.075 301.707 591.075 301.707C591.075 301.707 601.971 281.01 601.501 272.033C601.032 263.055 591.44 259.437 585.298 267.893Z"
      fill="#68E1FD"
    />
    <path
      d="M591.033 298.819C591.033 298.819 590.449 305.68 582.045 305.555C573.641 305.43 544.645 305.033 544.645 305.033C542.1 303.72 538.607 303.501 536.71 301.363C535.803 300.32 535.333 298.986 534.458 297.933C533.266 296.62 531.655 295.762 529.901 295.503C528.174 295.262 526.425 295.217 524.688 295.368C524.347 294.972 524.159 294.467 524.159 293.945C524.159 293.422 524.347 292.917 524.688 292.521C525.421 291.761 526.372 291.248 527.409 291.051C531.703 289.952 536.258 290.597 540.078 292.844C541.176 293.637 542.38 294.272 543.654 294.732C544.593 294.928 545.556 294.984 546.511 294.899C557.292 294.377 567.927 292.083 578.709 291.604C581.235 291.353 583.785 291.619 586.205 292.386C587.461 293.001 588.553 293.904 589.392 295.022C590.231 296.141 590.793 297.442 591.033 298.819Z"
      fill="#FFBAA8"
    />
    <path
      d="M594.912 349.389H546.573C545.433 349.389 544.509 350.313 544.509 351.453V359.867C544.509 361.008 545.433 361.932 546.573 361.932H594.912C596.052 361.932 596.976 361.008 596.976 359.867V351.453C596.976 350.313 596.052 349.389 594.912 349.389Z"
      fill="#473F47"
    />
    <path
      d="M554.8 361.921H545.927L541.496 402.95H550.369L554.8 361.921Z"
      fill="#473F47"
    />
    <path
      d="M594.025 361.921H585.163L591.033 402.95H599.896L594.025 361.921Z"
      fill="#473F47"
    />
    <path
      d="M612.96 280.572H605.005L587.05 349.691H595.006L612.96 280.572Z"
      fill="#473F47"
    />
    <path d="M647.17 398.165H437.666V433.261H647.17V398.165Z" fill="white" />
    <path
      d="M647.17 398.165H437.666V433.261H647.17V398.165Z"
      fill="url(#paint10_linear)"
    />
    <path d="M647.17 398.165H437.666V426.963H647.17V398.165Z" fill="white" />
    <path d="M470.782 301.103H465.485V398.165H470.782V301.103Z" fill="white" />
    <path
      d="M457.394 380.272C464.788 380.272 470.782 374.279 470.782 366.885C470.782 359.491 464.788 353.497 457.394 353.497C450 353.497 444.006 359.491 444.006 366.885C444.006 374.279 450 380.272 457.394 380.272Z"
      fill="#F4BD5C"
    />
    <path d="M530.621 301.103H525.324V398.165H530.621V301.103Z" fill="white" />
    <path
      d="M245.127 530.344L246.044 539.561L251.852 540.604L254.459 538.31L258.89 541.824H276.313C276.313 541.824 280.745 534.181 271.1 531.585L261.476 528.989L245.127 530.344Z"
      fill="#212642"
    />
    <path
      d="M211.105 530.344L212.022 539.561L217.83 540.604L220.426 538.31L224.868 541.824H242.28C242.28 541.824 246.712 534.181 237.067 531.585L227.443 528.989L211.105 530.344Z"
      fill="#212642"
    />
    <path
      d="M240.237 430.894L248.036 424.575L253.541 529.02L245.127 530.344L240.237 430.894Z"
      fill="url(#paint11_linear)"
    />
    <path
      d="M236.733 389.865C236.097 390.386 235.451 390.908 234.794 391.387C234.104 392.01 233.243 392.413 232.323 392.545C231.692 392.518 231.072 392.369 230.498 392.107C218.257 387.331 206.225 381.941 194.516 375.977C189.615 373.453 184.225 370.148 183.182 364.747C182.925 362.861 182.97 360.946 183.317 359.075C185.169 345.384 188.75 331.983 193.973 319.193C195.454 315.564 197.3 308.589 201.168 306.243L201.616 306.003L202.169 305.742C204.607 305.702 206.996 306.427 209.001 307.815C211.005 309.202 212.525 311.183 213.346 313.479C213.346 313.479 194.808 351.432 195.621 357.146C196.434 362.86 235.336 381.44 235.336 381.44L236.733 389.865Z"
      fill="url(#paint12_linear)"
    />
    <path
      d="M253.854 384.516C254.873 384.768 255.823 385.242 256.638 385.903C257.039 386.239 257.335 386.682 257.492 387.181C257.649 387.68 257.66 388.213 257.524 388.718C257.23 389.302 256.881 389.858 256.482 390.376C255.971 391.283 255.908 392.378 255.439 393.306C254.545 394.698 253.161 395.703 251.56 396.121C246.92 397.789 241.269 398.029 237.526 394.818C234.794 392.482 229.341 382.869 235.357 381.419C237.588 380.888 240.737 381.899 242.958 382.212C246.647 382.68 250.291 383.451 253.854 384.516Z"
      fill="#FFBAA8"
    />
    <path
      d="M319.021 303.428C319.458 303.176 319.822 302.815 320.076 302.38C320.33 301.945 320.466 301.45 320.47 300.946C320.424 300.624 320.31 300.315 320.137 300.039C319.632 299.221 318.846 298.616 317.927 298.336C317.007 298.055 316.017 298.12 315.142 298.517C313.997 299.217 313.055 300.206 312.41 301.384C311.27 302.822 310.251 304.353 309.366 305.961C308.751 307.359 309.908 306.889 310.919 306.504C313.568 305.513 316.696 305.106 319.021 303.428Z"
      fill="#FFBAA8"
    />
    <path
      d="M113.354 544.493C126.652 544.681 139.942 544.747 153.226 544.691C153.106 544.112 152.844 543.572 152.463 543.119C152.083 542.665 151.596 542.314 151.047 542.095C149.563 541.538 147.977 541.31 146.396 541.428C141.371 541.469 136.352 541.754 131.34 542.283C128.155 542.705 124.949 542.955 121.737 543.033C118.755 543.033 115.794 542.616 112.822 542.418C110.508 542.262 108.193 542.23 105.889 542.23C104.95 542.23 100.79 541.74 101.197 543.002C101.676 544.483 105.472 544.222 106.566 544.295C108.829 544.431 111.092 544.462 113.354 544.493Z"
      fill="url(#paint13_linear)"
    />
    <path d="M533.55 296.88H459.271V305.315H533.55V296.88Z" fill="#68E1FD" />
    <path
      d="M465.485 190.371C471.474 190.371 476.329 185.516 476.329 179.527C476.329 173.538 471.474 168.683 465.485 168.683C459.496 168.683 454.641 173.538 454.641 179.527C454.641 185.516 459.496 190.371 465.485 190.371Z"
      fill="#F4BD5C"
    />
    <path
      d="M542.413 196.095C548.402 196.095 553.257 191.24 553.257 185.251C553.257 179.263 548.402 174.408 542.413 174.408C536.424 174.408 531.569 179.263 531.569 185.251C531.569 191.24 536.424 196.095 542.413 196.095Z"
      fill="#F4BD5C"
    />
    <path
      d="M377.275 249.521C380.747 249.521 383.562 246.707 383.562 243.234C383.562 239.762 380.747 236.947 377.275 236.947C373.803 236.947 370.988 239.762 370.988 243.234C370.988 246.707 373.803 249.521 377.275 249.521Z"
      fill="#F4BD5C"
    />
    <path
      d="M355.462 276.276C358.935 276.276 361.75 273.462 361.75 269.989C361.75 266.517 358.935 263.702 355.462 263.702C351.99 263.702 349.175 266.517 349.175 269.989C349.175 273.462 351.99 276.276 355.462 276.276Z"
      fill="#F4BD5C"
    />
    <path
      d="M355.462 274.431C357.915 274.431 359.904 272.442 359.904 269.989C359.904 267.536 357.915 265.547 355.462 265.547C353.009 265.547 351.021 267.536 351.021 269.989C351.021 272.442 353.009 274.431 355.462 274.431Z"
      fill="#D39D47"
    />
    <path
      d="M364.7 267.309C368.173 267.309 370.988 264.495 370.988 261.022C370.988 257.55 368.173 254.735 364.7 254.735C361.228 254.735 358.413 257.55 358.413 261.022C358.413 264.495 361.228 267.309 364.7 267.309Z"
      fill="#F4BD5C"
    />
    <path
      d="M391.195 267.309C394.667 267.309 397.482 264.495 397.482 261.022C397.482 257.55 394.667 254.735 391.195 254.735C387.722 254.735 384.907 257.55 384.907 261.022C384.907 264.495 387.722 267.309 391.195 267.309Z"
      fill="#F4BD5C"
    />
    <path
      d="M401.997 232.255C405.469 232.255 408.284 229.44 408.284 225.968C408.284 222.495 405.469 219.68 401.997 219.68C398.524 219.68 395.709 222.495 395.709 225.968C395.709 229.44 398.524 232.255 401.997 232.255Z"
      fill="#F4BD5C"
    />
    <path
      d="M427.062 244.83C430.535 244.83 433.35 242.015 433.35 238.542C433.35 235.07 430.535 232.255 427.062 232.255C423.59 232.255 420.775 235.07 420.775 238.542C420.775 242.015 423.59 244.83 427.062 244.83Z"
      fill="#F4BD5C"
    />
    <path
      d="M418.221 197.816C421.693 197.816 424.508 195.001 424.508 191.528C424.508 188.056 421.693 185.241 418.221 185.241C414.748 185.241 411.933 188.056 411.933 191.528C411.933 195.001 414.748 197.816 418.221 197.816Z"
      fill="#F4BD5C"
    />
    <path
      d="M633.782 228.752C641.176 228.752 647.17 222.758 647.17 215.364C647.17 207.97 641.176 201.976 633.782 201.976C626.389 201.976 620.395 207.97 620.395 215.364C620.395 222.758 626.389 228.752 633.782 228.752Z"
      fill="#F4BD5C"
    />
    <path
      d="M633.782 225.832C639.564 225.832 644.251 221.145 644.251 215.364C644.251 209.582 639.564 204.895 633.782 204.895C628.001 204.895 623.314 209.582 623.314 215.364C623.314 221.145 628.001 225.832 633.782 225.832Z"
      fill="#D39D47"
    />
    <path
      d="M649.61 366.885C657.004 366.885 662.998 360.891 662.998 353.497C662.998 346.103 657.004 340.109 649.61 340.109C642.216 340.109 636.222 346.103 636.222 353.497C636.222 360.891 642.216 366.885 649.61 366.885Z"
      fill="#F4BD5C"
    />
    <path
      d="M486.161 242.139C493.555 242.139 499.549 236.145 499.549 228.752C499.549 221.358 493.555 215.364 486.161 215.364C478.767 215.364 472.773 221.358 472.773 228.752C472.773 236.145 478.767 242.139 486.161 242.139Z"
      fill="#F4BD5C"
    />
    <path
      d="M442.473 305.628C449.867 305.628 455.861 299.634 455.861 292.24C455.861 284.846 449.867 278.852 442.473 278.852C435.079 278.852 429.085 284.846 429.085 292.24C429.085 299.634 435.079 305.628 442.473 305.628Z"
      fill="#F4BD5C"
    />
    <path
      d="M442.473 305.628C449.867 305.628 455.861 299.634 455.861 292.24C455.861 284.846 449.867 278.852 442.473 278.852C435.079 278.852 429.085 284.846 429.085 292.24C429.085 299.634 435.079 305.628 442.473 305.628Z"
      fill="#F4BD5C"
    />
    <path
      d="M442.473 301.707C447.702 301.707 451.941 297.469 451.941 292.24C451.941 287.011 447.702 282.772 442.473 282.772C437.244 282.772 433.006 287.011 433.006 292.24C433.006 297.469 437.244 301.707 442.473 301.707Z"
      fill="#D39D47"
    />
    <path
      d="M486.161 238.219C491.39 238.219 495.629 233.98 495.629 228.752C495.629 223.523 491.39 219.284 486.161 219.284C480.932 219.284 476.694 223.523 476.694 228.752C476.694 233.98 480.932 238.219 486.161 238.219Z"
      fill="#D39D47"
    />
    <path
      d="M542.413 192.925C546.651 192.925 550.087 189.49 550.087 185.251C550.087 181.013 546.651 177.577 542.413 177.577C538.175 177.577 534.739 181.013 534.739 185.251C534.739 189.49 538.175 192.925 542.413 192.925Z"
      fill="#D39D47"
    />
    <path
      d="M465.485 187.201C469.723 187.201 473.159 183.765 473.159 179.527C473.159 175.289 469.723 171.853 465.485 171.853C461.247 171.853 457.811 175.289 457.811 179.527C457.811 183.765 461.247 187.201 465.485 187.201Z"
      fill="#D39D47"
    />
    <path
      d="M457.394 375.966C462.409 375.966 466.475 371.9 466.475 366.885C466.475 361.869 462.409 357.803 457.394 357.803C452.378 357.803 448.312 361.869 448.312 366.885C448.312 371.9 452.378 375.966 457.394 375.966Z"
      fill="#D39D47"
    />
    <path
      d="M486.818 222.579C486.286 226.03 485.827 229.492 485.421 233.006"
      stroke="#F4BD5C"
      stroke-width="0.550322"
      stroke-miterlimit="10"
      stroke-linecap="round"
    />
    <path
      d="M488.862 226.645C488.718 225.986 488.371 225.387 487.87 224.935C487.369 224.482 486.738 224.198 486.067 224.122C485.845 224.088 485.619 224.1 485.402 224.158C485.185 224.215 484.982 224.317 484.806 224.456C484.578 224.7 484.423 225.004 484.357 225.332C484.248 225.814 484.227 226.312 484.295 226.802C484.315 227.043 484.394 227.275 484.524 227.479C484.879 227.959 485.567 227.97 486.13 228.157C486.585 228.322 486.981 228.62 487.266 229.012C487.55 229.404 487.71 229.873 487.725 230.357C487.731 230.566 487.688 230.773 487.6 230.962C487.479 231.138 487.323 231.288 487.141 231.4C486.521 231.905 485.741 232.175 484.941 232.161C484.546 232.138 484.174 231.968 483.898 231.684C483.622 231.4 483.462 231.024 483.45 230.628"
      stroke="#F4BD5C"
      stroke-width="0.550322"
      stroke-miterlimit="10"
      stroke-linecap="round"
    />
    <path
      d="M542.997 180.497C542.545 183.437 542.153 186.381 541.819 189.328"
      stroke="#F4BD5C"
      stroke-width="0.465657"
      stroke-miterlimit="10"
      stroke-linecap="round"
    />
    <path
      d="M544.759 183.958C544.637 183.397 544.342 182.888 543.915 182.503C543.489 182.118 542.953 181.876 542.382 181.811C542.198 181.786 542.011 181.799 541.833 181.847C541.654 181.896 541.486 181.979 541.339 182.092C541.141 182.3 541.007 182.56 540.953 182.843C540.858 183.253 540.84 183.677 540.901 184.094C540.915 184.299 540.983 184.498 541.099 184.667C541.391 185.074 541.975 185.085 542.455 185.241C542.839 185.384 543.173 185.638 543.414 185.97C543.655 186.302 543.793 186.697 543.81 187.107C543.819 187.284 543.784 187.459 543.706 187.618C543.607 187.771 543.475 187.899 543.32 187.994C542.795 188.425 542.133 188.654 541.454 188.64C541.115 188.627 540.795 188.484 540.558 188.242C540.322 187.999 540.187 187.675 540.182 187.337"
      stroke="#F4BD5C"
      stroke-width="0.465657"
      stroke-miterlimit="10"
      stroke-linecap="round"
    />
    <path
      d="M634.429 209.775C633.897 213.226 633.386 216.698 633.032 220.202"
      stroke="#F4BD5C"
      stroke-width="0.550322"
      stroke-miterlimit="10"
      stroke-linecap="round"
    />
    <path
      d="M636.514 213.852C636.37 213.192 636.024 212.594 635.522 212.141C635.021 211.689 634.391 211.404 633.72 211.328C633.499 211.293 633.272 211.303 633.055 211.358C632.838 211.414 632.635 211.514 632.458 211.652C632.231 211.901 632.076 212.207 632.01 212.538C631.895 213.02 631.874 213.519 631.947 214.008C631.965 214.25 632.044 214.483 632.177 214.686C632.531 215.166 633.219 215.176 633.782 215.364C634.24 215.526 634.637 215.823 634.922 216.216C635.207 216.609 635.366 217.079 635.378 217.564C635.386 217.77 635.34 217.976 635.242 218.158C635.129 218.339 634.975 218.493 634.794 218.606C634.171 219.108 633.393 219.377 632.594 219.368C632.2 219.342 631.829 219.171 631.553 218.888C631.278 218.605 631.117 218.23 631.103 217.835"
      stroke="#F4BD5C"
      stroke-width="0.550322"
      stroke-miterlimit="10"
      stroke-linecap="round"
    />
    <path
      d="M649.61 363.965C655.392 363.965 660.079 359.278 660.079 353.497C660.079 347.715 655.392 343.028 649.61 343.028C643.829 343.028 639.142 347.715 639.142 353.497C639.142 359.278 643.829 363.965 649.61 363.965Z"
      fill="#D39D47"
    />
    <path
      d="M650.298 347.908C649.77 351.384 649.304 354.859 648.901 358.335"
      stroke="#F4BD5C"
      stroke-width="0.550322"
      stroke-miterlimit="10"
      stroke-linecap="round"
    />
    <path
      d="M652.342 351.985C652.196 351.324 651.847 350.726 651.344 350.273C650.841 349.821 650.209 349.537 649.537 349.462C649.345 349.419 649.147 349.418 648.954 349.457C648.762 349.497 648.579 349.576 648.419 349.69C648.259 349.804 648.125 349.95 648.025 350.119C647.924 350.288 647.861 350.476 647.838 350.671C647.725 351.153 647.7 351.651 647.765 352.141C647.789 352.383 647.871 352.616 648.004 352.819C648.359 353.299 649.047 353.309 649.61 353.497C650.066 353.661 650.462 353.959 650.746 354.352C651.03 354.744 651.191 355.212 651.205 355.697C651.213 355.907 651.166 356.115 651.07 356.301C650.95 356.475 650.798 356.624 650.622 356.739C650 357.243 649.221 357.512 648.422 357.501C648.025 357.482 647.65 357.313 647.373 357.029C647.096 356.744 646.938 356.365 646.93 355.968"
      stroke="#F4BD5C"
      stroke-width="0.550322"
      stroke-miterlimit="10"
      stroke-linecap="round"
    />
    <path
      d="M466.173 173.938C465.641 177.39 465.13 180.862 464.776 184.365"
      stroke="#F4BD5C"
      stroke-width="0.550322"
      stroke-miterlimit="10"
      stroke-linecap="round"
    />
    <path
      d="M468.217 178.005C468.072 177.346 467.725 176.749 467.224 176.299C466.723 175.848 466.092 175.566 465.422 175.492C465.201 175.456 464.975 175.466 464.758 175.522C464.541 175.577 464.337 175.677 464.161 175.815C463.931 176.062 463.775 176.37 463.712 176.701C463.598 177.183 463.577 177.682 463.65 178.172C463.667 178.413 463.746 178.647 463.879 178.849C464.234 179.329 464.922 179.339 465.485 179.527C465.941 179.689 466.337 179.984 466.621 180.375C466.906 180.766 467.066 181.233 467.08 181.717C467.087 181.923 467.041 182.128 466.945 182.311C466.831 182.492 466.678 182.646 466.496 182.759C465.871 183.256 465.095 183.525 464.296 183.52C463.899 183.499 463.524 183.329 463.247 183.042C462.97 182.756 462.813 182.375 462.805 181.977"
      stroke="#F4BD5C"
      stroke-width="0.550322"
      stroke-miterlimit="10"
      stroke-linecap="round"
    />
    <path
      d="M443.161 286.651C442.63 290.102 442.119 293.574 441.764 297.078"
      stroke="#F4BD5C"
      stroke-width="0.550322"
      stroke-miterlimit="10"
      stroke-linecap="round"
    />
    <path
      d="M445.205 290.728C445.059 290.067 444.71 289.469 444.207 289.016C443.704 288.564 443.072 288.28 442.4 288.205C442.181 288.169 441.956 288.179 441.741 288.235C441.525 288.291 441.324 288.39 441.149 288.528C440.917 288.774 440.761 289.082 440.701 289.414C440.588 289.896 440.563 290.394 440.628 290.884C440.654 291.126 440.736 291.358 440.867 291.562C441.222 292.042 441.91 292.052 442.473 292.24C442.93 292.402 443.328 292.699 443.613 293.092C443.897 293.485 444.056 293.955 444.068 294.44C444.077 294.647 444.03 294.852 443.933 295.034C443.816 295.213 443.664 295.366 443.485 295.483C442.862 295.984 442.084 296.253 441.285 296.244C440.889 296.223 440.515 296.053 440.239 295.769C439.963 295.485 439.803 295.107 439.794 294.711"
      stroke="#F4BD5C"
      stroke-width="0.550322"
      stroke-miterlimit="10"
      stroke-linecap="round"
    />
    <path
      d="M459.928 361.692C459.396 365.143 458.937 368.605 458.53 372.119"
      stroke="#F4BD5C"
      stroke-width="0.550322"
      stroke-miterlimit="10"
      stroke-linecap="round"
    />
    <path
      d="M461.971 365.758C461.827 365.099 461.48 364.501 460.979 364.048C460.478 363.595 459.848 363.311 459.177 363.235C458.957 363.201 458.731 363.213 458.516 363.27C458.301 363.328 458.1 363.429 457.926 363.569C457.69 363.808 457.534 364.114 457.477 364.445C457.36 364.926 457.335 365.425 457.404 365.915C457.425 366.156 457.504 366.388 457.634 366.593C457.988 367.072 458.676 367.083 459.239 367.27C459.695 367.435 460.091 367.733 460.375 368.125C460.66 368.517 460.82 368.986 460.835 369.47C460.842 369.679 460.799 369.886 460.71 370.075C460.592 370.254 460.435 370.404 460.251 370.513C459.63 371.019 458.851 371.288 458.051 371.274C457.656 371.251 457.284 371.081 457.008 370.797C456.732 370.513 456.572 370.137 456.56 369.741"
      stroke="#F4BD5C"
      stroke-width="0.550322"
      stroke-miterlimit="10"
      stroke-linecap="round"
    />
  </g>
  <defs>
    <linearGradient
      id="paint0_linear"
      x1="551.818"
      y1="390.136"
      x2="525.47"
      y2="713.416"
      gradientUnits="userSpaceOnUse"
    >
      <stop offset="0.01" />
      <stop offset="0.08" stop-opacity="0.69" />
      <stop offset="0.21" stop-opacity="0.32" />
      <stop offset="1" stop-opacity="0" />
    </linearGradient>
    <linearGradient
      id="paint1_linear"
      x1="40032.2"
      y1="20669"
      x2="39686.2"
      y2="33988.8"
      gradientUnits="userSpaceOnUse"
    >
      <stop offset="0.01" />
      <stop offset="0.08" stop-opacity="0.69" />
      <stop offset="0.21" stop-opacity="0.32" />
      <stop offset="1" stop-opacity="0" />
    </linearGradient>
    <linearGradient
      id="paint2_linear"
      x1="8557.49"
      y1="55684.8"
      x2="23516.9"
      y2="59643.6"
      gradientUnits="userSpaceOnUse"
    >
      <stop offset="0.01" />
      <stop offset="0.08" stop-opacity="0.69" />
      <stop offset="0.21" stop-opacity="0.32" />
      <stop offset="1" stop-opacity="0" />
    </linearGradient>
    <linearGradient
      id="paint3_linear"
      x1="3737.52"
      y1="52982"
      x2="783.056"
      y2="53297"
      gradientUnits="userSpaceOnUse"
    >
      <stop offset="0.01" />
      <stop offset="0.08" stop-opacity="0.69" />
      <stop offset="0.21" stop-opacity="0.32" />
      <stop offset="1" stop-opacity="0" />
    </linearGradient>
    <linearGradient
      id="paint4_linear"
      x1="14552.4"
      y1="12016.6"
      x2="14015.3"
      y2="9216.16"
      gradientUnits="userSpaceOnUse"
    >
      <stop offset="0.01" />
      <stop offset="0.08" stop-opacity="0.69" />
      <stop offset="0.21" stop-opacity="0.32" />
      <stop offset="1" stop-opacity="0" />
    </linearGradient>
    <linearGradient
      id="paint5_linear"
      x1="7545.37"
      y1="15638.2"
      x2="5710.85"
      y2="18964.2"
      gradientUnits="userSpaceOnUse"
    >
      <stop offset="0.01" />
      <stop offset="0.08" stop-opacity="0.69" />
      <stop offset="0.21" stop-opacity="0.32" />
      <stop offset="1" stop-opacity="0" />
    </linearGradient>
    <linearGradient
      id="paint6_linear"
      x1="71212.4"
      y1="137091"
      x2="21900.8"
      y2="89219"
      gradientUnits="userSpaceOnUse"
    >
      <stop offset="0.01" />
      <stop offset="0.08" stop-opacity="0.69" />
      <stop offset="0.21" stop-opacity="0.32" />
      <stop offset="1" stop-opacity="0" />
    </linearGradient>
    <linearGradient
      id="paint7_linear"
      x1="10372.4"
      y1="10576.7"
      x2="10370.9"
      y2="12115.9"
      gradientUnits="userSpaceOnUse"
    >
      <stop offset="0.01" />
      <stop offset="0.08" stop-opacity="0.69" />
      <stop offset="0.21" stop-opacity="0.32" />
      <stop offset="1" stop-opacity="0" />
    </linearGradient>
    <linearGradient
      id="paint8_linear"
      x1="10400.4"
      y1="5398.36"
      x2="10399.5"
      y2="4876.85"
      gradientUnits="userSpaceOnUse"
    >
      <stop offset="0.01" />
      <stop offset="0.08" stop-opacity="0.69" />
      <stop offset="0.21" stop-opacity="0.32" />
      <stop offset="1" stop-opacity="0" />
    </linearGradient>
    <linearGradient
      id="paint9_linear"
      x1="84542.5"
      y1="42156"
      x2="88733.5"
      y2="75295.2"
      gradientUnits="userSpaceOnUse"
    >
      <stop offset="0.01" />
      <stop offset="0.08" stop-opacity="0.69" />
      <stop offset="0.21" stop-opacity="0.32" />
      <stop offset="1" stop-opacity="0" />
    </linearGradient>
    <linearGradient
      id="paint10_linear"
      x1="102787"
      y1="12061.4"
      x2="102800"
      y2="17358.3"
      gradientUnits="userSpaceOnUse"
    >
      <stop offset="0.01" />
      <stop offset="0.08" stop-opacity="0.69" />
      <stop offset="0.21" stop-opacity="0.32" />
      <stop offset="1" stop-opacity="0" />
    </linearGradient>
    <linearGradient
      id="paint11_linear"
      x1="2657.66"
      y1="48283.8"
      x2="3689.45"
      y2="48313"
      gradientUnits="userSpaceOnUse"
    >
      <stop offset="0.01" />
      <stop offset="0.08" stop-opacity="0.69" />
      <stop offset="0.21" stop-opacity="0.32" />
      <stop offset="1" stop-opacity="0" />
    </linearGradient>
    <linearGradient
      id="paint12_linear"
      x1="13523.2"
      y1="28134.2"
      x2="4450.59"
      y2="31129.4"
      gradientUnits="userSpaceOnUse"
    >
      <stop offset="0.01" />
      <stop offset="0.08" stop-opacity="0.69" />
      <stop offset="0.21" stop-opacity="0.32" />
      <stop offset="1" stop-opacity="0" />
    </linearGradient>
    <linearGradient
      id="paint13_linear"
      x1="5568.21"
      y1="2276.78"
      x2="5568.49"
      y2="2392.53"
      gradientUnits="userSpaceOnUse"
    >
      <stop offset="0.01" />
      <stop offset="0.08" stop-opacity="0.69" />
      <stop offset="0.21" stop-opacity="0.32" />
      <stop offset="1" stop-opacity="0" />
    </linearGradient>
    <clipPath id="clip0">
      <rect width="800" height="602.956" fill="white" />
    </clipPath>
  </defs>
</svg>
