<svg
  width="406"
  height="306"
  viewBox="0 0 406 306"
  fill="none"
  xmlns="http://www.w3.org/2000/svg"
>
  <path
    opacity="0.18"
    d="M386.976 238.949C383.736 254.947 376.597 270.055 364.399 280.653C344.551 297.911 315.585 299.901 289.519 296.341C263.452 292.782 237.935 284.553 211.599 284.583C176.873 284.583 146.397 306.43 113.532 305.99C83.2056 305.59 53.3495 288.392 36.1018 263.796C35.0686 262.329 34.0687 260.833 33.1022 259.306C32.8122 258.856 32.5423 258.396 32.2623 257.946C31.5224 256.716 30.8225 255.497 30.1526 254.257C29.8426 253.697 29.5426 253.117 29.2527 252.547C28.9627 251.977 28.6128 251.307 28.3028 250.677C28.3028 250.617 28.2428 250.577 28.2228 250.527C27.9029 249.897 27.6129 249.267 27.3129 248.617C24.5523 242.679 22.34 236.501 20.7038 230.16C14.677 206.903 15.8661 182.364 24.1134 159.799C24.8533 157.799 25.6532 155.8 26.523 153.8C30.7725 144.051 36.5717 134.922 44.5807 127.973C60.7386 113.975 83.3156 110.556 102.743 101.537C112.098 97.0806 120.894 91.5363 128.95 85.0189C157.246 62.5918 179.573 31.0959 211.469 13.5382C225.117 6.12526 240.17 1.65957 255.653 0.42994C281.637 -1.70963 307.643 4.29039 330.063 17.5977C381.747 48.5237 371.678 102.747 380.867 155.05C384.706 176.887 389.706 198.764 389.016 220.911C388.844 226.97 388.161 233.004 386.976 238.949Z"
    fill="#68E1FD"
  />
  <path d="M345.002 131.903H111.362V245.718H345.002V131.903Z" fill="#68E1FD" />
  <path
    d="M331.333 146.111H124.99V231.13H331.333V146.111Z"
    fill="url(#paint0_linear)"
  />
  <path
    d="M222.837 220.261C240.801 220.261 255.363 205.699 255.363 187.735C255.363 169.772 240.801 155.21 222.837 155.21C204.874 155.21 190.312 169.772 190.312 187.735C190.312 205.699 204.874 220.261 222.837 220.261Z"
    fill="#68E1FD"
  />
  <path
    d="M219.368 212.712L219.608 206.713C216.416 206.57 213.328 205.531 210.699 203.713L212.259 199.824C214.708 201.556 217.602 202.552 220.598 202.694C224.817 202.853 227.717 200.564 227.857 197.204C227.997 193.845 225.767 191.865 221.488 189.905C215.559 187.306 211.959 184.446 212.159 179.327C212.349 174.437 215.969 170.868 221.438 170.198L221.668 164.199L225.327 164.339L225.097 170.048C227.783 170.188 230.389 171.003 232.676 172.417L231.077 176.317C228.886 174.886 226.343 174.087 223.728 174.007C219.188 173.827 217.378 176.477 217.288 178.827C217.168 181.886 219.288 183.506 224.287 185.826C230.287 188.535 233.206 191.725 232.996 196.964C232.816 201.624 229.397 205.863 223.298 206.623L223.048 212.752L219.368 212.712Z"
    fill="url(#paint1_linear)"
  />
  <path
    d="M158.456 197.134C163.05 197.134 166.775 193.41 166.775 188.815C166.775 184.221 163.05 180.496 158.456 180.496C153.861 180.496 150.137 184.221 150.137 188.815C150.137 193.41 153.861 197.134 158.456 197.134Z"
    fill="#68E1FD"
  />
  <path
    d="M287.209 197.134C291.803 197.134 295.527 193.41 295.527 188.815C295.527 184.221 291.803 180.496 287.209 180.496C282.614 180.496 278.89 184.221 278.89 188.815C278.89 193.41 282.614 197.134 287.209 197.134Z"
    fill="#68E1FD"
  />
  <path
    d="M331.334 159.749C338.866 159.749 344.972 153.643 344.972 146.111C344.972 138.579 338.866 132.473 331.334 132.473C323.801 132.473 317.695 138.579 317.695 146.111C317.695 153.643 323.801 159.749 331.334 159.749Z"
    fill="#68E1FD"
  />
  <path
    d="M331.353 244.738C338.885 244.738 344.991 238.632 344.991 231.1C344.991 223.568 338.885 217.462 331.353 217.462C323.821 217.462 317.715 223.568 317.715 231.1C317.715 238.632 323.821 244.738 331.353 244.738Z"
    fill="#68E1FD"
  />
  <path
    d="M124.98 159.749C132.512 159.749 138.618 153.643 138.618 146.111C138.618 138.579 132.512 132.473 124.98 132.473C117.448 132.473 111.342 138.579 111.342 146.111C111.342 153.643 117.448 159.749 124.98 159.749Z"
    fill="#68E1FD"
  />
  <path
    d="M125.001 244.738C132.533 244.738 138.639 238.632 138.639 231.1C138.639 223.568 132.533 217.462 125.001 217.462C117.468 217.462 111.362 223.568 111.362 231.1C111.362 238.632 117.468 244.738 125.001 244.738Z"
    fill="#68E1FD"
  />
  <path
    d="M234.936 131.903C234.936 131.903 211.639 204.633 142.568 180.416L130.37 174.217L111.372 191.165V131.903H234.936Z"
    fill="url(#paint2_linear)"
  />
  <path
    d="M101.764 113.435C101.764 100.581 105.575 88.0156 112.717 77.3278C119.858 66.64 130.008 58.3099 141.884 53.3908C153.76 48.4718 166.827 47.1847 179.434 49.6925C192.042 52.2002 203.622 58.39 212.711 67.4792C221.8 76.5685 227.99 88.1488 230.498 100.756C233.006 113.363 231.719 126.431 226.799 138.306C221.88 150.182 213.55 160.332 202.863 167.474C192.175 174.615 179.609 178.427 166.755 178.427C149.527 178.398 133.013 171.541 120.831 159.359C108.649 147.177 101.793 130.663 101.764 113.435ZM109.473 113.435C109.473 124.771 112.834 135.851 119.132 145.276C125.429 154.701 134.38 162.047 144.853 166.385C155.325 170.723 166.849 171.858 177.966 169.646C189.084 167.435 199.296 161.977 207.311 153.961C215.327 145.946 220.785 135.734 222.996 124.616C225.208 113.499 224.073 101.975 219.735 91.5026C215.397 81.0301 208.051 72.0791 198.626 65.7816C189.201 59.484 178.121 56.1227 166.785 56.1227C151.59 56.1385 137.021 62.1819 126.277 72.9266C115.532 83.6714 109.489 98.2398 109.473 113.435Z"
    fill="#68E1FD"
  />
  <path
    d="M78.7267 209.753C79.6036 209.749 80.471 209.57 81.278 209.227C82.0849 208.883 82.8152 208.382 83.4261 207.753L126.03 164.508C126.639 163.891 127.12 163.159 127.446 162.355C127.772 161.552 127.936 160.692 127.93 159.825C127.923 158.957 127.746 158.1 127.408 157.301C127.07 156.503 126.578 155.778 125.96 155.17C125.343 154.561 124.611 154.08 123.807 153.754C123.004 153.428 122.144 153.264 121.277 153.271C120.409 153.277 119.552 153.454 118.753 153.792C117.955 154.13 117.23 154.622 116.622 155.24L74.0173 198.504C73.1024 199.432 72.4824 200.61 72.2352 201.89C71.988 203.169 72.1247 204.494 72.628 205.696C73.1313 206.898 73.9788 207.925 75.0639 208.646C76.1491 209.368 77.4234 209.753 78.7267 209.753Z"
    fill="#68E1FD"
  />
  <path
    d="M58.3084 223.491C59.779 224.936 61.7626 225.739 63.8243 225.724C65.8859 225.709 67.8576 224.877 69.307 223.411L119.47 172.507C119.748 172.226 120.003 171.921 120.23 171.598C120.359 171.427 120.48 171.25 120.59 171.068C120.948 170.465 121.109 169.766 121.052 169.067C120.995 168.368 120.722 167.705 120.27 167.168C119.3 166.01 118.24 164.93 117.101 163.939C115.788 162.773 114.365 161.739 112.851 160.849C112.233 160.481 111.514 160.316 110.797 160.377C110.08 160.438 109.4 160.722 108.852 161.189C108.699 161.308 108.555 161.438 108.422 161.579L58.2685 212.472C57.5449 213.197 56.9718 214.057 56.582 215.004C56.1922 215.951 55.9934 216.966 55.9971 217.99C56.0008 219.014 56.207 220.027 56.6036 220.971C57.0003 221.915 57.5797 222.771 58.3084 223.491Z"
    fill="#473F47"
  />
  <path
    d="M74.2665 266.155C74.9384 266.167 75.6078 266.241 76.2663 266.375C76.5933 266.448 76.9022 266.586 77.1738 266.782C77.4455 266.978 77.6742 267.227 77.8461 267.515C78.0691 268.067 78.0911 268.68 77.9084 269.246C77.7256 269.813 77.3497 270.297 76.8462 270.615C75.8153 271.184 74.6411 271.441 73.4666 271.355C72.7249 271.394 71.9837 271.268 71.2969 270.985C70.457 270.565 69.7471 269.685 68.8172 269.795C68.4119 269.886 68.0237 270.041 67.6674 270.255C66.9835 270.582 66.2013 270.638 65.4778 270.411C64.7544 270.185 64.1435 269.693 63.7679 269.035C63.5803 268.609 63.4751 268.15 63.4579 267.685C63.338 266.195 63.8279 264.475 65.1377 263.846C66.7075 263.096 67.6674 263.976 68.9172 264.685C70.5764 265.548 72.3996 266.049 74.2665 266.155Z"
    fill="#68E1FD"
  />
  <path
    d="M74.5372 258.056L69.5378 265.945C69.5378 265.945 67.3281 266.775 66.0083 265.945L64.6885 265.155L68.058 253.477L74.5372 258.056Z"
    fill="#FCBDBA"
  />
  <path
    d="M89.8845 200.404C89.8845 200.404 87.8348 223.011 86.8849 228.4C84.7852 239.949 75.3564 258.156 75.3564 258.156C75.3564 258.156 69.4272 259.526 67.9974 256.386L67.1875 254.597C67.1875 254.597 77.4262 230.45 71.7969 210.213C71.6465 209.617 71.5363 209.013 71.4669 208.403C71.1593 206.066 71.0656 203.707 71.187 201.354L89.8845 200.404Z"
    fill="#473F47"
  />
  <path
    d="M92.1546 269.095C92.8152 268.985 93.4848 268.938 94.1543 268.955C94.4944 268.969 94.8281 269.052 95.1355 269.198C95.443 269.344 95.7179 269.55 95.9441 269.805C96.2624 270.325 96.3877 270.94 96.2981 271.543C96.2086 272.147 95.9098 272.699 95.4542 273.104C94.5299 273.862 93.4034 274.331 92.2146 274.454C91.4776 274.623 90.7118 274.623 89.9749 274.454C89.055 274.184 88.1851 273.454 87.2852 273.704C86.89 273.869 86.525 274.099 86.2054 274.384C85.5842 274.846 84.8088 275.049 84.0411 274.952C83.2735 274.855 82.5729 274.465 82.0859 273.864C81.8235 273.468 81.6339 273.027 81.526 272.564C81.146 271.095 81.316 269.285 82.5259 268.415C83.9557 267.415 85.0755 268.095 86.4553 268.575C88.296 269.154 90.2395 269.331 92.1546 269.095Z"
    fill="#68E1FD"
  />
  <path
    d="M90.9549 260.896L87.3653 269.695C87.3653 269.695 85.3056 270.935 83.8358 270.385L82.376 269.835L83.6358 257.536L90.9549 260.896Z"
    fill="#FCBDBA"
  />
  <path
    d="M117.631 171.368C117.871 171.048 118.181 170.698 118.571 170.748C118.801 170.748 119.021 170.958 119.251 170.898C119.392 170.844 119.513 170.75 119.601 170.628C120.15 170.044 120.76 169.521 121.421 169.068C121.827 168.714 122.315 168.467 122.841 168.348C123.209 168.323 123.577 168.404 123.901 168.581C124.226 168.758 124.492 169.024 124.671 169.348C125.007 170.045 125.088 170.837 124.901 171.588C124.704 172.321 124.408 173.024 124.021 173.677C123.77 174.16 123.461 174.61 123.101 175.017C121.951 176.217 120.161 176.417 118.691 177.157C118.537 177.252 118.362 177.31 118.181 177.327C118.022 177.304 117.871 177.243 117.74 177.149C117.61 177.055 117.504 176.931 117.432 176.787C116.861 175.975 116.516 175.026 116.432 174.037C116.538 173.043 116.958 172.107 117.631 171.368Z"
    fill="#FCBDBA"
  />
  <path
    d="M103.333 161.829C103.507 161.78 103.692 161.798 103.853 161.879C103.943 161.952 104.024 162.036 104.093 162.129C104.403 162.469 104.913 162.479 105.323 162.659C105.585 162.797 105.814 162.989 105.997 163.221C106.179 163.454 106.311 163.722 106.383 164.009C106.527 164.591 106.591 165.19 106.573 165.789C106.6 166.106 106.566 166.425 106.473 166.729C106.426 166.878 106.334 167.009 106.211 167.105C106.088 167.201 105.939 167.258 105.783 167.269C105.533 167.23 105.296 167.13 105.093 166.979C104.676 166.748 104.192 166.671 103.723 166.759C103.117 166.949 102.539 167.218 102.003 167.559C101.731 167.721 101.42 167.806 101.103 167.806C100.786 167.806 100.476 167.721 100.203 167.559C99.9534 167.343 99.761 167.068 99.6433 166.759C99.1433 165.679 98.5833 164.439 99.5833 163.549C100.645 162.632 101.946 162.036 103.333 161.829Z"
    fill="#FCBDBA"
  />
  <path
    d="M95.954 200.434C95.954 200.434 97.9538 223.431 97.9538 228.99C97.9538 240.929 91.8046 260.866 91.8046 260.866C91.8046 260.866 86.1153 263.306 84.1256 260.416L82.9557 258.766C82.9557 258.766 88.8449 232.77 79.5562 213.522C79.2991 212.956 79.0851 212.371 78.9162 211.772C78.1847 209.492 77.6626 207.149 77.3564 204.773L95.954 200.434Z"
    fill="#473F47"
  />
  <path
    d="M93.1648 141.741C93.928 143.267 94.4154 144.916 94.6046 146.611C94.6912 147.461 94.552 148.32 94.2008 149.099C93.8497 149.879 93.2992 150.552 92.6048 151.05C92.1905 151.25 91.8012 151.499 91.445 151.79C90.2251 153.05 91.635 155.33 90.9151 156.959C90.6199 157.522 90.193 158.006 89.6706 158.368C89.1483 158.73 88.5461 158.96 87.9154 159.039C86.8901 159.136 85.8571 158.967 84.9158 158.549C84.62 158.467 84.3471 158.318 84.1183 158.113C83.8894 157.909 83.7107 157.654 83.596 157.369C83.5488 156.939 83.6071 156.503 83.766 156.1C84.6559 152.67 82.3662 149.1 82.7661 145.601C83.1361 142.601 86.4356 136.862 90.1052 137.392C92.0349 137.642 92.5448 140.312 93.1648 141.741Z"
    fill="#FCBDBA"
  />
  <path
    d="M118.551 178.067C118.551 178.067 104.553 190.535 103.603 190.535C102.653 190.535 98.2138 184.966 96.814 183.226L96.414 182.706L95.9141 200.434C94.1895 201.446 92.3952 202.335 90.5448 203.093C88.1074 204.156 85.5266 204.853 82.8858 205.163C82.0512 205.243 81.2108 205.243 80.3761 205.163C73.587 204.543 70.6074 202.274 70.6074 202.274L74.107 167.278C74.3277 164.801 75.2394 162.435 76.7383 160.45C78.2373 158.465 80.2633 156.94 82.5859 156.05C83.4544 155.639 84.4276 155.503 85.3755 155.66C87.3098 156.006 89.2904 156.006 91.2247 155.66C95.1242 155.14 99.1037 160.469 99.1037 160.469L104.293 177.467L116.461 173.137C117.272 173.647 117.907 174.392 118.281 175.274C118.655 176.155 118.749 177.13 118.551 178.067Z"
    fill="#68E1FD"
  />
  <path
    d="M91.2845 140.012C90.4946 140.742 89.7047 141.202 89.3647 142.281C89.1402 143.088 89.059 143.927 89.1248 144.761C88.9848 144.761 88.8748 144.651 88.8148 144.511C88.793 144.371 88.7264 144.241 88.6248 144.141C88.5787 144.119 88.5283 144.106 88.4769 144.105C88.4256 144.103 88.3745 144.113 88.3272 144.133C88.2798 144.152 88.2372 144.182 88.2024 144.22C88.1675 144.258 88.1411 144.302 88.1249 144.351C88.0592 144.553 88.0592 144.77 88.1249 144.971C88.4548 146.301 88.8948 147.591 89.1248 148.971C89.1248 149.121 89.1248 149.291 89.2047 149.44C89.2772 149.88 89.2533 150.331 89.1348 150.76C88.9738 151.17 88.7286 151.541 88.4148 151.85C88.228 152.106 87.9938 152.323 87.7249 152.49C87.4731 152.615 87.2032 152.699 86.925 152.74C86.0234 152.845 85.1115 152.825 84.2154 152.68C83.4577 152.602 82.7162 152.409 82.0157 152.11C81.5796 151.898 81.1616 151.65 80.7658 151.37C79.8071 150.721 78.9101 149.984 78.0862 149.171C76.0865 147.301 75.4265 143.561 75.4665 140.942C75.4665 140.672 75.4665 140.392 75.4665 140.112C75.5305 139.291 75.7194 138.485 76.0265 137.722C76.845 135.989 78.2217 134.58 79.936 133.723C83.4355 131.833 88.6448 130.873 91.9344 133.903C92.1026 134.053 92.2505 134.224 92.3743 134.412C93.4042 135.952 92.5143 138.872 91.2845 140.012Z"
    fill="#F6A569"
  />
  <path
    d="M89.1445 150.72C88.9836 151.13 88.7383 151.501 88.4246 151.81C88.2378 152.066 88.0036 152.283 87.7347 152.45C87.4829 152.575 87.2129 152.659 86.9348 152.7C86.0332 152.805 85.1213 152.785 84.2252 152.64C83.4675 152.562 82.7259 152.369 82.0255 152.07C81.5894 151.858 81.1714 151.61 80.7756 151.33C79.8169 150.681 78.9199 149.944 78.096 149.13C76.0962 147.261 75.4363 143.521 75.4763 140.902C75.4763 140.632 75.4763 140.352 75.4763 140.072C76.2262 139.492 77.1361 139.162 77.786 139.852C78.1973 140.473 78.4827 141.17 78.6259 141.901C78.9436 142.762 79.3385 143.592 79.8057 144.381C80.2435 145.182 80.8307 145.891 81.5355 146.471C82.7816 147.306 84.2129 147.824 85.705 147.981C85.8176 147.344 85.7625 146.689 85.545 146.081C86.2355 146.898 87.0484 147.603 87.9547 148.171C88.3546 148.431 88.7846 148.671 89.1845 148.971C89.1845 149.12 89.1845 149.29 89.2645 149.44C89.315 149.871 89.2741 150.307 89.1445 150.72Z"
    fill="url(#paint3_linear)"
  />
  <path
    d="M76.6173 136.482C76.1118 136.262 75.5756 136.12 75.0273 136.062C74.9251 136.034 74.8175 136.032 74.7143 136.057C74.6112 136.081 74.5159 136.131 74.4373 136.202C73.558 137.002 72.988 138.085 72.8273 139.262C72.6826 139.755 72.6826 140.279 72.8273 140.772C72.9575 141.088 73.1636 141.366 73.4273 141.582C73.9602 142.064 74.6426 142.348 75.36 142.386C76.0775 142.424 76.7862 142.215 77.3673 141.792C78.8573 140.502 78.4073 137.342 76.6173 136.482Z"
    fill="#68E1FD"
  />
  <path
    d="M67.0879 163.019C67.1191 162.691 67.2364 162.377 67.4279 162.109C67.2976 162.406 67.1841 162.709 67.0879 163.019Z"
    fill="#F6A569"
  />
  <path
    d="M73.4865 156.17C73.5177 155.639 73.4397 155.109 73.2574 154.61C73.0751 154.111 72.7923 153.655 72.4266 153.27C72.7535 154.559 72.684 155.916 72.2274 157.165C71.7707 158.413 70.9481 159.495 69.867 160.269C69.307 160.649 68.6771 160.949 68.1472 161.369C67.8785 161.583 67.6398 161.832 67.4373 162.109C67.8873 161.208 68.1814 160.238 68.3072 159.239C68.3384 158.876 68.2872 158.51 68.1572 158.169C68.0895 158 67.9913 157.844 67.8672 157.709C67.6829 157.507 67.4859 157.317 67.2773 157.139C65.6599 155.58 64.2121 153.854 62.9579 151.99C61.3561 150.065 60.1285 147.857 59.3383 145.481C58.8126 143.311 58.8956 141.038 59.5783 138.912C60.1632 136.713 61.4262 134.753 63.1878 133.313C64.2065 132.636 65.3635 132.195 66.5744 132.022C67.7852 131.849 69.0194 131.948 70.1869 132.313C70.1869 132.313 76.2361 133.483 75.3062 138.012C75.0663 139.152 74.7963 140.222 74.5963 141.242C73.9564 144.301 73.7664 146.961 76.0861 149.98C77.5859 151.87 75.7362 155.23 73.4865 156.17Z"
    fill="#F6A569"
  />
  <path
    d="M67.0879 163.019C67.1191 162.691 67.2364 162.377 67.4279 162.109C67.2976 162.406 67.1841 162.709 67.0879 163.019Z"
    fill="url(#paint4_linear)"
  />
  <path
    d="M73.4867 156.17C73.5179 155.639 73.4399 155.109 73.2576 154.61C73.0753 154.111 72.7926 153.655 72.4268 153.27C72.7537 154.559 72.6842 155.916 72.2276 157.165C71.7709 158.413 70.9483 159.495 69.8672 160.269C69.3073 160.649 68.6773 160.949 68.1474 161.369C67.8788 161.583 67.64 161.832 67.4375 162.109C67.8875 161.208 68.1816 160.238 68.3074 159.239C68.3387 158.876 68.2874 158.51 68.1574 158.169C68.0898 158 67.9915 157.844 67.8674 157.709C68.6085 156.439 69.0337 155.009 69.1073 153.54C69.1973 150.54 67.4175 147.611 67.7075 144.541C68.6701 146.069 69.9741 147.352 71.517 148.291C70.867 146.641 72.6068 140.472 74.6066 141.162C73.9666 144.221 73.7767 146.881 76.0964 149.9C77.5862 151.87 75.7364 155.23 73.4867 156.17Z"
    fill="url(#paint5_linear)"
  />
  <path
    d="M96.8139 183.226L96.414 182.706L95.914 200.434C94.1894 201.446 92.3951 202.335 90.5447 203.093C88.1073 204.156 85.5266 204.853 82.8857 205.163C83.0387 203.079 83.9367 201.12 85.4154 199.644C86.3553 198.714 87.5251 197.994 88.415 196.994C89.5081 195.601 90.2582 193.971 90.6047 192.235C92.3045 185.576 92.1345 178.607 91.9646 171.748C92.9644 174.317 93.9643 176.917 94.9642 179.447C95.5241 180.736 96.354 181.906 96.8139 183.226Z"
    fill="url(#paint6_linear)"
  />
  <path
    d="M234.926 131.903L282.67 81.4394L266.542 66.5613L320.815 67.4812L323.274 113.435L310.256 102.207L280.19 131.903H234.926Z"
    fill="#68E1FD"
  />
  <path
    d="M234.926 131.903L282.67 81.4394L266.542 66.5613L320.815 67.4812L323.274 113.435L310.256 102.207L280.19 131.903H234.926Z"
    fill="url(#paint7_linear)"
  />
  <defs>
    <linearGradient
      id="paint0_linear"
      x1="230.556"
      y1="-33.9556"
      x2="223.117"
      y2="656.644"
      gradientUnits="userSpaceOnUse"
    >
      <stop offset="0.01" />
      <stop offset="0.13" stop-opacity="0.69" />
      <stop offset="0.25" stop-opacity="0.32" />
      <stop offset="1" stop-opacity="0" />
    </linearGradient>
    <linearGradient
      id="paint1_linear"
      x1="3900.16"
      y1="3460.02"
      x2="20583.9"
      y2="21511.3"
      gradientUnits="userSpaceOnUse"
    >
      <stop offset="0.01" />
      <stop offset="0.13" stop-opacity="0.69" />
      <stop offset="0.25" stop-opacity="0.32" />
      <stop offset="1" stop-opacity="0" />
    </linearGradient>
    <linearGradient
      id="paint2_linear"
      x1="14814.2"
      y1="720.97"
      x2="20289.9"
      y2="34733.4"
      gradientUnits="userSpaceOnUse"
    >
      <stop offset="0.01" />
      <stop offset="0.13" stop-opacity="0.69" />
      <stop offset="0.25" stop-opacity="0.32" />
      <stop offset="1" stop-opacity="0" />
    </linearGradient>
    <linearGradient
      id="paint3_linear"
      x1="1334.89"
      y1="2225.89"
      x2="1161.37"
      y2="2614.36"
      gradientUnits="userSpaceOnUse"
    >
      <stop offset="0.01" />
      <stop offset="0.13" stop-opacity="0.69" />
      <stop offset="0.25" stop-opacity="0.32" />
      <stop offset="1" stop-opacity="0" />
    </linearGradient>
    <linearGradient
      id="paint4_linear"
      x1="91.1976"
      y1="329.522"
      x2="91.7463"
      y2="329.749"
      gradientUnits="userSpaceOnUse"
    >
      <stop offset="0.01" />
      <stop offset="0.13" stop-opacity="0.69" />
      <stop offset="0.25" stop-opacity="0.32" />
      <stop offset="1" stop-opacity="0" />
    </linearGradient>
    <linearGradient
      id="paint5_linear"
      x1="660.579"
      y1="3142.76"
      x2="1454.86"
      y2="4148.38"
      gradientUnits="userSpaceOnUse"
    >
      <stop offset="0.01" />
      <stop offset="0.13" stop-opacity="0.69" />
      <stop offset="0.25" stop-opacity="0.32" />
      <stop offset="1" stop-opacity="0" />
    </linearGradient>
    <linearGradient
      id="paint6_linear"
      x1="1143.24"
      y1="6626.31"
      x2="2167.14"
      y2="7102.95"
      gradientUnits="userSpaceOnUse"
    >
      <stop offset="0.01" />
      <stop offset="0.13" stop-opacity="0.69" />
      <stop offset="0.25" stop-opacity="0.32" />
      <stop offset="1" stop-opacity="0" />
    </linearGradient>
    <linearGradient
      id="paint7_linear"
      x1="18880"
      y1="13431.5"
      x2="27043.6"
      y2="-5439.2"
      gradientUnits="userSpaceOnUse"
    >
      <stop offset="0.01" />
      <stop offset="0.13" stop-opacity="0.69" />
      <stop offset="0.25" stop-opacity="0.32" />
      <stop offset="1" stop-opacity="0" />
    </linearGradient>
  </defs>
</svg>
