<svg
  width="800"
  height="603"
  viewBox="0 0 800 603"
  fill="none"
  xmlns="http://www.w3.org/2000/svg"
>
  <path
    d="M578.68 440.438L610.18 457.678V212.978L634.94 227.238L596.12 137.158L554.8 183.318L579.96 197.038L578.68 440.438Z"
    fill="#68E1FD"
  />
  <path
    d="M495.28 366.898L526.78 384.138V139.438L551.54 153.698L512.72 63.6178L471.4 109.778L496.56 123.498L495.28 366.898Z"
    fill="#68E1FD"
  />
  <path
    d="M59.58 310.438L330.8 152.718C332.749 151.593 334.96 151 337.21 151C339.46 151 341.671 151.593 343.62 152.718L749.18 384.818C751.137 385.941 752.763 387.56 753.894 389.513C755.025 391.465 755.62 393.682 755.62 395.938C755.62 398.194 755.025 400.411 753.894 402.363C752.763 404.316 751.137 405.935 749.18 407.058L489.86 556.798C483.496 560.472 476.278 562.406 468.93 562.406C461.582 562.406 454.364 560.472 448 556.798L59.62 332.638C57.6702 331.516 56.05 329.901 54.9221 327.954C53.7942 326.008 53.1983 323.799 53.1942 321.549C53.1902 319.3 53.7781 317.089 54.899 315.138C56.0199 313.188 57.6343 311.567 59.58 310.438Z"
    fill="#146666"
  />
  <path
    d="M182.96 155.698C193.874 156.232 204.597 158.761 214.6 163.158C230.6 170.358 182.96 183.378 182.96 183.378"
    fill="#F2AE16"
  />
  <path
    d="M224.428 225.417C234.189 197.166 221.188 167.039 195.391 158.126C169.593 149.213 140.767 164.889 131.007 193.14C121.246 221.391 134.246 251.519 160.044 260.432C185.841 269.345 214.667 253.668 224.428 225.417Z"
    fill="#F2AE16"
  />
  <path
    d="M239.198 228.659C248.959 200.408 235.958 170.281 210.161 161.368C184.363 152.454 155.537 168.131 145.777 196.382C136.016 224.633 149.016 254.76 174.814 263.674C200.611 272.587 229.437 256.91 239.198 228.659Z"
    fill="#FFD008"
  />
  <path
    d="M235.302 226.607C243.945 201.728 232.534 175.161 209.816 167.269C187.098 159.378 161.675 173.15 153.032 198.029C144.39 222.909 155.801 249.476 178.519 257.367C201.237 265.259 226.66 251.487 235.302 226.607Z"
    stroke="#F7931E"
    stroke-width="1.02077"
    stroke-miterlimit="10"
  />
  <path
    d="M212.92 216.698C210.04 210.798 203.76 208.258 197.6 207.298C197.44 201.965 197.247 196.631 197.02 191.298C198.418 191.487 199.792 191.822 201.12 192.298C205.12 193.758 206.9 187.318 202.9 185.878C200.901 185.195 198.811 184.817 196.7 184.758C196.56 181.818 196.42 178.878 196.26 175.938C196.02 171.678 189.34 171.638 189.6 175.938C189.78 179.058 189.92 182.178 190.06 185.298C180.56 187.298 171.76 193.958 173.7 204.458C175.12 212.178 182.54 212.998 189.12 213.338H191.12C191.24 218.391 191.327 223.445 191.38 228.498C188.474 227.919 185.618 227.11 182.84 226.078C178.84 224.578 177.08 231.018 181.06 232.498C184.411 233.752 187.883 234.657 191.42 235.198C191.42 236.938 191.42 238.678 191.42 240.438C191.485 241.276 191.864 242.06 192.481 242.631C193.099 243.202 193.909 243.52 194.75 243.52C195.591 243.52 196.401 243.202 197.019 242.631C197.636 242.06 198.015 241.276 198.08 240.438C198.08 238.818 198.08 237.218 198.08 235.598C201.69 235.551 205.231 234.603 208.38 232.838C211.067 231.248 213.038 228.683 213.884 225.678C214.729 222.672 214.384 219.456 212.92 216.698ZM186.12 206.598C180.26 203.898 179.56 199.118 184.12 195.078C185.912 193.484 188.058 192.339 190.38 191.738C190.607 196.845 190.787 201.945 190.92 207.038C189.307 207.181 187.681 207.032 186.12 206.598ZM205 227.178C202.932 228.541 200.496 229.239 198.02 229.178C198.02 224.125 197.94 219.071 197.78 214.018C198.36 214.138 198.96 214.238 199.54 214.398C204.52 215.878 212 221.938 205 227.178Z"
    fill="#F7931E"
  />
  <path
    d="M405.48 419.338C472.881 419.338 527.52 387.326 527.52 347.838C527.52 308.35 472.881 276.338 405.48 276.338C338.079 276.338 283.44 308.35 283.44 347.838C283.44 387.326 338.079 419.338 405.48 419.338Z"
    fill="#FF912E"
  />
  <path
    d="M283.44 347.858V327.198L296.74 343.698L283.44 347.858Z"
    fill="#E0944F"
  />
  <path
    d="M527.52 327.198V347.858H512.04L523.38 331.278L527.52 327.198Z"
    fill="#E0944F"
  />
  <path
    d="M405.48 398.698C472.881 398.698 527.52 366.686 527.52 327.198C527.52 287.709 472.881 255.698 405.48 255.698C338.079 255.698 283.44 287.709 283.44 327.198C283.44 366.686 338.079 398.698 405.48 398.698Z"
    fill="#FFB92C"
  />
  <path
    d="M467.38 317.638C468.226 319.311 468.559 321.196 468.34 323.058L467.86 324.958L445.58 325.138C445.781 324.519 445.921 323.883 446 323.238C445.903 321.812 445.442 320.434 444.66 319.238C443.417 317.072 441.539 315.341 439.28 314.278C436.042 312.593 432.468 311.657 428.82 311.538C425.415 311.281 421.995 311.801 418.82 313.058C415.7 314.391 414.5 316.144 415.22 318.318C416.266 320.966 417.885 323.349 419.96 325.298C422.368 327.745 424.626 330.337 426.72 333.058C427.717 334.229 428.361 335.659 428.577 337.181C428.793 338.703 428.572 340.256 427.94 341.658C426.687 344.698 423.08 347.511 417.12 350.098C409.636 353.218 401.627 354.888 393.52 355.018C384.767 355.311 376.031 354.079 367.7 351.378L354.9 356.878L340 349.478L352.46 344.138C350.215 342.654 348.194 340.856 346.46 338.798C345.183 337.332 344.187 335.644 343.52 333.818C343.101 332.521 342.846 331.178 342.76 329.818C342.679 328.872 342.753 327.919 342.98 326.998L343.42 325.938H365.7C365.471 326.679 365.29 327.433 365.16 328.198C365.26 330.023 365.885 331.78 366.96 333.258C368.746 336.034 371.314 338.219 374.34 339.538C378.365 341.566 382.777 342.712 387.28 342.898C391.38 343.154 395.485 342.47 399.28 340.898C402.36 339.564 403.52 337.824 402.76 335.678C401.664 333.012 399.982 330.627 397.84 328.698C395.383 326.286 393.104 323.699 391.02 320.958C390.048 319.765 389.441 318.318 389.27 316.789C389.1 315.26 389.374 313.715 390.06 312.338C391.393 309.258 395.18 306.398 401.42 303.758C408.599 300.866 416.261 299.359 424 299.318C432.218 299.041 440.415 300.317 448.16 303.078L460.94 297.598L474.94 305.218L462.14 310.718C464.418 312.569 466.216 314.943 467.38 317.638Z"
    fill="#EA8B24"
  />
  <path
    d="M405.7 388.078C462.276 388.078 508.14 361.206 508.14 328.058C508.14 294.91 462.276 268.038 405.7 268.038C349.124 268.038 303.26 294.91 303.26 328.058C303.26 361.206 349.124 388.078 405.7 388.078Z"
    stroke="#F7931E"
    stroke-width="2.03"
    stroke-miterlimit="10"
  />
  <path
    d="M662.52 427.058C686.699 427.058 706.3 415.578 706.3 401.418C706.3 387.257 686.699 375.778 662.52 375.778C638.341 375.778 618.74 387.257 618.74 401.418C618.74 415.578 638.341 427.058 662.52 427.058Z"
    fill="#FF912E"
  />
  <path
    d="M618.74 401.418V393.998L623.5 399.918L618.74 401.418Z"
    fill="#E0944F"
  />
  <path
    d="M706.3 393.998V401.418H700.74L704.82 395.458L706.3 393.998Z"
    fill="#E0944F"
  />
  <path
    d="M662.52 419.638C686.699 419.638 706.3 408.158 706.3 393.998C706.3 379.837 686.699 368.358 662.52 368.358C638.341 368.358 618.74 379.837 618.74 393.998C618.74 408.158 638.341 419.638 662.52 419.638Z"
    fill="#FFB92C"
  />
  <path
    d="M684.72 390.578C685.033 391.195 685.152 391.892 685.06 392.578L684.88 393.258H676.88C676.948 393.036 676.995 392.809 677.02 392.578C676.99 392.058 676.825 391.554 676.54 391.118C676.075 390.33 675.376 389.708 674.54 389.338C673.376 388.733 672.091 388.398 670.78 388.358C669.568 388.265 668.35 388.45 667.22 388.898C666.1 389.378 665.667 390.005 665.92 390.778C666.295 391.726 666.876 392.58 667.62 393.278C668.482 394.155 669.29 395.083 670.04 396.058C670.396 396.478 670.626 396.989 670.704 397.534C670.782 398.079 670.704 398.635 670.48 399.138C669.603 400.588 668.221 401.664 666.6 402.158C663.916 403.274 661.046 403.871 658.14 403.918C655.001 404.025 651.868 403.585 648.88 402.618L644.28 404.618L638.9 401.998L643.36 399.998C642.552 399.44 641.831 398.766 641.22 397.998C640.761 397.475 640.401 396.871 640.16 396.218C640.007 395.752 639.913 395.268 639.88 394.778C639.826 394.447 639.826 394.109 639.88 393.778L640.04 393.398H648.04C647.956 393.66 647.889 393.927 647.84 394.198C647.873 394.854 648.095 395.486 648.48 396.018C649.118 397.015 650.036 397.801 651.12 398.278C652.564 399.003 654.146 399.412 655.76 399.478C657.22 399.578 658.683 399.346 660.04 398.798C661.147 398.318 661.56 397.691 661.28 396.918C660.888 395.963 660.286 395.109 659.52 394.418C658.641 393.551 657.825 392.622 657.08 391.638C656.729 391.21 656.511 390.689 656.45 390.138C656.39 389.588 656.491 389.032 656.74 388.538C657.675 387.078 659.089 385.988 660.74 385.458C663.321 384.416 666.076 383.873 668.86 383.858C671.805 383.757 674.743 384.211 677.52 385.198L682.1 383.198L687.12 385.938L682.52 387.938C683.476 388.606 684.235 389.518 684.72 390.578Z"
    fill="#EA8B24"
  />
  <path
    d="M662.6 415.838C682.891 415.838 699.34 406.203 699.34 394.318C699.34 382.433 682.891 372.798 662.6 372.798C642.309 372.798 625.86 382.433 625.86 394.318C625.86 406.203 642.309 415.838 662.6 415.838Z"
    stroke="#F7931E"
    stroke-width="2.03"
    stroke-miterlimit="10"
  />
  <path
    d="M662.44 412.618C686.619 412.618 706.22 401.138 706.22 386.978C706.22 372.817 686.619 361.338 662.44 361.338C638.261 361.338 618.66 372.817 618.66 386.978C618.66 401.138 638.261 412.618 662.44 412.618Z"
    fill="#FF912E"
  />
  <path
    d="M618.66 386.978V379.558L623.44 385.478L618.66 386.978Z"
    fill="#E0944F"
  />
  <path
    d="M706.22 379.558V386.978H700.66L704.74 381.018L706.22 379.558Z"
    fill="#E0944F"
  />
  <path
    d="M662.44 405.198C686.619 405.198 706.22 393.718 706.22 379.558C706.22 365.397 686.619 353.918 662.44 353.918C638.261 353.918 618.66 365.397 618.66 379.558C618.66 393.718 638.261 405.198 662.44 405.198Z"
    fill="#FFB92C"
  />
  <path
    d="M684.64 376.138C684.953 376.755 685.072 377.452 684.98 378.138L684.8 378.818H676.8C676.868 378.596 676.915 378.368 676.94 378.138C676.91 377.618 676.745 377.114 676.46 376.678C675.995 375.89 675.296 375.268 674.46 374.898C673.296 374.293 672.011 373.958 670.7 373.918C669.488 373.825 668.27 374.01 667.14 374.458C666.02 374.938 665.587 375.565 665.84 376.338C666.216 377.286 666.796 378.14 667.54 378.838C668.402 379.715 669.21 380.643 669.96 381.618C670.316 382.038 670.547 382.549 670.624 383.094C670.702 383.639 670.624 384.195 670.4 384.698C669.523 386.148 668.141 387.223 666.52 387.718C663.837 388.834 660.966 389.431 658.06 389.478C654.921 389.585 651.788 389.145 648.8 388.178L644.2 390.178L638.92 387.478L643.38 385.478C642.572 384.92 641.851 384.246 641.24 383.478C640.781 382.955 640.421 382.351 640.18 381.698C640.027 381.231 639.933 380.748 639.9 380.258C639.846 379.927 639.846 379.589 639.9 379.258L640.06 378.878H648.06C647.976 379.14 647.909 379.407 647.86 379.678C647.893 380.334 648.115 380.966 648.5 381.498C649.138 382.495 650.056 383.281 651.14 383.758C652.584 384.483 654.166 384.892 655.78 384.958C657.24 385.058 658.703 384.826 660.06 384.278C661.167 383.798 661.58 383.171 661.3 382.398C660.908 381.443 660.306 380.589 659.54 379.898C658.661 379.031 657.845 378.102 657.1 377.118C656.749 376.689 656.531 376.169 656.47 375.618C656.41 375.068 656.511 374.512 656.76 374.018C657.695 372.558 659.109 371.468 660.76 370.938C663.341 369.896 666.096 369.353 668.88 369.338C671.825 369.237 674.763 369.691 677.54 370.678L682.12 368.678L687.14 371.418L682.54 373.418C683.47 374.121 684.195 375.06 684.64 376.138Z"
    fill="#EA8B24"
  />
  <path
    d="M662.52 401.398C682.811 401.398 699.26 391.763 699.26 379.878C699.26 367.993 682.811 358.358 662.52 358.358C642.229 358.358 625.78 367.993 625.78 379.878C625.78 391.763 642.229 401.398 662.52 401.398Z"
    stroke="#F7931E"
    stroke-width="2.03"
    stroke-miterlimit="10"
  />
  <path
    d="M663.2 398.178C687.379 398.178 706.98 386.699 706.98 372.538C706.98 358.377 687.379 346.898 663.2 346.898C639.021 346.898 619.42 358.377 619.42 372.538C619.42 386.699 639.021 398.178 663.2 398.178Z"
    fill="#FF912E"
  />
  <path
    d="M619.44 372.538V365.118L624.2 371.038L619.44 372.538Z"
    fill="#E0944F"
  />
  <path
    d="M706.98 365.118V372.538H701.44L705.5 366.578L706.98 365.118Z"
    fill="#E0944F"
  />
  <path
    d="M663.2 390.758C687.379 390.758 706.98 379.279 706.98 365.118C706.98 350.957 687.379 339.478 663.2 339.478C639.021 339.478 619.42 350.957 619.42 365.118C619.42 379.279 639.021 390.758 663.2 390.758Z"
    fill="#FFB92C"
  />
  <path
    d="M685.42 361.698C685.733 362.315 685.852 363.012 685.76 363.698L685.58 364.378H677.58C677.648 364.156 677.695 363.929 677.72 363.698C677.69 363.178 677.525 362.674 677.24 362.238C676.775 361.45 676.076 360.828 675.24 360.458C674.076 359.853 672.791 359.518 671.48 359.478C670.268 359.385 669.05 359.57 667.92 360.018C666.8 360.498 666.367 361.125 666.62 361.898C666.995 362.846 667.576 363.7 668.32 364.398C669.182 365.275 669.99 366.203 670.74 367.178C671.096 367.598 671.327 368.109 671.404 368.654C671.482 369.199 671.404 369.755 671.18 370.258C670.303 371.708 668.921 372.784 667.3 373.278C664.617 374.394 661.746 374.991 658.84 375.038C655.701 375.145 652.568 374.705 649.58 373.738L644.98 375.738L639.6 373.118L644.06 371.118C643.252 370.56 642.531 369.886 641.92 369.118C641.461 368.595 641.101 367.991 640.86 367.338C640.707 366.872 640.613 366.388 640.58 365.898C640.526 365.567 640.526 365.229 640.58 364.898L640.74 364.518H648.74C648.656 364.78 648.589 365.047 648.54 365.318C648.573 365.974 648.795 366.606 649.18 367.138C649.853 368.193 650.839 369.011 652 369.478C653.444 370.203 655.026 370.612 656.64 370.678C658.1 370.778 659.563 370.546 660.92 369.998C662.027 369.518 662.44 368.891 662.16 368.118C661.768 367.163 661.166 366.309 660.4 365.618C659.521 364.751 658.705 363.822 657.96 362.838C657.609 362.41 657.391 361.889 657.33 361.338C657.27 360.788 657.371 360.232 657.62 359.738C658.555 358.278 659.969 357.189 661.62 356.658C664.201 355.616 666.956 355.073 669.74 355.058C672.685 354.957 675.623 355.411 678.4 356.398L682.98 354.398L688 357.138L683.4 359.138C684.279 359.807 684.974 360.688 685.42 361.698Z"
    fill="#EA8B24"
  />
  <path
    d="M663.28 386.958C683.571 386.958 700.02 377.323 700.02 365.438C700.02 353.553 683.571 343.918 663.28 343.918C642.989 343.918 626.54 353.553 626.54 365.438C626.54 377.323 642.989 386.958 663.28 386.958Z"
    stroke="#F7931E"
    stroke-width="2.03"
    stroke-miterlimit="10"
  />
  <path
    d="M663.14 383.738C687.319 383.738 706.92 372.259 706.92 358.098C706.92 343.937 687.319 332.458 663.14 332.458C638.961 332.458 619.36 343.937 619.36 358.098C619.36 372.259 638.961 383.738 663.14 383.738Z"
    fill="#FF912E"
  />
  <path
    d="M619.36 358.098V350.678L624.12 356.598L619.36 358.098Z"
    fill="#E0944F"
  />
  <path
    d="M706.9 350.678V358.098H701.36L705.42 352.138L706.9 350.678Z"
    fill="#E0944F"
  />
  <path
    d="M663.14 376.318C687.319 376.318 706.92 364.838 706.92 350.678C706.92 336.517 687.319 325.038 663.14 325.038C638.961 325.038 619.36 336.517 619.36 350.678C619.36 364.838 638.961 376.318 663.14 376.318Z"
    fill="#FFB92C"
  />
  <path
    d="M685.34 347.258C685.653 347.875 685.771 348.572 685.68 349.258L685.5 349.938H677.5C677.568 349.716 677.615 349.489 677.64 349.258C677.61 348.738 677.445 348.234 677.16 347.798C676.695 347.01 675.996 346.388 675.16 346.018C673.996 345.413 672.711 345.078 671.4 345.038C670.188 344.945 668.97 345.13 667.84 345.578C666.72 346.058 666.287 346.685 666.54 347.458C666.915 348.406 667.496 349.26 668.24 349.958C669.102 350.835 669.91 351.763 670.66 352.738C671.016 353.158 671.246 353.669 671.324 354.214C671.402 354.759 671.324 355.315 671.1 355.818C670.223 357.268 668.841 358.344 667.22 358.838C664.536 359.954 661.666 360.551 658.76 360.598C655.621 360.705 652.488 360.265 649.5 359.298L644.9 361.298L639.52 358.678L643.98 356.678C643.172 356.12 642.451 355.446 641.84 354.678C641.38 354.155 641.021 353.551 640.78 352.898C640.627 352.432 640.533 351.948 640.5 351.458C640.446 351.127 640.446 350.789 640.5 350.458L640.66 350.078H648.66C648.576 350.34 648.509 350.607 648.46 350.878C648.493 351.534 648.715 352.166 649.1 352.698C649.738 353.695 650.656 354.482 651.74 354.958C653.184 355.683 654.766 356.092 656.38 356.158C657.84 356.258 659.303 356.026 660.66 355.478C661.767 354.998 662.18 354.371 661.9 353.598C661.508 352.643 660.906 351.789 660.14 351.098C659.261 350.231 658.445 349.302 657.7 348.318C657.349 347.89 657.131 347.369 657.07 346.818C657.01 346.268 657.111 345.712 657.36 345.218C658.295 343.758 659.709 342.669 661.36 342.138C663.941 341.096 666.696 340.553 669.48 340.538C672.425 340.437 675.363 340.891 678.14 341.878L682.72 339.878L687.74 342.618L683.14 344.618C684.096 345.286 684.855 346.198 685.34 347.258Z"
    fill="#EA8B24"
  />
  <path
    d="M663.2 372.518C683.491 372.518 699.94 362.883 699.94 350.998C699.94 339.113 683.491 329.478 663.2 329.478C642.909 329.478 626.46 339.113 626.46 350.998C626.46 362.883 642.909 372.518 663.2 372.518Z"
    stroke="#F7931E"
    stroke-width="2.03"
    stroke-miterlimit="10"
  />
  <path
    d="M663.24 369.298C687.419 369.298 707.02 357.818 707.02 343.658C707.02 329.497 687.419 318.018 663.24 318.018C639.061 318.018 619.46 329.497 619.46 343.658C619.46 357.818 639.061 369.298 663.24 369.298Z"
    fill="#FF912E"
  />
  <path
    d="M619.48 343.658V336.238L624.24 342.158L619.48 343.658Z"
    fill="#E0944F"
  />
  <path
    d="M707.02 336.238V343.658H701.48L705.54 337.698L707.02 336.238Z"
    fill="#E0944F"
  />
  <path
    d="M663.24 361.878C687.419 361.878 707.02 350.398 707.02 336.238C707.02 322.077 687.419 310.598 663.24 310.598C639.061 310.598 619.46 322.077 619.46 336.238C619.46 350.398 639.061 361.878 663.24 361.878Z"
    fill="#FFB92C"
  />
  <path
    d="M685.46 332.818C685.773 333.435 685.892 334.132 685.8 334.818L685.62 335.498H677.62C677.688 335.276 677.735 335.048 677.76 334.818C677.73 334.297 677.565 333.794 677.28 333.358C676.815 332.57 676.116 331.948 675.28 331.578C674.116 330.973 672.831 330.638 671.52 330.598C670.308 330.505 669.09 330.69 667.96 331.138C666.84 331.618 666.407 332.244 666.66 333.018C667.035 333.966 667.616 334.82 668.36 335.518C669.222 336.395 670.03 337.323 670.78 338.298C671.136 338.717 671.367 339.229 671.444 339.774C671.522 340.319 671.444 340.875 671.22 341.378C670.343 342.828 668.961 343.903 667.34 344.398C664.657 345.514 661.786 346.111 658.88 346.158C655.741 346.265 652.608 345.825 649.62 344.858L645.02 346.858L639.64 344.238L644.1 342.238C643.292 341.68 642.571 341.006 641.96 340.238C641.501 339.714 641.141 339.111 640.9 338.458C640.747 337.991 640.653 337.508 640.62 337.018C640.566 336.687 640.566 336.349 640.62 336.018L640.78 335.638H648.78C648.696 335.9 648.629 336.167 648.58 336.438C648.613 337.093 648.835 337.726 649.22 338.258C649.858 339.255 650.776 340.041 651.86 340.518C653.304 341.243 654.886 341.652 656.5 341.718C657.96 341.818 659.423 341.586 660.78 341.038C661.887 340.558 662.3 339.931 662.02 339.158C661.628 338.203 661.026 337.349 660.26 336.658C659.381 335.791 658.565 334.862 657.82 333.878C657.469 333.449 657.251 332.928 657.19 332.378C657.13 331.828 657.231 331.272 657.48 330.778C658.415 329.317 659.829 328.228 661.48 327.698C664.061 326.656 666.816 326.113 669.6 326.098C672.545 325.997 675.483 326.451 678.26 327.438L682.84 325.438L687.86 328.178L683.26 330.178C684.216 330.846 684.975 331.757 685.46 332.818Z"
    fill="#EA8B24"
  />
  <path
    d="M663.32 358.078C683.611 358.078 700.06 348.443 700.06 336.558C700.06 324.673 683.611 315.038 663.32 315.038C643.029 315.038 626.58 324.673 626.58 336.558C626.58 348.443 643.029 358.078 663.32 358.078Z"
    stroke="#F7931E"
    stroke-width="2.03"
    stroke-miterlimit="10"
  />
  <path
    d="M663.18 354.858C687.359 354.858 706.96 343.378 706.96 329.218C706.96 315.057 687.359 303.578 663.18 303.578C639.001 303.578 619.4 315.057 619.4 329.218C619.4 343.378 639.001 354.858 663.18 354.858Z"
    fill="#FF912E"
  />
  <path
    d="M619.4 329.218V321.798L624.16 327.718L619.4 329.218Z"
    fill="#E0944F"
  />
  <path
    d="M706.94 321.798V329.218H701.4L705.46 323.258L706.94 321.798Z"
    fill="#E0944F"
  />
  <path
    d="M663.18 347.438C687.359 347.438 706.96 335.958 706.96 321.798C706.96 307.637 687.359 296.158 663.18 296.158C639.001 296.158 619.4 307.637 619.4 321.798C619.4 335.958 639.001 347.438 663.18 347.438Z"
    fill="#FFB92C"
  />
  <path
    d="M685.38 318.378C685.693 318.995 685.811 319.692 685.72 320.378L685.54 321.058H677.54C677.608 320.836 677.655 320.608 677.68 320.378C677.65 319.858 677.485 319.354 677.2 318.918C676.735 318.13 676.036 317.508 675.2 317.138C674.036 316.533 672.751 316.198 671.44 316.158C670.228 316.065 669.01 316.25 667.88 316.698C666.76 317.178 666.327 317.805 666.58 318.578C666.955 319.526 667.536 320.38 668.28 321.078C669.142 321.955 669.95 322.883 670.7 323.858C671.056 324.278 671.286 324.789 671.364 325.334C671.442 325.879 671.364 326.435 671.14 326.938C670.263 328.388 668.881 329.463 667.26 329.958C664.576 331.074 661.706 331.671 658.8 331.718C655.661 331.825 652.528 331.385 649.54 330.418L644.94 332.418L639.56 329.798L644.02 327.798C643.212 327.24 642.491 326.566 641.88 325.798C641.42 325.275 641.061 324.671 640.82 324.018C640.667 323.551 640.573 323.068 640.54 322.578C640.486 322.247 640.486 321.909 640.54 321.578L640.7 321.198H648.7C648.616 321.46 648.549 321.727 648.5 321.998C648.533 322.654 648.755 323.286 649.14 323.818C649.778 324.815 650.696 325.601 651.78 326.078C653.224 326.803 654.806 327.212 656.42 327.278C657.88 327.378 659.343 327.146 660.7 326.598C661.807 326.118 662.22 325.491 661.94 324.718C661.548 323.763 660.946 322.909 660.18 322.218C659.392 321.355 658.663 320.44 658 319.478C657.649 319.049 657.431 318.529 657.37 317.978C657.31 317.428 657.41 316.872 657.66 316.378C658.595 314.918 660.009 313.828 661.66 313.298C664.241 312.256 666.996 311.713 669.78 311.698C672.725 311.597 675.663 312.051 678.44 313.038L683.02 311.038L688.04 313.778L683.44 315.778C684.295 316.468 684.962 317.362 685.38 318.378Z"
    fill="#EA8B24"
  />
  <path
    d="M663.24 343.638C683.531 343.638 699.98 334.003 699.98 322.118C699.98 310.233 683.531 300.598 663.24 300.598C642.949 300.598 626.5 310.233 626.5 322.118C626.5 334.003 642.949 343.638 663.24 343.638Z"
    stroke="#F7931E"
    stroke-width="2.03"
    stroke-miterlimit="10"
  />
  <path
    d="M648.76 340.358C672.939 340.358 692.54 328.878 692.54 314.718C692.54 300.557 672.939 289.078 648.76 289.078C624.581 289.078 604.98 300.557 604.98 314.718C604.98 328.878 624.581 340.358 648.76 340.358Z"
    fill="#FF912E"
  />
  <path
    d="M604.98 314.718V307.298L609.74 313.238L604.98 314.718Z"
    fill="#E0944F"
  />
  <path
    d="M692.54 307.298V314.718H686.98L691.04 308.778L692.54 307.298Z"
    fill="#E0944F"
  />
  <path
    d="M648.76 332.938C672.939 332.938 692.54 321.459 692.54 307.298C692.54 293.137 672.939 281.658 648.76 281.658C624.581 281.658 604.98 293.137 604.98 307.298C604.98 321.459 624.581 332.938 648.76 332.938Z"
    fill="#FFB92C"
  />
  <path
    d="M670.96 303.878C671.273 304.495 671.392 305.192 671.3 305.878L671.12 306.558H663.12C663.188 306.336 663.235 306.109 663.26 305.878C663.23 305.358 663.065 304.854 662.78 304.418C662.315 303.63 661.616 303.008 660.78 302.638C659.616 302.033 658.331 301.698 657.02 301.658C655.808 301.565 654.59 301.75 653.46 302.198C652.34 302.678 651.907 303.305 652.16 304.078C652.535 305.026 653.116 305.88 653.86 306.578C654.767 307.49 655.615 308.459 656.4 309.478C656.756 309.898 656.987 310.409 657.064 310.954C657.142 311.499 657.064 312.055 656.84 312.558C655.963 314.008 654.581 315.084 652.96 315.578C650.277 316.694 647.406 317.291 644.5 317.338C641.361 317.445 638.228 317.005 635.24 316.038L630.64 318.038L625.26 315.418L629.72 313.418C628.912 312.86 628.191 312.186 627.58 311.418C627.121 310.895 626.761 310.291 626.52 309.638C626.367 309.172 626.273 308.688 626.24 308.198C626.186 307.867 626.186 307.529 626.24 307.198L626.4 306.818H634.4C634.316 307.08 634.249 307.347 634.2 307.618C634.233 308.274 634.455 308.906 634.84 309.438C635.478 310.435 636.396 311.222 637.48 311.698C638.924 312.423 640.506 312.832 642.12 312.898C643.58 312.998 645.043 312.766 646.4 312.218C647.507 311.738 647.92 311.111 647.64 310.338C647.248 309.383 646.646 308.529 645.88 307.838C645.001 306.971 644.185 306.042 643.44 305.058C643.089 304.63 642.871 304.109 642.81 303.558C642.75 303.008 642.851 302.452 643.1 301.958C644.035 300.498 645.449 299.409 647.1 298.878C649.681 297.836 652.436 297.293 655.22 297.278C658.165 297.177 661.103 297.631 663.88 298.618L668.46 296.618L673.48 299.358L668.88 301.358C669.775 302.008 670.491 302.875 670.96 303.878Z"
    fill="#EA8B24"
  />
  <path
    d="M648.84 329.138C669.131 329.138 685.58 319.503 685.58 307.618C685.58 295.733 669.131 286.098 648.84 286.098C628.549 286.098 612.1 295.733 612.1 307.618C612.1 319.503 628.549 329.138 648.84 329.138Z"
    stroke="#F7931E"
    stroke-width="2.03"
    stroke-miterlimit="10"
  />
  <path
    d="M279.72 94.5978C279.72 94.5978 284.26 85.9778 290.68 89.1778C297.1 92.3778 301 97.9978 309.62 94.5978C318.24 91.1978 323.62 73.3578 329.36 76.0178C335.1 78.6778 338.62 83.3378 336 92.3578C333.38 101.378 334.54 103.418 338.34 104.598C342.14 105.778 328.34 119.158 317.64 116.258C306.94 113.358 279.72 94.5978 279.72 94.5978Z"
    fill="#68E1FD"
  />
  <path
    d="M289.5 122.458C289.5 122.458 261.34 152.558 267.5 184.458C273.66 216.358 346.44 218.978 356.92 194.458C367.4 169.938 357.54 136.078 341.58 124.338C341.58 124.338 354.74 110.338 349.32 100.898C343.9 91.4578 335.08 108.898 330.32 106.378C325.56 103.858 340.66 75.3378 324.18 74.2378C307.7 73.1378 312 103.478 305.06 101.938C298.12 100.398 285.38 86.0978 279.72 94.6178C274.06 103.138 293.42 113.098 289.5 122.458Z"
    fill="#68E1FD"
  />
  <path
    opacity="0.13"
    d="M341.64 124.458C341.64 124.458 354.8 110.458 349.38 101.018C348 98.6178 346.4 97.9578 344.7 98.2578C348.8 105.458 341.1 113.198 335.86 118.498C333.434 120.497 331.228 122.75 329.28 125.218C324.82 132.518 329.58 138.258 334.18 143.898C339.149 149.764 342.732 156.675 344.66 164.118C349.78 185.318 339.56 203.298 323.06 210.818C338.8 209.778 352.8 204.338 357.06 194.558C367.46 169.998 357.6 136.198 341.64 124.458Z"
    fill="#333333"
  />
  <path
    d="M338.4 118.918C323.041 122.104 307.095 120.884 292.4 115.398C287.12 113.398 284.86 121.898 290.08 123.798C306.3 129.708 323.858 130.928 340.74 127.318C346.2 126.178 343.88 117.798 338.4 118.918Z"
    fill="#C64F14"
  />
  <path
    d="M333.88 169.078C332.84 164.158 328 161.938 323.44 161.478C322.708 161.425 321.972 161.425 321.24 161.478C321.24 156.818 321.24 152.158 321.24 147.478C322.362 147.593 323.468 147.827 324.54 148.178C326.54 148.838 327.66 145.758 325.66 145.098C324.218 144.681 322.721 144.485 321.22 144.518C321.22 142.798 321.22 141.078 321.22 139.378C321.22 137.378 317.96 136.998 317.96 139.118C317.96 141.238 317.96 142.838 317.96 144.698C316.92 144.818 315.96 144.978 314.8 145.218C314.8 143.558 314.8 141.918 314.8 140.258C314.8 138.258 311.5 137.878 311.54 139.998C311.58 142.118 311.54 143.998 311.54 145.998C304 148.458 298 153.478 302.9 160.558C303.897 161.936 305.212 163.052 306.734 163.811C308.256 164.571 309.939 164.95 311.64 164.918C311.64 169.738 311.64 174.558 311.64 179.398C309.36 179.198 307.1 178.918 304.94 178.598C302.78 178.278 302.6 181.558 304.68 181.858C306.44 182.118 308.92 182.378 311.64 182.518C311.64 184.758 311.64 186.998 311.64 189.238C311.64 191.478 314.9 191.618 314.9 189.498C314.9 187.378 314.9 184.898 314.9 182.598C316.04 182.598 317.18 182.598 318.34 182.478C318.34 185.838 318.46 189.198 318.54 192.478C318.54 194.478 321.86 194.838 321.8 192.738C321.7 189.178 321.66 185.618 321.58 182.058C329.2 180.998 335.7 177.618 333.88 169.078ZM309.74 161.078C304.767 160.465 304.487 157.005 308.9 150.698C309.744 150.196 310.619 149.748 311.52 149.358C311.52 153.478 311.52 157.598 311.62 161.718C310.967 161.572 310.335 161.344 309.74 161.038V161.078ZM314.78 148.098C315.831 147.791 316.91 147.583 318 147.478C318 152.238 318 156.978 318 161.738C316.96 161.858 316 161.958 314.9 161.978C314.86 157.338 314.82 152.698 314.76 148.078L314.78 148.098ZM314.92 179.478C314.92 174.598 314.92 169.718 314.92 164.838L318 164.678C318 169.598 318.18 174.518 318.28 179.438C317.18 179.478 316 179.578 314.92 179.478ZM321.54 179.038C321.54 174.238 321.32 169.438 321.26 164.638C321.62 164.638 321.98 164.638 322.32 164.638C327.28 164.998 329.62 165.958 329.42 171.138C329.22 176.318 326.52 178.178 321.54 179.118V179.038Z"
    fill="#4A9E18"
  />
  <path
    d="M306 407.078C306 407.078 305.66 417.538 303.58 419.258C301.5 420.978 291.58 426.438 286.94 426.698C282.3 426.958 282.68 431.778 285.46 434.698C288.24 437.618 309.22 436.318 310.72 434.818C312.22 433.318 318 423.878 317.14 423.718C316.28 423.558 315.88 436.318 316.7 436.758C317.85 437.045 319.038 437.146 320.22 437.058L323.28 403.478"
    fill="#F9C441"
  />
  <path
    d="M328.86 409.898C328.86 409.898 330.26 420.258 328.5 422.318C326.74 424.378 317.84 431.378 313.32 432.318C308.8 433.258 309.96 438.038 313.18 440.318C316.4 442.598 336.88 437.978 338.1 436.318C339.32 434.658 343.46 424.318 342.58 424.318C341.7 424.318 343.42 436.958 344.3 437.238C345.481 437.333 346.669 437.238 347.82 436.958L345.28 403.478"
    fill="#F9C441"
  />
  <path
    d="M344.88 274.338C344.88 274.338 317.58 290.518 288.1 274.138L286.7 295.658C286.7 295.658 319.1 308.558 341.98 303.278"
    fill="#68E1FD"
  />
  <path
    opacity="0.62"
    d="M344.88 274.338C344.88 274.338 317.58 290.518 288.1 274.138L286.7 295.658C286.7 295.658 319.1 308.558 341.98 303.278"
    fill="#333333"
  />
  <path
    d="M287.8 278.698C287.8 278.698 284.26 277.058 283.94 276.838C282.46 275.858 281.04 274.738 279.62 273.698C278.375 272.593 276.899 271.78 275.3 271.318C274.928 271.264 274.549 271.304 274.197 271.434C273.844 271.564 273.53 271.78 273.282 272.062C273.034 272.343 272.86 272.683 272.775 273.049C272.691 273.415 272.7 273.796 272.8 274.158C273.1 275.798 275.84 277.578 276.92 278.758C276.92 278.758 277.76 276.758 277.86 276.758C277.62 277.457 277.305 278.127 276.92 278.758C276.888 278.996 276.814 279.226 276.7 279.438C275.4 281.858 273.58 283.998 272.2 286.378C272.027 286.759 271.826 287.126 271.6 287.478L271.24 288.258C272.908 288.553 274.59 288.76 276.28 288.878C279.836 289.669 283.481 289.985 287.12 289.818C287.44 286.158 287.52 282.518 287.8 278.698Z"
    fill="#FFE8E6"
  />
  <path
    d="M280.7 285.378C277.3 283.958 277.44 280.478 277.98 277.378C278.08 276.798 277.18 276.538 277.08 277.138C276.44 280.818 276.54 284.638 280.46 286.278C281.02 286.498 281.26 285.598 280.7 285.378Z"
    fill="#42210B"
  />
  <path
    d="M325.02 359.178C327.18 359.358 347.02 361.698 362.04 356.238C365.598 350.743 368.12 344.642 369.48 338.238C370.903 332.514 371.839 326.68 372.28 320.798L357.1 321.498C342.145 321.983 327.262 323.776 312.62 326.858C304.1 328.858 294.42 330.758 288.28 337.518C281.3 345.218 283.36 355.898 285.36 365.138C288.745 380.054 293.361 394.664 299.16 408.818L335.88 403.338C335.88 403.338 321.08 358.858 325.02 359.178Z"
    fill="#DB6B0F"
  />
  <path
    d="M340.44 365.198C353.24 366.238 375.74 371.018 381.42 355.198C382.1 353.318 384.32 326.938 381.42 327.078L372.52 327.498C357.552 327.974 342.655 329.76 328 332.838C319.48 334.838 309.8 336.738 303.66 343.498C296.68 351.198 298.74 361.878 300.74 371.118C304.125 386.034 308.741 400.644 314.54 414.798L351.26 409.318C351.26 409.318 336.48 364.878 340.44 365.198Z"
    fill="#FF730B"
  />
  <path
    d="M276 310.218L287.2 296.358C287.468 296.028 287.624 295.622 287.646 295.197C287.667 294.773 287.553 294.353 287.32 293.998L270 267.058C269.832 266.792 269.604 266.57 269.334 266.409C269.064 266.248 268.759 266.153 268.446 266.131C268.132 266.11 267.818 266.163 267.528 266.285C267.239 266.408 266.983 266.597 266.78 266.838L253.7 282.238C253.411 282.594 253.253 283.039 253.253 283.498C253.253 283.957 253.411 284.401 253.7 284.758L273 310.178C273.185 310.393 273.413 310.567 273.67 310.687C273.928 310.807 274.207 310.871 274.491 310.875C274.775 310.879 275.056 310.822 275.316 310.709C275.576 310.596 275.81 310.428 276 310.218Z"
    fill="#333333"
  />
  <path
    d="M295.3 314.378H295.16C295.274 314.138 295.339 313.878 295.352 313.612C295.364 313.347 295.323 313.082 295.232 312.832C295.141 312.583 295.001 312.354 294.82 312.159C294.64 311.964 294.422 311.808 294.18 311.698C294.29 311.402 294.334 311.085 294.309 310.77C294.284 310.455 294.189 310.149 294.033 309.875C293.877 309.6 293.662 309.363 293.404 309.18C293.146 308.998 292.851 308.874 292.54 308.818C290.038 308.343 287.578 307.675 285.18 306.818C283.64 306.176 282.149 305.42 280.72 304.558C279.18 303.758 277.68 302.918 276.22 301.978C274.242 300.651 272.417 299.108 270.78 297.378C270.02 296.598 269.3 295.778 268.52 295.018C267.695 294.338 266.951 293.566 266.3 292.718C265.18 290.958 263.7 290.498 262.64 292.478C261.58 294.458 263.9 296.238 265.08 298.218C263.08 297.858 261.26 297.618 259.34 297.438L259.18 297.558C257.367 299.144 257.073 300.531 258.3 301.718C258.41 301.911 258.454 302.134 258.425 302.355C258.396 302.575 258.296 302.78 258.14 302.938C257.24 304.038 256.14 306.738 258.38 307.118C258.635 307.192 258.851 307.364 258.982 307.595C259.113 307.827 259.148 308.101 259.08 308.358C258.934 309.388 259.057 310.438 259.44 311.406C259.822 312.374 260.449 313.226 261.26 313.878C264.18 315.198 267.26 314.978 270.66 315.498C274.061 316.15 277.405 317.073 280.66 318.258C284.047 319.124 287.38 320.098 290.66 321.178C291.061 321.298 291.487 321.304 291.891 321.195C292.294 321.086 292.659 320.866 292.945 320.56C293.23 320.254 293.424 319.874 293.504 319.464C293.585 319.054 293.548 318.629 293.4 318.238L294.1 318.418C296.54 318.978 297.56 315.118 295.3 314.378Z"
    fill="#FFE8E6"
  />
  <path
    d="M258.1 302.958L257.92 303.218L264.92 304.078C265.042 304.094 265.165 304.06 265.263 303.985C265.36 303.91 265.424 303.8 265.44 303.678C265.456 303.556 265.423 303.432 265.348 303.335C265.273 303.237 265.162 303.174 265.04 303.158L258.4 302.338C258.356 302.567 258.252 302.781 258.1 302.958Z"
    fill="#42210B"
  />
  <path
    d="M259.04 308.338C261.04 308.538 263.2 308.758 265.28 308.918C265.88 308.918 266 308.038 265.4 307.998C263.18 307.818 260.96 307.598 258.74 307.378C258.856 307.507 258.944 307.659 258.995 307.825C259.047 307.991 259.062 308.166 259.04 308.338Z"
    fill="#42210B"
  />
  <path
    d="M260.16 312.818L266.02 313.078C266.62 313.078 266.74 312.178 266.14 312.158L259.6 311.858C259.756 312.195 259.943 312.516 260.16 312.818Z"
    fill="#42210B"
  />
  <path
    d="M344 274.138C336.334 283.545 326.694 291.151 315.762 296.418C304.83 301.685 292.874 304.485 280.74 304.618L275.32 322.258C275.32 322.258 313.88 334.778 339.12 313.738L343.36 324.478C343.36 324.478 364.88 334.778 381.74 326.818C381.74 326.818 381.14 279.678 347.3 263.918"
    fill="#68E1FD"
  />
  <path
    opacity="0.13"
    d="M344 274.138C344 274.138 320.2 304.558 280.74 304.618L275.32 322.258C275.32 322.258 313.88 334.778 339.12 313.738L343.36 324.478C343.36 324.478 364.88 334.778 381.74 326.818C381.74 326.818 381.14 279.678 347.3 263.918"
    fill="#333333"
  />
  <path
    d="M326.24 252.938C326.24 252.938 325.1 274.158 335.48 276.718C347.34 279.618 355.3 263.258 350 254.058C344.7 244.858 329 245.798 326.24 252.938Z"
    fill="#FFE8E6"
  />
  <path
    d="M333 243.938C330.915 244.585 328.99 245.666 327.352 247.11C325.715 248.555 324.402 250.329 323.5 252.318C323.38 252.618 323.28 252.898 323.18 253.198C323.055 254.045 323.015 254.903 323.06 255.758C323.065 256.806 323.379 257.83 323.962 258.702C324.546 259.573 325.373 260.253 326.34 260.658C326.189 258.886 326.426 257.102 327.034 255.43C327.642 253.759 328.606 252.239 329.86 250.978C329.86 250.978 328.66 253.318 340.06 258.418C340.06 258.418 347.9 268.778 345.72 274.138C345.92 273.618 347.36 272.878 347.72 272.518C349.443 271.077 351.005 269.454 352.38 267.678C362 255.078 346.56 239.638 333 243.938Z"
    fill="#2B0107"
  />
  <path
    d="M329.88 250.978C329.88 250.978 330.22 260.678 341.88 262.438C348.88 263.518 334.06 276.438 341 280.438C347.94 284.438 361 275.538 364.18 268.878C367.36 262.218 356.94 242.878 340.3 241.918C340.3 241.918 328.3 239.618 323.44 253.078"
    fill="#2B0107"
  />
  <path
    d="M333.08 262.718C332.958 262.699 332.834 262.73 332.734 262.803C332.635 262.876 332.569 262.986 332.55 263.108C332.531 263.23 332.562 263.354 332.635 263.454C332.708 263.553 332.818 263.619 332.94 263.638C333 263.647 333.062 263.644 333.121 263.63C333.181 263.615 333.237 263.589 333.286 263.553C333.335 263.517 333.377 263.471 333.408 263.419C333.44 263.366 333.461 263.308 333.47 263.248C333.479 263.188 333.476 263.126 333.462 263.067C333.447 263.007 333.421 262.951 333.385 262.902C333.349 262.853 333.303 262.811 333.251 262.78C333.198 262.748 333.14 262.727 333.08 262.718Z"
    fill="#42210B"
  />
  <path
    d="M327.82 261.678H327.56C326.98 261.858 327.34 262.738 327.9 262.558H328.16C328.74 262.358 328.4 261.478 327.82 261.678Z"
    fill="#42210B"
  />
  <path
    d="M346.56 262.438C344.56 259.018 340.04 262.638 340.18 265.518C340.182 265.641 340.212 265.762 340.268 265.873C340.324 265.983 340.404 266.079 340.502 266.154C340.6 266.229 340.714 266.281 340.834 266.306C340.955 266.331 341.08 266.328 341.2 266.298C341.216 266.409 341.25 266.517 341.3 266.618C341.074 266.646 340.846 266.646 340.62 266.618C339.44 266.378 339.16 268.238 340.34 268.478C343.26 269.018 348.52 265.938 346.56 262.438ZM342.56 264.058C342.65 264.177 342.766 264.273 342.9 264.338C343.045 264.404 343.205 264.43 343.364 264.412C343.522 264.395 343.673 264.334 343.8 264.238C343.755 264.363 343.687 264.478 343.6 264.578C343.429 264.79 343.213 264.962 342.967 265.079C342.722 265.197 342.452 265.258 342.18 265.258H342C342.061 264.798 342.28 264.374 342.62 264.058H342.56Z"
    fill="#FFE8E6"
  />
  <path
    d="M331.2 268.038C329.4 268.038 330.38 265.938 330.64 265.018C330.9 264.098 331.26 263.018 331.58 261.998C331.78 261.418 330.86 261.178 330.68 261.758C330.34 262.758 330.02 263.758 329.74 264.778C329.419 265.609 329.197 266.475 329.08 267.358C329.08 268.598 330.16 268.958 331.2 268.998C331.8 269.018 331.8 268.078 331.2 268.038Z"
    fill="#42210B"
  />
  <path
    d="M335.84 267.938C335.578 268.754 335.05 269.458 334.34 269.938C333.369 270.352 332.295 270.464 331.26 270.258C330.68 270.258 330.42 271.078 331.02 271.158C332.182 271.385 333.384 271.295 334.5 270.898C335.01 270.643 335.463 270.288 335.834 269.856C336.205 269.423 336.486 268.921 336.66 268.378C336.88 267.858 336 267.478 335.84 267.938Z"
    fill="#42210B"
  />
  <path
    d="M349.12 327.878C332.5 328.738 306.1 328.718 298.72 347.438C295 356.838 297.8 368.738 299.9 378.238C302.772 390.115 306.351 401.809 310.62 413.258C311.04 414.458 312.98 413.938 312.62 412.718C309.3 403.258 305.98 393.778 303.44 384.078C300.9 374.378 298.22 363.638 299.44 353.618C302.08 331.018 332.12 330.778 349.24 329.878C350.4 329.818 350.42 327.818 349.12 327.878Z"
    fill="#333333"
  />
  <path
    d="M665.74 309.478C665.74 309.478 666.82 326.258 653.74 327.278C653.74 327.278 664.78 331.858 666.62 340.638C666.62 340.638 668 328.378 679.2 327.118C675.241 326.229 671.721 323.973 669.26 320.747C666.798 317.521 665.552 313.531 665.74 309.478Z"
    fill="white"
  />
  <path
    d="M485.4 352.658C485.4 352.658 486.68 372.298 471.4 373.498C471.4 373.498 484.34 378.858 486.46 389.138C486.46 389.138 488.06 374.798 501.18 373.318C496.539 372.283 492.411 369.643 489.525 365.864C486.638 362.085 485.178 357.408 485.4 352.658Z"
    fill="white"
  />
</svg>
